solid blade4
   facet normal -2.278257e-17 -1.000000e+00 1.399396e-17
      outer loop
         vertex 7.035764e+01 2.200000e+01 7.425189e+01
         vertex 6.856430e+01 2.200000e+01 7.402182e+01
         vertex 7.037036e+01 2.200000e+01 7.415270e+01
      endloop
   endfacet
   facet normal -2.278257e-17 -1.000000e+00 1.399396e-17
      outer loop
         vertex 7.037036e+01 2.200000e+01 7.415270e+01
         vertex 6.856430e+01 2.200000e+01 7.402182e+01
         vertex 6.857703e+01 2.200000e+01 7.392263e+01
      endloop
   endfacet
   facet normal -9.918711e-01 2.081668e-17 -1.272468e-01
      outer loop
         vertex 7.035764e+01 2.000000e+01 7.425189e+01
         vertex 7.035764e+01 2.200000e+01 7.425189e+01
         vertex 7.037036e+01 2.000000e+01 7.415270e+01
      endloop
   endfacet
   facet normal -9.918711e-01 2.081668e-17 -1.272468e-01
      outer loop
         vertex 7.037036e+01 2.000000e+01 7.415270e+01
         vertex 7.035764e+01 2.200000e+01 7.425189e+01
         vertex 7.037036e+01 2.200000e+01 7.415270e+01
      endloop
   endfacet
   facet normal 2.278257e-17 1.000000e+00 -1.399396e-17
      outer loop
         vertex 6.856430e+01 2.000000e+01 7.402182e+01
         vertex 7.035764e+01 2.000000e+01 7.425189e+01
         vertex 6.857703e+01 2.000000e+01 7.392263e+01
      endloop
   endfacet
   facet normal 2.278257e-17 1.000000e+00 -1.399396e-17
      outer loop
         vertex 6.857703e+01 2.000000e+01 7.392263e+01
         vertex 7.035764e+01 2.000000e+01 7.425189e+01
         vertex 7.037036e+01 2.000000e+01 7.415270e+01
      endloop
   endfacet
   facet normal -9.918711e-01 2.081668e-17 -1.272468e-01
      outer loop
         vertex 6.856430e+01 1.700000e+01 7.402182e+01
         vertex 6.856430e+01 2.000000e+01 7.402182e+01
         vertex 6.857703e+01 1.700000e+01 7.392263e+01
      endloop
   endfacet
   facet normal -9.918711e-01 2.081668e-17 -1.272468e-01
      outer loop
         vertex 6.857703e+01 1.700000e+01 7.392263e+01
         vertex 6.856430e+01 2.000000e+01 7.402182e+01
         vertex 6.857703e+01 2.000000e+01 7.392263e+01
      endloop
   endfacet
   facet normal -2.278257e-17 -1.000000e+00 1.399396e-17
      outer loop
         vertex 7.848968e+01 1.700000e+01 7.529514e+01
         vertex 6.856430e+01 1.700000e+01 7.402182e+01
         vertex 7.850240e+01 1.700000e+01 7.519596e+01
      endloop
   endfacet
   facet normal -2.278257e-17 -1.000000e+00 1.399396e-17
      outer loop
         vertex 7.850240e+01 1.700000e+01 7.519596e+01
         vertex 6.856430e+01 1.700000e+01 7.402182e+01
         vertex 6.857703e+01 1.700000e+01 7.392263e+01
      endloop
   endfacet
   facet normal 9.918711e-01 -2.081668e-17 1.272468e-01
      outer loop
         vertex 7.848968e+01 2.500000e+01 7.529514e+01
         vertex 7.848968e+01 1.700000e+01 7.529514e+01
         vertex 7.850240e+01 2.500000e+01 7.519596e+01
      endloop
   endfacet
   facet normal 9.918711e-01 -2.081668e-17 1.272468e-01
      outer loop
         vertex 7.850240e+01 2.500000e+01 7.519596e+01
         vertex 7.848968e+01 1.700000e+01 7.529514e+01
         vertex 7.850240e+01 1.700000e+01 7.519596e+01
      endloop
   endfacet
   facet normal 2.278257e-17 1.000000e+00 -1.399396e-17
      outer loop
         vertex 6.856430e+01 2.500000e+01 7.402182e+01
         vertex 7.848968e+01 2.500000e+01 7.529514e+01
         vertex 6.857703e+01 2.500000e+01 7.392263e+01
      endloop
   endfacet
   facet normal 2.278257e-17 1.000000e+00 -1.399396e-17
      outer loop
         vertex 6.857703e+01 2.500000e+01 7.392263e+01
         vertex 7.848968e+01 2.500000e+01 7.529514e+01
         vertex 7.850240e+01 2.500000e+01 7.519596e+01
      endloop
   endfacet
   facet normal -9.918711e-01 2.081668e-17 -1.272468e-01
      outer loop
         vertex 6.856430e+01 2.200000e+01 7.402182e+01
         vertex 6.856430e+01 2.500000e+01 7.402182e+01
         vertex 6.857703e+01 2.200000e+01 7.392263e+01
      endloop
   endfacet
   facet normal -9.918711e-01 2.081668e-17 -1.272468e-01
      outer loop
         vertex 6.857703e+01 2.200000e+01 7.392263e+01
         vertex 6.856430e+01 2.500000e+01 7.402182e+01
         vertex 6.857703e+01 2.500000e+01 7.392263e+01
      endloop
   endfacet
   facet normal -1.272468e-01 1.677921e-17 9.918711e-01
      outer loop
         vertex 6.856430e+01 2.000000e+01 7.402182e+01
         vertex 6.856430e+01 1.700000e+01 7.402182e+01
         vertex 7.035764e+01 2.000000e+01 7.425189e+01
      endloop
   endfacet
   facet normal -1.272468e-01 1.677921e-17 9.918711e-01
      outer loop
         vertex 7.035764e+01 2.000000e+01 7.425189e+01
         vertex 6.856430e+01 1.700000e+01 7.402182e+01
         vertex 7.848968e+01 1.700000e+01 7.529514e+01
      endloop
   endfacet
   facet normal -1.272468e-01 1.677921e-17 9.918711e-01
      outer loop
         vertex 7.035764e+01 2.000000e+01 7.425189e+01
         vertex 7.848968e+01 1.700000e+01 7.529514e+01
         vertex 7.035764e+01 2.200000e+01 7.425189e+01
      endloop
   endfacet
   facet normal -1.272468e-01 1.677921e-17 9.918711e-01
      outer loop
         vertex 7.035764e+01 2.200000e+01 7.425189e+01
         vertex 7.848968e+01 1.700000e+01 7.529514e+01
         vertex 7.848968e+01 2.500000e+01 7.529514e+01
      endloop
   endfacet
   facet normal -1.272468e-01 1.677921e-17 9.918711e-01
      outer loop
         vertex 7.035764e+01 2.200000e+01 7.425189e+01
         vertex 7.848968e+01 2.500000e+01 7.529514e+01
         vertex 6.856430e+01 2.200000e+01 7.402182e+01
      endloop
   endfacet
   facet normal -1.272468e-01 1.677921e-17 9.918711e-01
      outer loop
         vertex 6.856430e+01 2.200000e+01 7.402182e+01
         vertex 7.848968e+01 2.500000e+01 7.529514e+01
         vertex 6.856430e+01 2.500000e+01 7.402182e+01
      endloop
   endfacet
   facet normal 1.272468e-01 -1.677921e-17 -9.918711e-01
      outer loop
         vertex 6.857703e+01 2.200000e+01 7.392263e+01
         vertex 6.857703e+01 2.500000e+01 7.392263e+01
         vertex 7.037036e+01 2.200000e+01 7.415270e+01
      endloop
   endfacet
   facet normal 1.272468e-01 -1.677921e-17 -9.918711e-01
      outer loop
         vertex 7.037036e+01 2.200000e+01 7.415270e+01
         vertex 6.857703e+01 2.500000e+01 7.392263e+01
         vertex 7.850240e+01 2.500000e+01 7.519596e+01
      endloop
   endfacet
   facet normal 1.272468e-01 -1.677921e-17 -9.918711e-01
      outer loop
         vertex 7.037036e+01 2.200000e+01 7.415270e+01
         vertex 7.850240e+01 2.500000e+01 7.519596e+01
         vertex 7.037036e+01 2.000000e+01 7.415270e+01
      endloop
   endfacet
   facet normal 1.272468e-01 -1.677921e-17 -9.918711e-01
      outer loop
         vertex 7.037036e+01 2.000000e+01 7.415270e+01
         vertex 7.850240e+01 2.500000e+01 7.519596e+01
         vertex 7.850240e+01 1.700000e+01 7.519596e+01
      endloop
   endfacet
   facet normal 1.272468e-01 -1.677921e-17 -9.918711e-01
      outer loop
         vertex 7.037036e+01 2.000000e+01 7.415270e+01
         vertex 7.850240e+01 1.700000e+01 7.519596e+01
         vertex 6.857703e+01 2.000000e+01 7.392263e+01
      endloop
   endfacet
   facet normal 1.272468e-01 -1.677921e-17 -9.918711e-01
      outer loop
         vertex 6.857703e+01 2.000000e+01 7.392263e+01
         vertex 7.850240e+01 1.700000e+01 7.519596e+01
         vertex 6.857703e+01 1.700000e+01 7.392263e+01
      endloop
   endfacet
endsolid