solid blade3
   facet normal 0.000000e+00 -1.000000e+00 -0.000000e+00
      outer loop
         vertex 6.497732e+01 2.200000e+01 7.949709e+01
         vertex 6.427990e+01 2.200000e+01 7.782898e+01
         vertex 6.506958e+01 2.200000e+01 7.945852e+01
      endloop
   endfacet
   facet normal 0.000000e+00 -1.000000e+00 0.000000e+00
      outer loop
         vertex 6.506958e+01 2.200000e+01 7.945852e+01
         vertex 6.427990e+01 2.200000e+01 7.782898e+01
         vertex 6.437216e+01 2.200000e+01 7.779041e+01
      endloop
   endfacet
   facet normal -3.857366e-01 0.000000e+00 -9.226090e-01
      outer loop
         vertex 6.497732e+01 2.000000e+01 7.949709e+01
         vertex 6.497732e+01 2.200000e+01 7.949709e+01
         vertex 6.506958e+01 2.000000e+01 7.945852e+01
      endloop
   endfacet
   facet normal -3.857366e-01 0.000000e+00 -9.226090e-01
      outer loop
         vertex 6.506958e+01 2.000000e+01 7.945852e+01
         vertex 6.497732e+01 2.200000e+01 7.949709e+01
         vertex 6.506958e+01 2.200000e+01 7.945852e+01
      endloop
   endfacet
   facet normal 0.000000e+00 1.000000e+00 0.000000e+00
      outer loop
         vertex 6.427990e+01 2.000000e+01 7.782898e+01
         vertex 6.497732e+01 2.000000e+01 7.949709e+01
         vertex 6.437216e+01 2.000000e+01 7.779041e+01
      endloop
   endfacet
   facet normal 0.000000e+00 1.000000e+00 0.000000e+00
      outer loop
         vertex 6.437216e+01 2.000000e+01 7.779041e+01
         vertex 6.497732e+01 2.000000e+01 7.949709e+01
         vertex 6.506958e+01 2.000000e+01 7.945852e+01
      endloop
   endfacet
   facet normal -3.857366e-01 0.000000e+00 -9.226090e-01
      outer loop
         vertex 6.427990e+01 1.700000e+01 7.782898e+01
         vertex 6.427990e+01 2.000000e+01 7.782898e+01
         vertex 6.437216e+01 1.700000e+01 7.779041e+01
      endloop
   endfacet
   facet normal -3.857366e-01 0.000000e+00 -9.226090e-01
      outer loop
         vertex 6.437216e+01 1.700000e+01 7.779041e+01
         vertex 6.427990e+01 2.000000e+01 7.782898e+01
         vertex 6.437216e+01 2.000000e+01 7.779041e+01
      endloop
   endfacet
   facet normal 0.000000e+00 -1.000000e+00 -0.000000e+00
      outer loop
         vertex 6.813986e+01 1.700000e+01 8.706127e+01
         vertex 6.427990e+01 1.700000e+01 7.782898e+01
         vertex 6.823212e+01 1.700000e+01 8.702270e+01
      endloop
   endfacet
   facet normal 0.000000e+00 -1.000000e+00 0.000000e+00
      outer loop
         vertex 6.823212e+01 1.700000e+01 8.702270e+01
         vertex 6.427990e+01 1.700000e+01 7.782898e+01
         vertex 6.437216e+01 1.700000e+01 7.779041e+01
      endloop
   endfacet
   facet normal 3.857366e-01 0.000000e+00 9.226090e-01
      outer loop
         vertex 6.813986e+01 2.500000e+01 8.706127e+01
         vertex 6.813986e+01 1.700000e+01 8.706127e+01
         vertex 6.823212e+01 2.500000e+01 8.702270e+01
      endloop
   endfacet
   facet normal 3.857366e-01 0.000000e+00 9.226090e-01
      outer loop
         vertex 6.823212e+01 2.500000e+01 8.702270e+01
         vertex 6.813986e+01 1.700000e+01 8.706127e+01
         vertex 6.823212e+01 1.700000e+01 8.702270e+01
      endloop
   endfacet
   facet normal 0.000000e+00 1.000000e+00 0.000000e+00
      outer loop
         vertex 6.427990e+01 2.500000e+01 7.782898e+01
         vertex 6.813986e+01 2.500000e+01 8.706127e+01
         vertex 6.437216e+01 2.500000e+01 7.779041e+01
      endloop
   endfacet
   facet normal 0.000000e+00 1.000000e+00 0.000000e+00
      outer loop
         vertex 6.437216e+01 2.500000e+01 7.779041e+01
         vertex 6.813986e+01 2.500000e+01 8.706127e+01
         vertex 6.823212e+01 2.500000e+01 8.702270e+01
      endloop
   endfacet
   facet normal -3.857366e-01 0.000000e+00 -9.226090e-01
      outer loop
         vertex 6.427990e+01 2.200000e+01 7.782898e+01
         vertex 6.427990e+01 2.500000e+01 7.782898e+01
         vertex 6.437216e+01 2.200000e+01 7.779041e+01
      endloop
   endfacet
   facet normal -3.857366e-01 0.000000e+00 -9.226090e-01
      outer loop
         vertex 6.437216e+01 2.200000e+01 7.779041e+01
         vertex 6.427990e+01 2.500000e+01 7.782898e+01
         vertex 6.437216e+01 2.500000e+01 7.779041e+01
      endloop
   endfacet
   facet normal -9.226090e-01 0.000000e+00 3.857366e-01
      outer loop
         vertex 6.427990e+01 2.000000e+01 7.782898e+01
         vertex 6.427990e+01 1.700000e+01 7.782898e+01
         vertex 6.497732e+01 2.000000e+01 7.949709e+01
      endloop
   endfacet
   facet normal -9.226090e-01 0.000000e+00 3.857366e-01
      outer loop
         vertex 6.497732e+01 2.000000e+01 7.949709e+01
         vertex 6.427990e+01 1.700000e+01 7.782898e+01
         vertex 6.813986e+01 1.700000e+01 8.706127e+01
      endloop
   endfacet
   facet normal -9.226090e-01 0.000000e+00 3.857366e-01
      outer loop
         vertex 6.497732e+01 2.000000e+01 7.949709e+01
         vertex 6.813986e+01 1.700000e+01 8.706127e+01
         vertex 6.497732e+01 2.200000e+01 7.949709e+01
      endloop
   endfacet
   facet normal -9.226090e-01 0.000000e+00 3.857366e-01
      outer loop
         vertex 6.497732e+01 2.200000e+01 7.949709e+01
         vertex 6.813986e+01 1.700000e+01 8.706127e+01
         vertex 6.813986e+01 2.500000e+01 8.706127e+01
      endloop
   endfacet
   facet normal -9.226090e-01 0.000000e+00 3.857366e-01
      outer loop
         vertex 6.497732e+01 2.200000e+01 7.949709e+01
         vertex 6.813986e+01 2.500000e+01 8.706127e+01
         vertex 6.427990e+01 2.200000e+01 7.782898e+01
      endloop
   endfacet
   facet normal -9.226090e-01 0.000000e+00 3.857366e-01
      outer loop
         vertex 6.427990e+01 2.200000e+01 7.782898e+01
         vertex 6.813986e+01 2.500000e+01 8.706127e+01
         vertex 6.427990e+01 2.500000e+01 7.782898e+01
      endloop
   endfacet
   facet normal 9.226090e-01 0.000000e+00 -3.857366e-01
      outer loop
         vertex 6.437216e+01 2.200000e+01 7.779041e+01
         vertex 6.437216e+01 2.500000e+01 7.779041e+01
         vertex 6.506958e+01 2.200000e+01 7.945852e+01
      endloop
   endfacet
   facet normal 9.226090e-01 0.000000e+00 -3.857366e-01
      outer loop
         vertex 6.506958e+01 2.200000e+01 7.945852e+01
         vertex 6.437216e+01 2.500000e+01 7.779041e+01
         vertex 6.823212e+01 2.500000e+01 8.702270e+01
      endloop
   endfacet
   facet normal 9.226090e-01 0.000000e+00 -3.857366e-01
      outer loop
         vertex 6.506958e+01 2.200000e+01 7.945852e+01
         vertex 6.823212e+01 2.500000e+01 8.702270e+01
         vertex 6.506958e+01 2.000000e+01 7.945852e+01
      endloop
   endfacet
   facet normal 9.226090e-01 0.000000e+00 -3.857366e-01
      outer loop
         vertex 6.506958e+01 2.000000e+01 7.945852e+01
         vertex 6.823212e+01 2.500000e+01 8.702270e+01
         vertex 6.823212e+01 1.700000e+01 8.702270e+01
      endloop
   endfacet
   facet normal 9.226090e-01 -0.000000e+00 -3.857366e-01
      outer loop
         vertex 6.506958e+01 2.000000e+01 7.945852e+01
         vertex 6.823212e+01 1.700000e+01 8.702270e+01
         vertex 6.437216e+01 2.000000e+01 7.779041e+01
      endloop
   endfacet
   facet normal 9.226090e-01 0.000000e+00 -3.857366e-01
      outer loop
         vertex 6.437216e+01 2.000000e+01 7.779041e+01
         vertex 6.823212e+01 1.700000e+01 8.702270e+01
         vertex 6.437216e+01 1.700000e+01 7.779041e+01
      endloop
   endfacet
endsolid