solid baffles
   facet normal 3.494333e-17 -1.000000e+00 -1.173736e-16
      outer loop
         vertex 7.114826e+01 1.660409e+02 9.001799e+01
         vertex 7.407523e+01 1.660409e+02 8.936008e+01
         vertex 1.295317e+02 1.660409e+02 1.247031e+02
      endloop
   endfacet
   facet normal 3.494333e-17 -1.000000e+00 -1.173736e-16
      outer loop
         vertex 1.301896e+02 1.660409e+02 1.276300e+02
         vertex 1.418755e+02 1.660409e+02 1.250034e+02
         vertex 1.427667e+02 1.660409e+02 1.312953e+02
      endloop
   endfacet
   facet normal 3.494333e-17 -1.000000e+00 -1.173736e-16
      outer loop
         vertex 2.510058e+01 1.660409e+02 1.522989e+02
         vertex 2.477024e+01 1.660409e+02 1.510296e+02
         vertex 3.646318e+01 1.660409e+02 1.484014e+02
      endloop
   endfacet
   facet normal 3.494333e-17 -1.000000e+00 -1.173736e-16
      outer loop
         vertex 6.554203e+01 1.660409e+02 7.914744e+01
         vertex 6.852001e+01 1.660409e+02 7.832504e+01
         vertex 7.114826e+01 1.660409e+02 9.001799e+01
      endloop
   endfacet
   facet normal 3.494333e-17 -1.000000e+00 -1.173736e-16
      outer loop
         vertex 9.191960e+01 1.660409e+02 1.837444e+02
         vertex 9.454627e+01 1.660409e+02 1.954303e+02
         vertex 9.002320e+01 1.660409e+02 1.961395e+02
      endloop
   endfacet
   facet normal 3.494333e-17 -1.000000e+00 -1.173736e-16
      outer loop
         vertex 1.398597e+02 1.660409e+02 1.174034e+02
         vertex 1.412246e+02 1.660409e+02 1.220748e+02
         vertex 1.295317e+02 1.660409e+02 1.247031e+02
      endloop
   endfacet
   facet normal 3.494333e-17 -1.000000e+00 -1.173736e-16
      outer loop
         vertex 7.407523e+01 1.660409e+02 8.936008e+01
         vertex 7.144857e+01 1.660409e+02 7.767418e+01
         vertex 7.245399e+01 1.660409e+02 7.748585e+01
      endloop
   endfacet
   facet normal 3.494333e-17 -1.000000e+00 -1.173736e-16
      outer loop
         vertex 9.512808e+01 1.660409e+02 1.830232e+02
         vertex 9.191960e+01 1.660409e+02 1.837444e+02
         vertex 3.646318e+01 1.660409e+02 1.484014e+02
      endloop
   endfacet
   facet normal 3.494333e-17 -1.000000e+00 -1.173736e-16
      outer loop
         vertex 1.164572e+02 1.660409e+02 1.863563e+02
         vertex 1.103319e+02 1.660409e+02 1.899641e+02
         vertex 9.512808e+01 1.660409e+02 1.830232e+02
      endloop
   endfacet
   facet normal 3.494333e-17 -1.000000e+00 -1.173736e-16
      outer loop
         vertex 9.512808e+01 1.660409e+02 1.830232e+02
         vertex 1.103319e+02 1.660409e+02 1.899641e+02
         vertex 1.038228e+02 1.660409e+02 1.928221e+02
      endloop
   endfacet
   facet normal 3.494333e-17 -1.000000e+00 -1.173736e-16
      outer loop
         vertex 9.512808e+01 1.660409e+02 1.830232e+02
         vertex 1.038228e+02 1.660409e+02 1.928221e+02
         vertex 9.775474e+01 1.660409e+02 1.947091e+02
      endloop
   endfacet
   facet normal 3.494333e-17 -1.000000e+00 -1.173736e-16
      outer loop
         vertex 1.398597e+02 1.660409e+02 1.174034e+02
         vertex 1.295317e+02 1.660409e+02 1.247031e+02
         vertex 1.371958e+02 1.660409e+02 1.108125e+02
      endloop
   endfacet
   facet normal 3.494333e-17 -1.000000e+00 -1.173736e-16
      outer loop
         vertex 1.427667e+02 1.660409e+02 1.312953e+02
         vertex 1.429689e+02 1.660409e+02 1.384013e+02
         vertex 1.301896e+02 1.660409e+02 1.276300e+02
      endloop
   endfacet
   facet normal 3.494333e-17 -1.000000e+00 -1.173736e-16
      outer loop
         vertex 1.301896e+02 1.660409e+02 1.276300e+02
         vertex 1.429689e+02 1.660409e+02 1.384013e+02
         vertex 1.423293e+02 1.660409e+02 1.454813e+02
      endloop
   endfacet
   facet normal 3.494333e-17 -1.000000e+00 -1.173736e-16
      outer loop
         vertex 1.301896e+02 1.660409e+02 1.276300e+02
         vertex 1.423293e+02 1.660409e+02 1.454813e+02
         vertex 1.408568e+02 1.660409e+02 1.524360e+02
      endloop
   endfacet
   facet normal 3.494333e-17 -1.000000e+00 -1.173736e-16
      outer loop
         vertex 1.408568e+02 1.660409e+02 1.524360e+02
         vertex 1.385720e+02 1.660409e+02 1.591678e+02
         vertex 1.301896e+02 1.660409e+02 1.276300e+02
      endloop
   endfacet
   facet normal 3.494333e-17 -1.000000e+00 -1.173736e-16
      outer loop
         vertex 1.301896e+02 1.660409e+02 1.276300e+02
         vertex 1.385720e+02 1.660409e+02 1.591678e+02
         vertex 1.355072e+02 1.660409e+02 1.655820e+02
      endloop
   endfacet
   facet normal 3.494333e-17 -1.000000e+00 -1.173736e-16
      outer loop
         vertex 1.301896e+02 1.660409e+02 1.276300e+02
         vertex 1.355072e+02 1.660409e+02 1.655820e+02
         vertex 1.317051e+02 1.660409e+02 1.715887e+02
      endloop
   endfacet
   facet normal 3.494333e-17 -1.000000e+00 -1.173736e-16
      outer loop
         vertex 1.317051e+02 1.660409e+02 1.715887e+02
         vertex 1.272194e+02 1.660409e+02 1.771036e+02
         vertex 1.301896e+02 1.660409e+02 1.276300e+02
      endloop
   endfacet
   facet normal 3.494333e-17 -1.000000e+00 -1.173736e-16
      outer loop
         vertex 1.301896e+02 1.660409e+02 1.276300e+02
         vertex 1.272194e+02 1.660409e+02 1.771036e+02
         vertex 1.221129e+02 1.660409e+02 1.820493e+02
      endloop
   endfacet
   facet normal 3.494333e-17 -1.000000e+00 -1.173736e-16
      outer loop
         vertex 1.301896e+02 1.660409e+02 1.276300e+02
         vertex 1.221129e+02 1.660409e+02 1.820493e+02
         vertex 1.164572e+02 1.660409e+02 1.863563e+02
      endloop
   endfacet
   facet normal 3.494333e-17 -1.000000e+00 -1.173736e-16
      outer loop
         vertex 9.002320e+01 1.660409e+02 1.961395e+02
         vertex 8.292631e+01 1.660409e+02 1.965522e+02
         vertex 9.191960e+01 1.660409e+02 1.837444e+02
      endloop
   endfacet
   facet normal 3.494333e-17 -1.000000e+00 -1.173736e-16
      outer loop
         vertex 9.191960e+01 1.660409e+02 1.837444e+02
         vertex 8.292631e+01 1.660409e+02 1.965522e+02
         vertex 7.583043e+01 1.660409e+02 1.961226e+02
      endloop
   endfacet
   facet normal 3.494333e-17 -1.000000e+00 -1.173736e-16
      outer loop
         vertex 9.191960e+01 1.660409e+02 1.837444e+02
         vertex 7.583043e+01 1.660409e+02 1.961226e+02
         vertex 3.646318e+01 1.660409e+02 1.484014e+02
      endloop
   endfacet
   facet normal 3.494333e-17 -1.000000e+00 -1.173736e-16
      outer loop
         vertex 3.646318e+01 1.660409e+02 1.484014e+02
         vertex 7.583043e+01 1.660409e+02 1.961226e+02
         vertex 6.883515e+01 1.660409e+02 1.948569e+02
      endloop
   endfacet
   facet normal 3.494333e-17 -1.000000e+00 -1.173736e-16
      outer loop
         vertex 6.883515e+01 1.660409e+02 1.948569e+02
         vertex 6.203868e+01 1.660409e+02 1.927726e+02
         vertex 3.646318e+01 1.660409e+02 1.484014e+02
      endloop
   endfacet
   facet normal 3.494333e-17 -1.000000e+00 -1.173736e-16
      outer loop
         vertex 3.646318e+01 1.660409e+02 1.484014e+02
         vertex 6.203868e+01 1.660409e+02 1.927726e+02
         vertex 5.553642e+01 1.660409e+02 1.898991e+02
      endloop
   endfacet
   facet normal 3.494333e-17 -1.000000e+00 -1.173736e-16
      outer loop
         vertex 3.646318e+01 1.660409e+02 1.484014e+02
         vertex 5.553642e+01 1.660409e+02 1.898991e+02
         vertex 4.941966e+01 1.660409e+02 1.862768e+02
      endloop
   endfacet
   facet normal 3.494333e-17 -1.000000e+00 -1.173736e-16
      outer loop
         vertex 2.411937e+01 1.660409e+02 1.481011e+02
         vertex 2.364455e+01 1.660409e+02 1.453407e+02
         vertex 3.580528e+01 1.660409e+02 1.454744e+02
      endloop
   endfacet
   facet normal 3.494333e-17 -1.000000e+00 -1.173736e-16
      outer loop
         vertex 3.580528e+01 1.660409e+02 1.454744e+02
         vertex 2.364455e+01 1.660409e+02 1.453407e+02
         vertex 2.302170e+01 1.660409e+02 1.382591e+02
      endloop
   endfacet
   facet normal 3.494333e-17 -1.000000e+00 -1.173736e-16
      outer loop
         vertex 3.580528e+01 1.660409e+02 1.454744e+02
         vertex 2.302170e+01 1.660409e+02 1.382591e+02
         vertex 2.324079e+01 1.660409e+02 1.311537e+02
      endloop
   endfacet
   facet normal 3.494333e-17 -1.000000e+00 -1.173736e-16
      outer loop
         vertex 1.164572e+02 1.660409e+02 1.863563e+02
         vertex 9.512808e+01 1.660409e+02 1.830232e+02
         vertex 1.301896e+02 1.660409e+02 1.276300e+02
      endloop
   endfacet
   facet normal 3.494333e-17 -1.000000e+00 -1.173736e-16
      outer loop
         vertex 1.301896e+02 1.660409e+02 1.276300e+02
         vertex 9.512808e+01 1.660409e+02 1.830232e+02
         vertex 3.646318e+01 1.660409e+02 1.484014e+02
      endloop
   endfacet
   facet normal 3.494333e-17 -1.000000e+00 -1.173736e-16
      outer loop
         vertex 1.301896e+02 1.660409e+02 1.276300e+02
         vertex 3.646318e+01 1.660409e+02 1.484014e+02
         vertex 1.295317e+02 1.660409e+02 1.247031e+02
      endloop
   endfacet
   facet normal 3.494333e-17 -1.000000e+00 -1.173736e-16
      outer loop
         vertex 1.295317e+02 1.660409e+02 1.247031e+02
         vertex 3.646318e+01 1.660409e+02 1.484014e+02
         vertex 3.580528e+01 1.660409e+02 1.454744e+02
      endloop
   endfacet
   facet normal 3.494333e-17 -1.000000e+00 -1.173736e-16
      outer loop
         vertex 1.295317e+02 1.660409e+02 1.247031e+02
         vertex 3.580528e+01 1.660409e+02 1.454744e+02
         vertex 7.114826e+01 1.660409e+02 9.001799e+01
      endloop
   endfacet
   facet normal 3.494333e-17 -1.000000e+00 -1.173736e-16
      outer loop
         vertex 7.114826e+01 1.660409e+02 9.001799e+01
         vertex 3.580528e+01 1.660409e+02 1.454744e+02
         vertex 2.324079e+01 1.660409e+02 1.311537e+02
      endloop
   endfacet
   facet normal 3.494333e-17 -1.000000e+00 -1.173736e-16
      outer loop
         vertex 7.114826e+01 1.660409e+02 9.001799e+01
         vertex 2.324079e+01 1.660409e+02 1.311537e+02
         vertex 2.429872e+01 1.660409e+02 1.241239e+02
      endloop
   endfacet
   facet normal 3.494333e-17 -1.000000e+00 -1.173736e-16
      outer loop
         vertex 4.941966e+01 1.660409e+02 1.862768e+02
         vertex 4.377426e+01 1.660409e+02 1.819564e+02
         vertex 3.646318e+01 1.660409e+02 1.484014e+02
      endloop
   endfacet
   facet normal 3.494333e-17 -1.000000e+00 -1.173736e-16
      outer loop
         vertex 3.646318e+01 1.660409e+02 1.484014e+02
         vertex 4.377426e+01 1.660409e+02 1.819564e+02
         vertex 3.867946e+01 1.660409e+02 1.769987e+02
      endloop
   endfacet
   facet normal 3.494333e-17 -1.000000e+00 -1.173736e-16
      outer loop
         vertex 3.646318e+01 1.660409e+02 1.484014e+02
         vertex 3.867946e+01 1.660409e+02 1.769987e+02
         vertex 3.420679e+01 1.660409e+02 1.714732e+02
      endloop
   endfacet
   facet normal 3.494333e-17 -1.000000e+00 -1.173736e-16
      outer loop
         vertex 2.429872e+01 1.660409e+02 1.241239e+02
         vertex 2.618065e+01 1.660409e+02 1.172687e+02
         vertex 7.114826e+01 1.660409e+02 9.001799e+01
      endloop
   endfacet
   facet normal 3.494333e-17 -1.000000e+00 -1.173736e-16
      outer loop
         vertex 7.114826e+01 1.660409e+02 9.001799e+01
         vertex 2.618065e+01 1.660409e+02 1.172687e+02
         vertex 2.886017e+01 1.660409e+02 1.106841e+02
      endloop
   endfacet
   facet normal 3.494333e-17 -1.000000e+00 -1.173736e-16
      outer loop
         vertex 7.114826e+01 1.660409e+02 9.001799e+01
         vertex 2.886017e+01 1.660409e+02 1.106841e+02
         vertex 3.229965e+01 1.660409e+02 1.044627e+02
      endloop
   endfacet
   facet normal 3.494333e-17 -1.000000e+00 -1.173736e-16
      outer loop
         vertex 1.005888e+02 1.660409e+02 7.918897e+01
         vertex 1.072499e+02 1.660409e+02 8.167219e+01
         vertex 1.295317e+02 1.660409e+02 1.247031e+02
      endloop
   endfacet
   facet normal 3.494333e-17 -1.000000e+00 -1.173736e-16
      outer loop
         vertex 3.420679e+01 1.660409e+02 1.714732e+02
         vertex 3.041903e+01 1.660409e+02 1.654575e+02
         vertex 3.646318e+01 1.660409e+02 1.484014e+02
      endloop
   endfacet
   facet normal 3.494333e-17 -1.000000e+00 -1.173736e-16
      outer loop
         vertex 3.646318e+01 1.660409e+02 1.484014e+02
         vertex 3.041903e+01 1.660409e+02 1.654575e+02
         vertex 2.736936e+01 1.660409e+02 1.590360e+02
      endloop
   endfacet
   facet normal 3.494333e-17 -1.000000e+00 -1.173736e-16
      outer loop
         vertex 3.646318e+01 1.660409e+02 1.484014e+02
         vertex 2.736936e+01 1.660409e+02 1.590360e+02
         vertex 2.510058e+01 1.660409e+02 1.522989e+02
      endloop
   endfacet
   facet normal 3.494333e-17 -1.000000e+00 -1.173736e-16
      outer loop
         vertex 3.229965e+01 1.660409e+02 1.044627e+02
         vertex 3.645082e+01 1.660409e+02 9.869177e+01
         vertex 7.114826e+01 1.660409e+02 9.001799e+01
      endloop
   endfacet
   facet normal 3.494333e-17 -1.000000e+00 -1.173736e-16
      outer loop
         vertex 7.114826e+01 1.660409e+02 9.001799e+01
         vertex 3.645082e+01 1.660409e+02 9.869177e+01
         vertex 4.125540e+01 1.660409e+02 9.345229e+01
      endloop
   endfacet
   facet normal 3.494333e-17 -1.000000e+00 -1.173736e-16
      outer loop
         vertex 7.114826e+01 1.660409e+02 9.001799e+01
         vertex 4.125540e+01 1.660409e+02 9.345229e+01
         vertex 4.664595e+01 1.660409e+02 8.881785e+01
      endloop
   endfacet
   facet normal 3.494333e-17 -1.000000e+00 -1.173736e-16
      outer loop
         vertex 7.245399e+01 1.660409e+02 7.748585e+01
         vertex 7.951396e+01 1.660409e+02 7.665343e+01
         vertex 7.407523e+01 1.660409e+02 8.936008e+01
      endloop
   endfacet
   facet normal 3.494333e-17 -1.000000e+00 -1.173736e-16
      outer loop
         vertex 7.407523e+01 1.660409e+02 8.936008e+01
         vertex 7.951396e+01 1.660409e+02 7.665343e+01
         vertex 8.662283e+01 1.660409e+02 7.666185e+01
      endloop
   endfacet
   facet normal 3.494333e-17 -1.000000e+00 -1.173736e-16
      outer loop
         vertex 7.407523e+01 1.660409e+02 8.936008e+01
         vertex 8.662283e+01 1.660409e+02 7.666185e+01
         vertex 1.295317e+02 1.660409e+02 1.247031e+02
      endloop
   endfacet
   facet normal 3.494333e-17 -1.000000e+00 -1.173736e-16
      outer loop
         vertex 1.295317e+02 1.660409e+02 1.247031e+02
         vertex 8.662283e+01 1.660409e+02 7.666185e+01
         vertex 9.368081e+01 1.660409e+02 7.751101e+01
      endloop
   endfacet
   facet normal 3.494333e-17 -1.000000e+00 -1.173736e-16
      outer loop
         vertex 1.295317e+02 1.660409e+02 1.247031e+02
         vertex 9.368081e+01 1.660409e+02 7.751101e+01
         vertex 1.005888e+02 1.660409e+02 7.918897e+01
      endloop
   endfacet
   facet normal 3.494333e-17 -1.000000e+00 -1.173736e-16
      outer loop
         vertex 1.072499e+02 1.660409e+02 8.167219e+01
         vertex 1.135705e+02 1.660409e+02 8.492580e+01
         vertex 1.295317e+02 1.660409e+02 1.247031e+02
      endloop
   endfacet
   facet normal 3.494333e-17 -1.000000e+00 -1.173736e-16
      outer loop
         vertex 1.295317e+02 1.660409e+02 1.247031e+02
         vertex 1.135705e+02 1.660409e+02 8.492580e+01
         vertex 1.194619e+02 1.660409e+02 8.890414e+01
      endloop
   endfacet
   facet normal 3.494333e-17 -1.000000e+00 -1.173736e-16
      outer loop
         vertex 1.295317e+02 1.660409e+02 1.247031e+02
         vertex 1.194619e+02 1.660409e+02 8.890414e+01
         vertex 1.248415e+02 1.660409e+02 9.355135e+01
      endloop
   endfacet
   facet normal 3.494333e-17 -1.000000e+00 -1.173736e-16
      outer loop
         vertex 4.664595e+01 1.660409e+02 8.881785e+01
         vertex 5.254680e+01 1.660409e+02 8.485349e+01
         vertex 7.114826e+01 1.660409e+02 9.001799e+01
      endloop
   endfacet
   facet normal 3.494333e-17 -1.000000e+00 -1.173736e-16
      outer loop
         vertex 7.114826e+01 1.660409e+02 9.001799e+01
         vertex 5.254680e+01 1.660409e+02 8.485349e+01
         vertex 5.887510e+01 1.660409e+02 8.161486e+01
      endloop
   endfacet
   facet normal 3.494333e-17 -1.000000e+00 -1.173736e-16
      outer loop
         vertex 7.114826e+01 1.660409e+02 9.001799e+01
         vertex 5.887510e+01 1.660409e+02 8.161486e+01
         vertex 6.554203e+01 1.660409e+02 7.914744e+01
      endloop
   endfacet
   facet normal 3.494333e-17 -1.000000e+00 -1.173736e-16
      outer loop
         vertex 1.248415e+02 1.660409e+02 9.355135e+01
         vertex 1.296336e+02 1.660409e+02 9.880219e+01
         vertex 1.295317e+02 1.660409e+02 1.247031e+02
      endloop
   endfacet
   facet normal 3.494333e-17 -1.000000e+00 -1.173736e-16
      outer loop
         vertex 1.295317e+02 1.660409e+02 1.247031e+02
         vertex 1.296336e+02 1.660409e+02 9.880219e+01
         vertex 1.337711e+02 1.660409e+02 1.045830e+02
      endloop
   endfacet
   facet normal 3.494333e-17 -1.000000e+00 -1.173736e-16
      outer loop
         vertex 1.295317e+02 1.660409e+02 1.247031e+02
         vertex 1.337711e+02 1.660409e+02 1.045830e+02
         vertex 1.371958e+02 1.660409e+02 1.108125e+02
      endloop
   endfacet
   facet normal 2.398506e-01 -1.055663e-16 9.708098e-01
      outer loop
         vertex 9.775474e+01 1.104090e+01 1.947091e+02
         vertex 9.775474e+01 1.660409e+02 1.947091e+02
         vertex 9.702145e+01 1.670409e+02 1.948903e+02
      endloop
   endfacet
   facet normal 2.906908e-01 3.996680e-02 9.559820e-01
      outer loop
         vertex 9.702145e+01 1.670409e+02 1.948903e+02
         vertex 9.775474e+01 1.660409e+02 1.947091e+02
         vertex 1.038228e+02 1.670409e+02 1.928221e+02
      endloop
   endfacet
   facet normal 1.531857e-01 1.484177e-01 9.769884e-01
      outer loop
         vertex 9.002320e+01 1.660409e+02 1.961395e+02
         vertex 9.454627e+01 1.660409e+02 1.954303e+02
         vertex 9.702145e+01 1.670409e+02 1.948903e+02
      endloop
   endfacet
   facet normal 2.398506e-01 -1.055663e-16 9.708098e-01
      outer loop
         vertex 9.775474e+01 1.104090e+01 1.947091e+02
         vertex 9.702145e+01 1.670409e+02 1.948903e+02
         vertex 9.702145e+01 1.104090e+01 1.948903e+02
      endloop
   endfacet
   facet normal 2.131545e-01 -1.072278e-16 9.770185e-01
      outer loop
         vertex 9.702145e+01 1.104090e+01 1.948903e+02
         vertex 9.702145e+01 1.670409e+02 1.948903e+02
         vertex 9.454627e+01 1.660409e+02 1.954303e+02
      endloop
   endfacet
   facet normal 2.131545e-01 -1.072278e-16 9.770185e-01
      outer loop
         vertex 9.702145e+01 1.104090e+01 1.948903e+02
         vertex 9.454627e+01 1.660409e+02 1.954303e+02
         vertex 9.454627e+01 1.104090e+01 1.954303e+02
      endloop
   endfacet
   facet normal 1.757236e-01 -1.094068e-16 9.844395e-01
      outer loop
         vertex 9.702145e+01 1.670409e+02 1.948903e+02
         vertex 9.002320e+01 1.670409e+02 1.961395e+02
         vertex 9.002320e+01 1.660409e+02 1.961395e+02
      endloop
   endfacet
   facet normal 5.805764e-02 -1.151469e-16 9.983132e-01
      outer loop
         vertex 9.002320e+01 1.660409e+02 1.961395e+02
         vertex 9.002320e+01 1.670409e+02 1.961395e+02
         vertex 8.292631e+01 1.670409e+02 1.965522e+02
      endloop
   endfacet
   facet normal 5.805764e-02 -1.151469e-16 9.983132e-01
      outer loop
         vertex 9.002320e+01 1.660409e+02 1.961395e+02
         vertex 8.292631e+01 1.670409e+02 1.965522e+02
         vertex 8.292631e+01 1.660409e+02 1.965522e+02
      endloop
   endfacet
   facet normal -6.042344e-02 -1.192705e-16 9.981728e-01
      outer loop
         vertex 8.292631e+01 1.660409e+02 1.965522e+02
         vertex 8.292631e+01 1.670409e+02 1.965522e+02
         vertex 7.583043e+01 1.670409e+02 1.961226e+02
      endloop
   endfacet
   facet normal -6.042344e-02 -1.192705e-16 9.981728e-01
      outer loop
         vertex 8.292631e+01 1.660409e+02 1.965522e+02
         vertex 7.583043e+01 1.670409e+02 1.961226e+02
         vertex 7.583043e+01 1.660409e+02 1.961226e+02
      endloop
   endfacet
   facet normal -1.780566e-01 -1.217199e-16 9.840202e-01
      outer loop
         vertex 7.583043e+01 1.660409e+02 1.961226e+02
         vertex 7.583043e+01 1.670409e+02 1.961226e+02
         vertex 6.883515e+01 1.670409e+02 1.948569e+02
      endloop
   endfacet
   facet normal -1.780566e-01 -1.217199e-16 9.840202e-01
      outer loop
         vertex 7.583043e+01 1.660409e+02 1.961226e+02
         vertex 6.883515e+01 1.670409e+02 1.948569e+02
         vertex 6.883515e+01 1.660409e+02 1.948569e+02
      endloop
   endfacet
   facet normal -2.931903e-01 -1.224606e-16 9.560541e-01
      outer loop
         vertex 6.883515e+01 1.660409e+02 1.948569e+02
         vertex 6.883515e+01 1.670409e+02 1.948569e+02
         vertex 6.203868e+01 1.670409e+02 1.927726e+02
      endloop
   endfacet
   facet normal -2.931903e-01 -1.224606e-16 9.560541e-01
      outer loop
         vertex 6.883515e+01 1.660409e+02 1.948569e+02
         vertex 6.203868e+01 1.670409e+02 1.927726e+02
         vertex 6.203868e+01 1.660409e+02 1.927726e+02
      endloop
   endfacet
   facet normal -4.042072e-01 -1.214822e-16 9.146674e-01
      outer loop
         vertex 6.203868e+01 1.660409e+02 1.927726e+02
         vertex 6.203868e+01 1.670409e+02 1.927726e+02
         vertex 5.553642e+01 1.670409e+02 1.898991e+02
      endloop
   endfacet
   facet normal -4.042072e-01 -1.214822e-16 9.146674e-01
      outer loop
         vertex 6.203868e+01 1.660409e+02 1.927726e+02
         vertex 5.553642e+01 1.670409e+02 1.898991e+02
         vertex 5.553642e+01 1.660409e+02 1.898991e+02
      endloop
   endfacet
   facet normal -5.095514e-01 -1.187984e-16 8.604402e-01
      outer loop
         vertex 5.553642e+01 1.660409e+02 1.898991e+02
         vertex 5.553642e+01 1.670409e+02 1.898991e+02
         vertex 4.941966e+01 1.670409e+02 1.862768e+02
      endloop
   endfacet
   facet normal -5.095514e-01 -1.187984e-16 8.604402e-01
      outer loop
         vertex 5.553642e+01 1.660409e+02 1.898991e+02
         vertex 4.941966e+01 1.670409e+02 1.862768e+02
         vertex 4.941966e+01 1.660409e+02 1.862768e+02
      endloop
   endfacet
   facet normal -6.077417e-01 -1.144470e-16 7.941347e-01
      outer loop
         vertex 4.941966e+01 1.660409e+02 1.862768e+02
         vertex 4.941966e+01 1.670409e+02 1.862768e+02
         vertex 4.377426e+01 1.670409e+02 1.819564e+02
      endloop
   endfacet
   facet normal -6.077417e-01 -1.144470e-16 7.941347e-01
      outer loop
         vertex 4.941966e+01 1.660409e+02 1.862768e+02
         vertex 4.377426e+01 1.670409e+02 1.819564e+02
         vertex 4.377426e+01 1.660409e+02 1.819564e+02
      endloop
   endfacet
   facet normal -6.974006e-01 -1.084890e-16 7.166815e-01
      outer loop
         vertex 4.377426e+01 1.660409e+02 1.819564e+02
         vertex 4.377426e+01 1.670409e+02 1.819564e+02
         vertex 3.867946e+01 1.670409e+02 1.769987e+02
      endloop
   endfacet
   facet normal -6.974006e-01 -1.084890e-16 7.166815e-01
      outer loop
         vertex 4.377426e+01 1.660409e+02 1.819564e+02
         vertex 3.867946e+01 1.670409e+02 1.769987e+02
         vertex 3.867946e+01 1.660409e+02 1.769987e+02
      endloop
   endfacet
   facet normal -7.772701e-01 -1.010080e-16 6.291671e-01
      outer loop
         vertex 3.867946e+01 1.660409e+02 1.769987e+02
         vertex 3.867946e+01 1.670409e+02 1.769987e+02
         vertex 3.420679e+01 1.670409e+02 1.714732e+02
      endloop
   endfacet
   facet normal -7.772701e-01 -1.010080e-16 6.291671e-01
      outer loop
         vertex 3.867946e+01 1.660409e+02 1.769987e+02
         vertex 3.420679e+01 1.670409e+02 1.714732e+02
         vertex 3.420679e+01 1.660409e+02 1.714732e+02
      endloop
   endfacet
   facet normal -8.462280e-01 -9.210914e-17 5.328210e-01
      outer loop
         vertex 3.420679e+01 1.660409e+02 1.714732e+02
         vertex 3.420679e+01 1.670409e+02 1.714732e+02
         vertex 3.041903e+01 1.670409e+02 1.654575e+02
      endloop
   endfacet
   facet normal -8.462280e-01 -9.210914e-17 5.328210e-01
      outer loop
         vertex 3.420679e+01 1.660409e+02 1.714732e+02
         vertex 3.041903e+01 1.670409e+02 1.654575e+02
         vertex 3.041903e+01 1.660409e+02 1.654575e+02
      endloop
   endfacet
   facet normal -9.033069e-01 -8.191722e-17 4.289949e-01
      outer loop
         vertex 3.041903e+01 1.660409e+02 1.654575e+02
         vertex 3.041903e+01 1.670409e+02 1.654575e+02
         vertex 2.736936e+01 1.670409e+02 1.590360e+02
      endloop
   endfacet
   facet normal -9.033069e-01 -8.191722e-17 4.289949e-01
      outer loop
         vertex 3.041903e+01 1.660409e+02 1.654575e+02
         vertex 2.736936e+01 1.670409e+02 1.590360e+02
         vertex 2.736936e+01 1.660409e+02 1.590360e+02
      endloop
   endfacet
   facet normal -9.477052e-01 -7.057540e-17 3.191470e-01
      outer loop
         vertex 2.736936e+01 1.660409e+02 1.590360e+02
         vertex 2.736936e+01 1.670409e+02 1.590360e+02
         vertex 2.510058e+01 1.670409e+02 1.522989e+02
      endloop
   endfacet
   facet normal -9.477052e-01 -7.057540e-17 3.191470e-01
      outer loop
         vertex 2.736936e+01 1.660409e+02 1.590360e+02
         vertex 2.510058e+01 1.670409e+02 1.522989e+02
         vertex 2.510058e+01 1.660409e+02 1.522989e+02
      endloop
   endfacet
   facet normal -9.761820e-01 -5.957564e-17 2.169534e-01
      outer loop
         vertex 2.411937e+01 1.104090e+01 1.481011e+02
         vertex 2.477024e+01 1.104090e+01 1.510296e+02
         vertex 2.411937e+01 1.660409e+02 1.481011e+02
      endloop
   endfacet
   facet normal -9.761820e-01 -5.957564e-17 2.169534e-01
      outer loop
         vertex 2.411937e+01 1.660409e+02 1.481011e+02
         vertex 2.477024e+01 1.104090e+01 1.510296e+02
         vertex 2.477024e+01 1.660409e+02 1.510296e+02
      endloop
   endfacet
   facet normal -2.661943e-01 1.038370e-16 -9.639194e-01
      outer loop
         vertex 6.852001e+01 1.660409e+02 7.832504e+01
         vertex 6.554203e+01 1.660409e+02 7.914744e+01
         vertex 6.554203e+01 1.670409e+02 7.914744e+01
      endloop
   endfacet
   facet normal -3.470904e-01 9.794818e-17 -9.378317e-01
      outer loop
         vertex 6.554203e+01 1.670409e+02 7.914744e+01
         vertex 6.554203e+01 1.660409e+02 7.914744e+01
         vertex 5.887510e+01 1.660409e+02 8.161486e+01
      endloop
   endfacet
   facet normal -3.470904e-01 9.794818e-17 -9.378317e-01
      outer loop
         vertex 6.554203e+01 1.670409e+02 7.914744e+01
         vertex 5.887510e+01 1.660409e+02 8.161486e+01
         vertex 5.887510e+01 1.670409e+02 8.161486e+01
      endloop
   endfacet
   facet normal -4.555750e-01 8.856637e-17 -8.901974e-01
      outer loop
         vertex 5.887510e+01 1.670409e+02 8.161486e+01
         vertex 5.887510e+01 1.660409e+02 8.161486e+01
         vertex 5.254680e+01 1.660409e+02 8.485349e+01
      endloop
   endfacet
   facet normal -4.555750e-01 8.856637e-17 -8.901974e-01
      outer loop
         vertex 5.887510e+01 1.670409e+02 8.161486e+01
         vertex 5.254680e+01 1.660409e+02 8.485349e+01
         vertex 5.254680e+01 1.670409e+02 8.485349e+01
      endloop
   endfacet
   facet normal -5.576634e-01 7.794135e-17 -8.300672e-01
      outer loop
         vertex 5.254680e+01 1.670409e+02 8.485349e+01
         vertex 5.254680e+01 1.660409e+02 8.485349e+01
         vertex 4.664595e+01 1.660409e+02 8.881785e+01
      endloop
   endfacet
   facet normal -5.576634e-01 7.794135e-17 -8.300672e-01
      outer loop
         vertex 5.254680e+01 1.670409e+02 8.485349e+01
         vertex 4.664595e+01 1.660409e+02 8.881785e+01
         vertex 4.664595e+01 1.670409e+02 8.881785e+01
      endloop
   endfacet
   facet normal -6.519237e-01 6.622220e-17 -7.582845e-01
      outer loop
         vertex 4.664595e+01 1.670409e+02 8.881785e+01
         vertex 4.664595e+01 1.660409e+02 8.881785e+01
         vertex 4.125540e+01 1.660409e+02 9.345229e+01
      endloop
   endfacet
   facet normal -6.519237e-01 6.622220e-17 -7.582845e-01
      outer loop
         vertex 4.664595e+01 1.670409e+02 8.881785e+01
         vertex 4.125540e+01 1.660409e+02 9.345229e+01
         vertex 4.125540e+01 1.670409e+02 9.345229e+01
      endloop
   endfacet
   facet normal -7.370329e-01 5.357337e-17 -6.758569e-01
      outer loop
         vertex 4.125540e+01 1.670409e+02 9.345229e+01
         vertex 4.125540e+01 1.660409e+02 9.345229e+01
         vertex 3.645082e+01 1.660409e+02 9.869177e+01
      endloop
   endfacet
   facet normal -7.370329e-01 5.357337e-17 -6.758569e-01
      outer loop
         vertex 4.125540e+01 1.670409e+02 9.345229e+01
         vertex 3.645082e+01 1.660409e+02 9.869177e+01
         vertex 3.645082e+01 1.670409e+02 9.869177e+01
      endloop
   endfacet
   facet normal -8.117955e-01 4.017251e-17 -5.839418e-01
      outer loop
         vertex 3.645082e+01 1.670409e+02 9.869177e+01
         vertex 3.645082e+01 1.660409e+02 9.869177e+01
         vertex 3.229965e+01 1.660409e+02 1.044627e+02
      endloop
   endfacet
   facet normal -8.117955e-01 4.017251e-17 -5.839418e-01
      outer loop
         vertex 3.645082e+01 1.670409e+02 9.869177e+01
         vertex 3.229965e+01 1.660409e+02 1.044627e+02
         vertex 3.229965e+01 1.670409e+02 1.044627e+02
      endloop
   endfacet
   facet normal -8.751621e-01 2.620777e-17 -4.838298e-01
      outer loop
         vertex 3.229965e+01 1.670409e+02 1.044627e+02
         vertex 3.229965e+01 1.660409e+02 1.044627e+02
         vertex 2.886017e+01 1.660409e+02 1.106841e+02
      endloop
   endfacet
   facet normal -8.751621e-01 2.620777e-17 -4.838298e-01
      outer loop
         vertex 3.229965e+01 1.670409e+02 1.044627e+02
         vertex 2.886017e+01 1.660409e+02 1.106841e+02
         vertex 2.886017e+01 1.670409e+02 1.106841e+02
      endloop
   endfacet
   facet normal -9.262435e-01 1.187508e-17 -3.769256e-01
      outer loop
         vertex 2.886017e+01 1.670409e+02 1.106841e+02
         vertex 2.886017e+01 1.660409e+02 1.106841e+02
         vertex 2.618065e+01 1.660409e+02 1.172687e+02
      endloop
   endfacet
   facet normal -9.262435e-01 1.187508e-17 -3.769256e-01
      outer loop
         vertex 2.886017e+01 1.670409e+02 1.106841e+02
         vertex 2.618065e+01 1.660409e+02 1.172687e+02
         vertex 2.618065e+01 1.670409e+02 1.172687e+02
      endloop
   endfacet
   facet normal -9.643226e-01 -2.624342e-18 -2.647299e-01
      outer loop
         vertex 2.618065e+01 1.670409e+02 1.172687e+02
         vertex 2.618065e+01 1.660409e+02 1.172687e+02
         vertex 2.429872e+01 1.660409e+02 1.241239e+02
      endloop
   endfacet
   facet normal -9.643226e-01 -2.624342e-18 -2.647299e-01
      outer loop
         vertex 2.618065e+01 1.670409e+02 1.172687e+02
         vertex 2.429872e+01 1.660409e+02 1.241239e+02
         vertex 2.429872e+01 1.670409e+02 1.241239e+02
      endloop
   endfacet
   facet normal -9.888645e-01 -1.708685e-17 -1.488185e-01
      outer loop
         vertex 2.429872e+01 1.670409e+02 1.241239e+02
         vertex 2.429872e+01 1.660409e+02 1.241239e+02
         vertex 2.324079e+01 1.660409e+02 1.311537e+02
      endloop
   endfacet
   facet normal -9.888645e-01 -1.708685e-17 -1.488185e-01
      outer loop
         vertex 2.429872e+01 1.670409e+02 1.241239e+02
         vertex 2.324079e+01 1.660409e+02 1.311537e+02
         vertex 2.324079e+01 1.670409e+02 1.311537e+02
      endloop
   endfacet
   facet normal -9.995250e-01 -3.130948e-17 -3.081828e-02
      outer loop
         vertex 2.324079e+01 1.670409e+02 1.311537e+02
         vertex 2.324079e+01 1.660409e+02 1.311537e+02
         vertex 2.302170e+01 1.660409e+02 1.382591e+02
      endloop
   endfacet
   facet normal -9.995250e-01 -3.130948e-17 -3.081828e-02
      outer loop
         vertex 2.324079e+01 1.670409e+02 1.311537e+02
         vertex 2.302170e+01 1.660409e+02 1.382591e+02
         vertex 2.302170e+01 1.670409e+02 1.382591e+02
      endloop
   endfacet
   facet normal -9.961544e-01 -4.509269e-17 8.761548e-02
      outer loop
         vertex 2.302170e+01 1.670409e+02 1.382591e+02
         vertex 2.302170e+01 1.660409e+02 1.382591e+02
         vertex 2.364455e+01 1.660409e+02 1.453407e+02
      endloop
   endfacet
   facet normal -9.961544e-01 -4.509269e-17 8.761548e-02
      outer loop
         vertex 2.302170e+01 1.670409e+02 1.382591e+02
         vertex 2.364455e+01 1.660409e+02 1.453407e+02
         vertex 2.364455e+01 1.670409e+02 1.453407e+02
      endloop
   endfacet
   facet normal -9.855260e-01 -5.433523e-17 1.695243e-01
      outer loop
         vertex 2.364455e+01 1.670409e+02 1.453407e+02
         vertex 2.364455e+01 1.660409e+02 1.453407e+02
         vertex 2.411937e+01 1.660409e+02 1.481011e+02
      endloop
   endfacet
   facet normal -9.738823e-01 1.001151e-01 2.037899e-01
      outer loop
         vertex 2.364455e+01 1.670409e+02 1.453407e+02
         vertex 2.411937e+01 1.660409e+02 1.481011e+02
         vertex 2.510058e+01 1.670409e+02 1.522989e+02
      endloop
   endfacet
   facet normal -9.751003e-01 4.706188e-02 2.167130e-01
      outer loop
         vertex 2.510058e+01 1.670409e+02 1.522989e+02
         vertex 2.411937e+01 1.660409e+02 1.481011e+02
         vertex 2.477024e+01 1.660409e+02 1.510296e+02
      endloop
   endfacet
   facet normal -9.677582e-01 -6.338089e-17 2.518812e-01
      outer loop
         vertex 2.510058e+01 1.670409e+02 1.522989e+02
         vertex 2.477024e+01 1.660409e+02 1.510296e+02
         vertex 2.510058e+01 1.660409e+02 1.522989e+02
      endloop
   endfacet
   facet normal -2.169534e-01 1.069969e-16 -9.761820e-01
      outer loop
         vertex 7.144857e+01 1.104090e+01 7.767418e+01
         vertex 6.852001e+01 1.104090e+01 7.832504e+01
         vertex 7.144857e+01 1.660409e+02 7.767418e+01
      endloop
   endfacet
   facet normal -2.169534e-01 1.069969e-16 -9.761820e-01
      outer loop
         vertex 7.144857e+01 1.660409e+02 7.767418e+01
         vertex 6.852001e+01 1.104090e+01 7.832504e+01
         vertex 6.852001e+01 1.660409e+02 7.832504e+01
      endloop
   endfacet
   facet normal -2.143370e-01 1.548336e-01 -9.644098e-01
      outer loop
         vertex 6.852001e+01 1.660409e+02 7.832504e+01
         vertex 6.554203e+01 1.670409e+02 7.914744e+01
         vertex 7.144857e+01 1.660409e+02 7.767418e+01
      endloop
   endfacet
   facet normal -2.334198e-01 5.182094e-02 -9.709942e-01
      outer loop
         vertex 7.144857e+01 1.660409e+02 7.767418e+01
         vertex 6.554203e+01 1.670409e+02 7.914744e+01
         vertex 7.245399e+01 1.670409e+02 7.748585e+01
      endloop
   endfacet
   facet normal -1.841097e-01 1.089338e-16 -9.829057e-01
      outer loop
         vertex 7.144857e+01 1.660409e+02 7.767418e+01
         vertex 7.245399e+01 1.670409e+02 7.748585e+01
         vertex 7.245399e+01 1.660409e+02 7.748585e+01
      endloop
   endfacet
   facet normal -1.170963e-01 1.124744e-16 -9.931206e-01
      outer loop
         vertex 7.245399e+01 1.660409e+02 7.748585e+01
         vertex 7.245399e+01 1.670409e+02 7.748585e+01
         vertex 7.951396e+01 1.670409e+02 7.665343e+01
      endloop
   endfacet
   facet normal -1.170963e-01 1.124744e-16 -9.931206e-01
      outer loop
         vertex 7.245399e+01 1.660409e+02 7.748585e+01
         vertex 7.951396e+01 1.670409e+02 7.665343e+01
         vertex 7.951396e+01 1.660409e+02 7.665343e+01
      endloop
   endfacet
   facet normal 1.184930e-03 1.174149e-16 -9.999993e-01
      outer loop
         vertex 7.951396e+01 1.660409e+02 7.665343e+01
         vertex 7.951396e+01 1.670409e+02 7.665343e+01
         vertex 8.662283e+01 1.670409e+02 7.666185e+01
      endloop
   endfacet
   facet normal 1.184930e-03 1.174149e-16 -9.999993e-01
      outer loop
         vertex 7.951396e+01 1.660409e+02 7.665343e+01
         vertex 8.662283e+01 1.670409e+02 7.666185e+01
         vertex 8.662283e+01 1.660409e+02 7.666185e+01
      endloop
   endfacet
   facet normal 1.194499e-01 1.207072e-16 -9.928402e-01
      outer loop
         vertex 8.662283e+01 1.660409e+02 7.666185e+01
         vertex 8.662283e+01 1.670409e+02 7.666185e+01
         vertex 9.368081e+01 1.670409e+02 7.751101e+01
      endloop
   endfacet
   facet normal 1.194499e-01 1.207072e-16 -9.928402e-01
      outer loop
         vertex 8.662283e+01 1.660409e+02 7.666185e+01
         vertex 9.368081e+01 1.670409e+02 7.751101e+01
         vertex 9.368081e+01 1.660409e+02 7.751101e+01
      endloop
   endfacet
   facet normal 2.360377e-01 1.223050e-16 -9.717439e-01
      outer loop
         vertex 9.368081e+01 1.660409e+02 7.751101e+01
         vertex 9.368081e+01 1.670409e+02 7.751101e+01
         vertex 1.005888e+02 1.670409e+02 7.918897e+01
      endloop
   endfacet
   facet normal 2.360377e-01 1.223050e-16 -9.717439e-01
      outer loop
         vertex 9.368081e+01 1.660409e+02 7.751101e+01
         vertex 1.005888e+02 1.670409e+02 7.918897e+01
         vertex 1.005888e+02 1.660409e+02 7.918897e+01
      endloop
   endfacet
   facet normal 3.493126e-01 1.221859e-16 -9.370062e-01
      outer loop
         vertex 1.005888e+02 1.660409e+02 7.918897e+01
         vertex 1.005888e+02 1.670409e+02 7.918897e+01
         vertex 1.072499e+02 1.670409e+02 8.167219e+01
      endloop
   endfacet
   facet normal 3.493126e-01 1.221859e-16 -9.370062e-01
      outer loop
         vertex 1.005888e+02 1.660409e+02 7.918897e+01
         vertex 1.072499e+02 1.670409e+02 8.167219e+01
         vertex 1.072499e+02 1.660409e+02 8.167219e+01
      endloop
   endfacet
   facet normal 4.576832e-01 1.203516e-16 -8.891153e-01
      outer loop
         vertex 1.072499e+02 1.660409e+02 8.167219e+01
         vertex 1.072499e+02 1.670409e+02 8.167219e+01
         vertex 1.135705e+02 1.670409e+02 8.492580e+01
      endloop
   endfacet
   facet normal 4.576832e-01 1.203516e-16 -8.891153e-01
      outer loop
         vertex 1.072499e+02 1.660409e+02 8.167219e+01
         vertex 1.135705e+02 1.670409e+02 8.492580e+01
         vertex 1.135705e+02 1.660409e+02 8.492580e+01
      endloop
   endfacet
   facet normal 5.596291e-01 1.168279e-16 -8.287432e-01
      outer loop
         vertex 1.135705e+02 1.660409e+02 8.492580e+01
         vertex 1.135705e+02 1.670409e+02 8.492580e+01
         vertex 1.194619e+02 1.670409e+02 8.890414e+01
      endloop
   endfacet
   facet normal 5.596291e-01 1.168279e-16 -8.287432e-01
      outer loop
         vertex 1.135705e+02 1.660409e+02 8.492580e+01
         vertex 1.194619e+02 1.670409e+02 8.890414e+01
         vertex 1.194619e+02 1.660409e+02 8.890414e+01
      endloop
   endfacet
   facet normal 6.537197e-01 1.116641e-16 -7.567368e-01
      outer loop
         vertex 1.194619e+02 1.660409e+02 8.890414e+01
         vertex 1.194619e+02 1.670409e+02 8.890414e+01
         vertex 1.248415e+02 1.670409e+02 9.355135e+01
      endloop
   endfacet
   facet normal 6.537197e-01 1.116641e-16 -7.567368e-01
      outer loop
         vertex 1.194619e+02 1.660409e+02 8.890414e+01
         vertex 1.248415e+02 1.670409e+02 9.355135e+01
         vertex 1.248415e+02 1.660409e+02 9.355135e+01
      endloop
   endfacet
   facet normal 7.386325e-01 1.049328e-16 -6.741084e-01
      outer loop
         vertex 1.248415e+02 1.660409e+02 9.355135e+01
         vertex 1.248415e+02 1.670409e+02 9.355135e+01
         vertex 1.296336e+02 1.670409e+02 9.880219e+01
      endloop
   endfacet
   facet normal 7.386325e-01 1.049328e-16 -6.741084e-01
      outer loop
         vertex 1.248415e+02 1.660409e+02 9.355135e+01
         vertex 1.296336e+02 1.670409e+02 9.880219e+01
         vertex 1.296336e+02 1.660409e+02 9.880219e+01
      endloop
   endfacet
   facet normal 8.131771e-01 9.672846e-17 -5.820163e-01
      outer loop
         vertex 1.296336e+02 1.660409e+02 9.880219e+01
         vertex 1.296336e+02 1.670409e+02 9.880219e+01
         vertex 1.337711e+02 1.670409e+02 1.045830e+02
      endloop
   endfacet
   facet normal 8.131771e-01 9.672846e-17 -5.820163e-01
      outer loop
         vertex 1.296336e+02 1.660409e+02 9.880219e+01
         vertex 1.337711e+02 1.670409e+02 1.045830e+02
         vertex 1.337711e+02 1.660409e+02 1.045830e+02
      endloop
   endfacet
   facet normal 8.763065e-01 8.716626e-17 -4.817539e-01
      outer loop
         vertex 1.337711e+02 1.660409e+02 1.045830e+02
         vertex 1.337711e+02 1.670409e+02 1.045830e+02
         vertex 1.371958e+02 1.670409e+02 1.108125e+02
      endloop
   endfacet
   facet normal 8.763065e-01 8.716626e-17 -4.817539e-01
      outer loop
         vertex 1.337711e+02 1.660409e+02 1.045830e+02
         vertex 1.371958e+02 1.670409e+02 1.108125e+02
         vertex 1.371958e+02 1.660409e+02 1.108125e+02
      endloop
   endfacet
   facet normal 9.271344e-01 7.638046e-17 -3.747291e-01
      outer loop
         vertex 1.371958e+02 1.660409e+02 1.108125e+02
         vertex 1.371958e+02 1.670409e+02 1.108125e+02
         vertex 1.398597e+02 1.670409e+02 1.174034e+02
      endloop
   endfacet
   facet normal 9.271344e-01 7.638046e-17 -3.747291e-01
      outer loop
         vertex 1.371958e+02 1.660409e+02 1.108125e+02
         vertex 1.398597e+02 1.670409e+02 1.174034e+02
         vertex 1.398597e+02 1.660409e+02 1.174034e+02
      endloop
   endfacet
   facet normal 9.598689e-01 6.645835e-17 -2.804492e-01
      outer loop
         vertex 1.398597e+02 1.660409e+02 1.174034e+02
         vertex 1.398597e+02 1.670409e+02 1.174034e+02
         vertex 1.412246e+02 1.660409e+02 1.220748e+02
      endloop
   endfacet
   facet normal 9.609729e-01 9.066631e-02 -2.613631e-01
      outer loop
         vertex 1.412246e+02 1.660409e+02 1.220748e+02
         vertex 1.398597e+02 1.670409e+02 1.174034e+02
         vertex 1.417254e+02 1.670409e+02 1.242631e+02
      endloop
   endfacet
   facet normal 9.747969e-01 6.024800e-17 -2.230940e-01
      outer loop
         vertex 1.412246e+02 1.660409e+02 1.220748e+02
         vertex 1.417254e+02 1.670409e+02 1.242631e+02
         vertex 1.412246e+02 1.104090e+01 1.220748e+02
      endloop
   endfacet
   facet normal 9.891271e-01 4.470090e-02 -1.401047e-01
      outer loop
         vertex 1.427667e+02 1.660409e+02 1.312953e+02
         vertex 1.418755e+02 1.660409e+02 1.250034e+02
         vertex 1.417254e+02 1.670409e+02 1.242631e+02
      endloop
   endfacet
   facet normal 9.747969e-01 6.024800e-17 -2.230940e-01
      outer loop
         vertex 1.412246e+02 1.104090e+01 1.220748e+02
         vertex 1.417254e+02 1.670409e+02 1.242631e+02
         vertex 1.417254e+02 1.104090e+01 1.242631e+02
      endloop
   endfacet
   facet normal 9.800700e-01 5.756348e-17 -1.986526e-01
      outer loop
         vertex 1.417254e+02 1.104090e+01 1.242631e+02
         vertex 1.417254e+02 1.670409e+02 1.242631e+02
         vertex 1.418755e+02 1.660409e+02 1.250034e+02
      endloop
   endfacet
   facet normal 9.800700e-01 5.756348e-17 -1.986526e-01
      outer loop
         vertex 1.417254e+02 1.104090e+01 1.242631e+02
         vertex 1.418755e+02 1.660409e+02 1.250034e+02
         vertex 1.418755e+02 1.104090e+01 1.250034e+02
      endloop
   endfacet
   facet normal 9.892145e-01 5.175865e-17 -1.464742e-01
      outer loop
         vertex 1.417254e+02 1.670409e+02 1.242631e+02
         vertex 1.427667e+02 1.670409e+02 1.312953e+02
         vertex 1.427667e+02 1.660409e+02 1.312953e+02
      endloop
   endfacet
   facet normal 9.995953e-01 3.826832e-17 -2.844880e-02
      outer loop
         vertex 1.427667e+02 1.660409e+02 1.312953e+02
         vertex 1.427667e+02 1.670409e+02 1.312953e+02
         vertex 1.429689e+02 1.670409e+02 1.384013e+02
      endloop
   endfacet
   facet normal 9.995953e-01 3.826832e-17 -2.844880e-02
      outer loop
         vertex 1.427667e+02 1.660409e+02 1.312953e+02
         vertex 1.429689e+02 1.670409e+02 1.384013e+02
         vertex 1.429689e+02 1.660409e+02 1.384013e+02
      endloop
   endfacet
   facet normal 9.959439e-01 2.424078e-17 8.997609e-02
      outer loop
         vertex 1.429689e+02 1.660409e+02 1.384013e+02
         vertex 1.429689e+02 1.670409e+02 1.384013e+02
         vertex 1.423293e+02 1.670409e+02 1.454813e+02
      endloop
   endfacet
   facet normal 9.959439e-01 2.424078e-17 8.997609e-02
      outer loop
         vertex 1.429689e+02 1.660409e+02 1.384013e+02
         vertex 1.423293e+02 1.670409e+02 1.454813e+02
         vertex 1.423293e+02 1.660409e+02 1.454813e+02
      endloop
   endfacet
   facet normal 9.783117e-01 9.872900e-18 2.071383e-01
      outer loop
         vertex 1.423293e+02 1.660409e+02 1.454813e+02
         vertex 1.423293e+02 1.670409e+02 1.454813e+02
         vertex 1.408568e+02 1.670409e+02 1.524360e+02
      endloop
   endfacet
   facet normal 9.783117e-01 9.872900e-18 2.071383e-01
      outer loop
         vertex 1.423293e+02 1.660409e+02 1.454813e+02
         vertex 1.408568e+02 1.670409e+02 1.524360e+02
         vertex 1.408568e+02 1.660409e+02 1.524360e+02
      endloop
   endfacet
   facet normal 9.469461e-01 -4.633518e-18 3.213923e-01
      outer loop
         vertex 1.408568e+02 1.660409e+02 1.524360e+02
         vertex 1.408568e+02 1.670409e+02 1.524360e+02
         vertex 1.385720e+02 1.670409e+02 1.591678e+02
      endloop
   endfacet
   facet normal 9.469461e-01 -4.633518e-18 3.213923e-01
      outer loop
         vertex 1.408568e+02 1.660409e+02 1.524360e+02
         vertex 1.385720e+02 1.670409e+02 1.591678e+02
         vertex 1.385720e+02 1.660409e+02 1.591678e+02
      endloop
   endfacet
   facet normal 9.022876e-01 -1.907489e-17 4.311346e-01
      outer loop
         vertex 1.385720e+02 1.660409e+02 1.591678e+02
         vertex 1.385720e+02 1.670409e+02 1.591678e+02
         vertex 1.355072e+02 1.670409e+02 1.655820e+02
      endloop
   endfacet
   facet normal 9.022876e-01 -1.907489e-17 4.311346e-01
      outer loop
         vertex 1.385720e+02 1.660409e+02 1.591678e+02
         vertex 1.355072e+02 1.670409e+02 1.655820e+02
         vertex 1.355072e+02 1.660409e+02 1.655820e+02
      endloop
   endfacet
   facet normal 8.604400e-01 -2.974129e-17 5.095518e-01
      outer loop
         vertex 1.355072e+02 1.660409e+02 1.655820e+02
         vertex 1.355072e+02 1.670409e+02 1.655820e+02
         vertex 1.336952e+02 1.670409e+02 1.686417e+02
      endloop
   endfacet
   facet normal 8.403104e-01 -1.047934e-01 5.318804e-01
      outer loop
         vertex 1.355072e+02 1.660409e+02 1.655820e+02
         vertex 1.336952e+02 1.670409e+02 1.686417e+02
         vertex 1.317051e+02 1.660409e+02 1.715887e+02
      endloop
   endfacet
   facet normal 2.969396e-01 -1.017036e-16 9.548963e-01
      outer loop
         vertex 9.775474e+01 1.660409e+02 1.947091e+02
         vertex 1.038228e+02 1.660409e+02 1.928221e+02
         vertex 1.038228e+02 1.670409e+02 1.928221e+02
      endloop
   endfacet
   facet normal 4.020386e-01 -9.342137e-17 9.156227e-01
      outer loop
         vertex 1.038228e+02 1.670409e+02 1.928221e+02
         vertex 1.038228e+02 1.660409e+02 1.928221e+02
         vertex 1.103319e+02 1.660409e+02 1.899641e+02
      endloop
   endfacet
   facet normal 4.020386e-01 -9.342137e-17 9.156227e-01
      outer loop
         vertex 1.038228e+02 1.670409e+02 1.928221e+02
         vertex 1.103319e+02 1.660409e+02 1.899641e+02
         vertex 1.103319e+02 1.670409e+02 1.899641e+02
      endloop
   endfacet
   facet normal 5.075102e-01 -8.340036e-17 8.616457e-01
      outer loop
         vertex 1.103319e+02 1.670409e+02 1.899641e+02
         vertex 1.103319e+02 1.660409e+02 1.899641e+02
         vertex 1.164572e+02 1.660409e+02 1.863563e+02
      endloop
   endfacet
   facet normal 5.075102e-01 -8.340036e-17 8.616457e-01
      outer loop
         vertex 1.103319e+02 1.670409e+02 1.899641e+02
         vertex 1.164572e+02 1.660409e+02 1.863563e+02
         vertex 1.164572e+02 1.670409e+02 1.863563e+02
      endloop
   endfacet
   facet normal 6.058579e-01 -7.220856e-17 7.955729e-01
      outer loop
         vertex 1.164572e+02 1.670409e+02 1.863563e+02
         vertex 1.164572e+02 1.660409e+02 1.863563e+02
         vertex 1.221129e+02 1.660409e+02 1.820493e+02
      endloop
   endfacet
   facet normal 6.058579e-01 -7.220856e-17 7.955729e-01
      outer loop
         vertex 1.164572e+02 1.670409e+02 1.863563e+02
         vertex 1.221129e+02 1.660409e+02 1.820493e+02
         vertex 1.221129e+02 1.670409e+02 1.820493e+02
      endloop
   endfacet
   facet normal 6.957002e-01 -6.000316e-17 7.183322e-01
      outer loop
         vertex 1.221129e+02 1.670409e+02 1.820493e+02
         vertex 1.221129e+02 1.660409e+02 1.820493e+02
         vertex 1.272194e+02 1.660409e+02 1.771036e+02
      endloop
   endfacet
   facet normal 6.957002e-01 -6.000316e-17 7.183322e-01
      outer loop
         vertex 1.221129e+02 1.670409e+02 1.820493e+02
         vertex 1.272194e+02 1.660409e+02 1.771036e+02
         vertex 1.272194e+02 1.670409e+02 1.771036e+02
      endloop
   endfacet
   facet normal 7.757765e-01 -4.695544e-17 6.310078e-01
      outer loop
         vertex 1.272194e+02 1.670409e+02 1.771036e+02
         vertex 1.272194e+02 1.660409e+02 1.771036e+02
         vertex 1.317051e+02 1.660409e+02 1.715887e+02
      endloop
   endfacet
   facet normal 7.757765e-01 -4.695544e-17 6.310078e-01
      outer loop
         vertex 1.272194e+02 1.670409e+02 1.771036e+02
         vertex 1.317051e+02 1.660409e+02 1.715887e+02
         vertex 1.317051e+02 1.670409e+02 1.715887e+02
      endloop
   endfacet
   facet normal 8.287435e-01 -3.672658e-17 5.596287e-01
      outer loop
         vertex 1.317051e+02 1.670409e+02 1.715887e+02
         vertex 1.317051e+02 1.660409e+02 1.715887e+02
         vertex 1.336952e+02 1.670409e+02 1.686417e+02
      endloop
   endfacet
   facet normal -3.494333e-17 1.000000e+00 1.173736e-16
      outer loop
         vertex 1.272194e+02 1.670409e+02 1.771036e+02
         vertex 1.317051e+02 1.670409e+02 1.715887e+02
         vertex 8.299742e+01 1.670409e+02 1.365522e+02
      endloop
   endfacet
   facet normal -3.494333e-17 1.000000e+00 1.173736e-16
      outer loop
         vertex 8.299742e+01 1.670409e+02 1.365522e+02
         vertex 1.317051e+02 1.670409e+02 1.715887e+02
         vertex 1.336952e+02 1.670409e+02 1.686417e+02
      endloop
   endfacet
   facet normal -3.494333e-17 1.000000e+00 1.173736e-16
      outer loop
         vertex 8.299742e+01 1.670409e+02 1.365522e+02
         vertex 1.336952e+02 1.670409e+02 1.686417e+02
         vertex 1.355072e+02 1.670409e+02 1.655820e+02
      endloop
   endfacet
   facet normal -3.494333e-17 1.000000e+00 1.173736e-16
      outer loop
         vertex 1.103319e+02 1.670409e+02 1.899641e+02
         vertex 1.164572e+02 1.670409e+02 1.863563e+02
         vertex 8.299742e+01 1.670409e+02 1.365522e+02
      endloop
   endfacet
   facet normal -3.494333e-17 1.000000e+00 1.173736e-16
      outer loop
         vertex 8.299742e+01 1.670409e+02 1.365522e+02
         vertex 1.164572e+02 1.670409e+02 1.863563e+02
         vertex 1.221129e+02 1.670409e+02 1.820493e+02
      endloop
   endfacet
   facet normal -3.494333e-17 1.000000e+00 1.173736e-16
      outer loop
         vertex 8.299742e+01 1.670409e+02 1.365522e+02
         vertex 1.221129e+02 1.670409e+02 1.820493e+02
         vertex 1.272194e+02 1.670409e+02 1.771036e+02
      endloop
   endfacet
   facet normal -3.494333e-17 1.000000e+00 1.173736e-16
      outer loop
         vertex 9.002320e+01 1.670409e+02 1.961395e+02
         vertex 9.702145e+01 1.670409e+02 1.948903e+02
         vertex 8.299742e+01 1.670409e+02 1.365522e+02
      endloop
   endfacet
   facet normal -3.494333e-17 1.000000e+00 1.173736e-16
      outer loop
         vertex 8.299742e+01 1.670409e+02 1.365522e+02
         vertex 9.702145e+01 1.670409e+02 1.948903e+02
         vertex 1.038228e+02 1.670409e+02 1.928221e+02
      endloop
   endfacet
   facet normal -3.494333e-17 1.000000e+00 1.173736e-16
      outer loop
         vertex 8.299742e+01 1.670409e+02 1.365522e+02
         vertex 1.038228e+02 1.670409e+02 1.928221e+02
         vertex 1.103319e+02 1.670409e+02 1.899641e+02
      endloop
   endfacet
   facet normal -3.494333e-17 1.000000e+00 1.173736e-16
      outer loop
         vertex 6.883515e+01 1.670409e+02 1.948569e+02
         vertex 7.583043e+01 1.670409e+02 1.961226e+02
         vertex 8.299742e+01 1.670409e+02 1.365522e+02
      endloop
   endfacet
   facet normal -3.494333e-17 1.000000e+00 1.173736e-16
      outer loop
         vertex 8.299742e+01 1.670409e+02 1.365522e+02
         vertex 7.583043e+01 1.670409e+02 1.961226e+02
         vertex 8.292631e+01 1.670409e+02 1.965522e+02
      endloop
   endfacet
   facet normal -3.494333e-17 1.000000e+00 1.173736e-16
      outer loop
         vertex 8.299742e+01 1.670409e+02 1.365522e+02
         vertex 8.292631e+01 1.670409e+02 1.965522e+02
         vertex 9.002320e+01 1.670409e+02 1.961395e+02
      endloop
   endfacet
   facet normal -3.494333e-17 1.000000e+00 1.173736e-16
      outer loop
         vertex 4.941966e+01 1.670409e+02 1.862768e+02
         vertex 5.553642e+01 1.670409e+02 1.898991e+02
         vertex 8.299742e+01 1.670409e+02 1.365522e+02
      endloop
   endfacet
   facet normal -3.494333e-17 1.000000e+00 1.173736e-16
      outer loop
         vertex 8.299742e+01 1.670409e+02 1.365522e+02
         vertex 5.553642e+01 1.670409e+02 1.898991e+02
         vertex 6.203868e+01 1.670409e+02 1.927726e+02
      endloop
   endfacet
   facet normal -3.494333e-17 1.000000e+00 1.173736e-16
      outer loop
         vertex 8.299742e+01 1.670409e+02 1.365522e+02
         vertex 6.203868e+01 1.670409e+02 1.927726e+02
         vertex 6.883515e+01 1.670409e+02 1.948569e+02
      endloop
   endfacet
   facet normal -3.494333e-17 1.000000e+00 1.173736e-16
      outer loop
         vertex 3.420679e+01 1.670409e+02 1.714732e+02
         vertex 3.867946e+01 1.670409e+02 1.769987e+02
         vertex 8.299742e+01 1.670409e+02 1.365522e+02
      endloop
   endfacet
   facet normal -3.494333e-17 1.000000e+00 1.173736e-16
      outer loop
         vertex 8.299742e+01 1.670409e+02 1.365522e+02
         vertex 3.867946e+01 1.670409e+02 1.769987e+02
         vertex 4.377426e+01 1.670409e+02 1.819564e+02
      endloop
   endfacet
   facet normal -3.494333e-17 1.000000e+00 1.173736e-16
      outer loop
         vertex 8.299742e+01 1.670409e+02 1.365522e+02
         vertex 4.377426e+01 1.670409e+02 1.819564e+02
         vertex 4.941966e+01 1.670409e+02 1.862768e+02
      endloop
   endfacet
   facet normal -3.494333e-17 1.000000e+00 1.173736e-16
      outer loop
         vertex 2.510058e+01 1.670409e+02 1.522989e+02
         vertex 2.736936e+01 1.670409e+02 1.590360e+02
         vertex 8.299742e+01 1.670409e+02 1.365522e+02
      endloop
   endfacet
   facet normal -3.494333e-17 1.000000e+00 1.173736e-16
      outer loop
         vertex 8.299742e+01 1.670409e+02 1.365522e+02
         vertex 2.736936e+01 1.670409e+02 1.590360e+02
         vertex 3.041903e+01 1.670409e+02 1.654575e+02
      endloop
   endfacet
   facet normal -3.494333e-17 1.000000e+00 1.173736e-16
      outer loop
         vertex 8.299742e+01 1.670409e+02 1.365522e+02
         vertex 3.041903e+01 1.670409e+02 1.654575e+02
         vertex 3.420679e+01 1.670409e+02 1.714732e+02
      endloop
   endfacet
   facet normal -3.494333e-17 1.000000e+00 1.173736e-16
      outer loop
         vertex 2.324079e+01 1.670409e+02 1.311537e+02
         vertex 2.302170e+01 1.670409e+02 1.382591e+02
         vertex 8.299742e+01 1.670409e+02 1.365522e+02
      endloop
   endfacet
   facet normal -3.494333e-17 1.000000e+00 1.173736e-16
      outer loop
         vertex 8.299742e+01 1.670409e+02 1.365522e+02
         vertex 2.302170e+01 1.670409e+02 1.382591e+02
         vertex 2.364455e+01 1.670409e+02 1.453407e+02
      endloop
   endfacet
   facet normal -3.494333e-17 1.000000e+00 1.173736e-16
      outer loop
         vertex 8.299742e+01 1.670409e+02 1.365522e+02
         vertex 2.364455e+01 1.670409e+02 1.453407e+02
         vertex 2.510058e+01 1.670409e+02 1.522989e+02
      endloop
   endfacet
   facet normal -3.494333e-17 1.000000e+00 1.173736e-16
      outer loop
         vertex 2.886017e+01 1.670409e+02 1.106841e+02
         vertex 2.618065e+01 1.670409e+02 1.172687e+02
         vertex 8.299742e+01 1.670409e+02 1.365522e+02
      endloop
   endfacet
   facet normal -3.494333e-17 1.000000e+00 1.173736e-16
      outer loop
         vertex 8.299742e+01 1.670409e+02 1.365522e+02
         vertex 2.618065e+01 1.670409e+02 1.172687e+02
         vertex 2.429872e+01 1.670409e+02 1.241239e+02
      endloop
   endfacet
   facet normal -3.494333e-17 1.000000e+00 1.173736e-16
      outer loop
         vertex 8.299742e+01 1.670409e+02 1.365522e+02
         vertex 2.429872e+01 1.670409e+02 1.241239e+02
         vertex 2.324079e+01 1.670409e+02 1.311537e+02
      endloop
   endfacet
   facet normal -3.494333e-17 1.000000e+00 1.173736e-16
      outer loop
         vertex 4.125540e+01 1.670409e+02 9.345229e+01
         vertex 3.645082e+01 1.670409e+02 9.869177e+01
         vertex 8.299742e+01 1.670409e+02 1.365522e+02
      endloop
   endfacet
   facet normal -3.494333e-17 1.000000e+00 1.173736e-16
      outer loop
         vertex 8.299742e+01 1.670409e+02 1.365522e+02
         vertex 3.645082e+01 1.670409e+02 9.869177e+01
         vertex 3.229965e+01 1.670409e+02 1.044627e+02
      endloop
   endfacet
   facet normal -3.494333e-17 1.000000e+00 1.173736e-16
      outer loop
         vertex 8.299742e+01 1.670409e+02 1.365522e+02
         vertex 3.229965e+01 1.670409e+02 1.044627e+02
         vertex 2.886017e+01 1.670409e+02 1.106841e+02
      endloop
   endfacet
   facet normal -3.494333e-17 1.000000e+00 1.173736e-16
      outer loop
         vertex 5.887510e+01 1.670409e+02 8.161486e+01
         vertex 5.254680e+01 1.670409e+02 8.485349e+01
         vertex 8.299742e+01 1.670409e+02 1.365522e+02
      endloop
   endfacet
   facet normal -3.494333e-17 1.000000e+00 1.173736e-16
      outer loop
         vertex 8.299742e+01 1.670409e+02 1.365522e+02
         vertex 5.254680e+01 1.670409e+02 8.485349e+01
         vertex 4.664595e+01 1.670409e+02 8.881785e+01
      endloop
   endfacet
   facet normal -3.494333e-17 1.000000e+00 1.173736e-16
      outer loop
         vertex 8.299742e+01 1.670409e+02 1.365522e+02
         vertex 4.664595e+01 1.670409e+02 8.881785e+01
         vertex 4.125540e+01 1.670409e+02 9.345229e+01
      endloop
   endfacet
   facet normal -3.494333e-17 1.000000e+00 1.173736e-16
      outer loop
         vertex 7.951396e+01 1.670409e+02 7.665343e+01
         vertex 7.245399e+01 1.670409e+02 7.748585e+01
         vertex 8.299742e+01 1.670409e+02 1.365522e+02
      endloop
   endfacet
   facet normal -3.494333e-17 1.000000e+00 1.173736e-16
      outer loop
         vertex 8.299742e+01 1.670409e+02 1.365522e+02
         vertex 7.245399e+01 1.670409e+02 7.748585e+01
         vertex 6.554203e+01 1.670409e+02 7.914744e+01
      endloop
   endfacet
   facet normal -3.494333e-17 1.000000e+00 1.173736e-16
      outer loop
         vertex 8.299742e+01 1.670409e+02 1.365522e+02
         vertex 6.554203e+01 1.670409e+02 7.914744e+01
         vertex 5.887510e+01 1.670409e+02 8.161486e+01
      endloop
   endfacet
   facet normal -3.494333e-17 1.000000e+00 1.173736e-16
      outer loop
         vertex 1.005888e+02 1.670409e+02 7.918897e+01
         vertex 9.368081e+01 1.670409e+02 7.751101e+01
         vertex 8.299742e+01 1.670409e+02 1.365522e+02
      endloop
   endfacet
   facet normal -3.494333e-17 1.000000e+00 1.173736e-16
      outer loop
         vertex 8.299742e+01 1.670409e+02 1.365522e+02
         vertex 9.368081e+01 1.670409e+02 7.751101e+01
         vertex 8.662283e+01 1.670409e+02 7.666185e+01
      endloop
   endfacet
   facet normal -3.494333e-17 1.000000e+00 1.173736e-16
      outer loop
         vertex 8.299742e+01 1.670409e+02 1.365522e+02
         vertex 8.662283e+01 1.670409e+02 7.666185e+01
         vertex 7.951396e+01 1.670409e+02 7.665343e+01
      endloop
   endfacet
   facet normal -3.494333e-17 1.000000e+00 1.173736e-16
      outer loop
         vertex 1.194619e+02 1.670409e+02 8.890414e+01
         vertex 1.135705e+02 1.670409e+02 8.492580e+01
         vertex 8.299742e+01 1.670409e+02 1.365522e+02
      endloop
   endfacet
   facet normal -3.494333e-17 1.000000e+00 1.173736e-16
      outer loop
         vertex 8.299742e+01 1.670409e+02 1.365522e+02
         vertex 1.135705e+02 1.670409e+02 8.492580e+01
         vertex 1.072499e+02 1.670409e+02 8.167219e+01
      endloop
   endfacet
   facet normal -3.494333e-17 1.000000e+00 1.173736e-16
      outer loop
         vertex 8.299742e+01 1.670409e+02 1.365522e+02
         vertex 1.072499e+02 1.670409e+02 8.167219e+01
         vertex 1.005888e+02 1.670409e+02 7.918897e+01
      endloop
   endfacet
   facet normal -3.494333e-17 1.000000e+00 1.173736e-16
      outer loop
         vertex 1.337711e+02 1.670409e+02 1.045830e+02
         vertex 1.296336e+02 1.670409e+02 9.880219e+01
         vertex 8.299742e+01 1.670409e+02 1.365522e+02
      endloop
   endfacet
   facet normal -3.494333e-17 1.000000e+00 1.173736e-16
      outer loop
         vertex 8.299742e+01 1.670409e+02 1.365522e+02
         vertex 1.296336e+02 1.670409e+02 9.880219e+01
         vertex 1.248415e+02 1.670409e+02 9.355135e+01
      endloop
   endfacet
   facet normal -3.494333e-17 1.000000e+00 1.173736e-16
      outer loop
         vertex 8.299742e+01 1.670409e+02 1.365522e+02
         vertex 1.248415e+02 1.670409e+02 9.355135e+01
         vertex 1.194619e+02 1.670409e+02 8.890414e+01
      endloop
   endfacet
   facet normal -3.494333e-17 1.000000e+00 1.173736e-16
      outer loop
         vertex 1.417254e+02 1.670409e+02 1.242631e+02
         vertex 1.398597e+02 1.670409e+02 1.174034e+02
         vertex 8.299742e+01 1.670409e+02 1.365522e+02
      endloop
   endfacet
   facet normal -3.494333e-17 1.000000e+00 1.173736e-16
      outer loop
         vertex 8.299742e+01 1.670409e+02 1.365522e+02
         vertex 1.398597e+02 1.670409e+02 1.174034e+02
         vertex 1.371958e+02 1.670409e+02 1.108125e+02
      endloop
   endfacet
   facet normal -3.494333e-17 1.000000e+00 1.173736e-16
      outer loop
         vertex 8.299742e+01 1.670409e+02 1.365522e+02
         vertex 1.371958e+02 1.670409e+02 1.108125e+02
         vertex 1.337711e+02 1.670409e+02 1.045830e+02
      endloop
   endfacet
   facet normal -3.494333e-17 1.000000e+00 1.173736e-16
      outer loop
         vertex 1.423293e+02 1.670409e+02 1.454813e+02
         vertex 1.429689e+02 1.670409e+02 1.384013e+02
         vertex 8.299742e+01 1.670409e+02 1.365522e+02
      endloop
   endfacet
   facet normal -3.494333e-17 1.000000e+00 1.173736e-16
      outer loop
         vertex 8.299742e+01 1.670409e+02 1.365522e+02
         vertex 1.429689e+02 1.670409e+02 1.384013e+02
         vertex 1.427667e+02 1.670409e+02 1.312953e+02
      endloop
   endfacet
   facet normal -3.494333e-17 1.000000e+00 1.173736e-16
      outer loop
         vertex 8.299742e+01 1.670409e+02 1.365522e+02
         vertex 1.427667e+02 1.670409e+02 1.312953e+02
         vertex 1.417254e+02 1.670409e+02 1.242631e+02
      endloop
   endfacet
   facet normal -3.494333e-17 1.000000e+00 1.173736e-16
      outer loop
         vertex 1.355072e+02 1.670409e+02 1.655820e+02
         vertex 1.385720e+02 1.670409e+02 1.591678e+02
         vertex 8.299742e+01 1.670409e+02 1.365522e+02
      endloop
   endfacet
   facet normal -3.494333e-17 1.000000e+00 1.173736e-16
      outer loop
         vertex 8.299742e+01 1.670409e+02 1.365522e+02
         vertex 1.385720e+02 1.670409e+02 1.591678e+02
         vertex 1.408568e+02 1.670409e+02 1.524360e+02
      endloop
   endfacet
   facet normal -3.494333e-17 1.000000e+00 1.173736e-16
      outer loop
         vertex 8.299742e+01 1.670409e+02 1.365522e+02
         vertex 1.408568e+02 1.670409e+02 1.524360e+02
         vertex 1.423293e+02 1.670409e+02 1.454813e+02
      endloop
   endfacet
   facet normal -9.756574e-01 -5.983280e-17 2.193005e-01
      outer loop
         vertex 1.295317e+02 1.104090e+01 1.247031e+02
         vertex 1.301896e+02 1.104090e+01 1.276300e+02
         vertex 1.295317e+02 1.660409e+02 1.247031e+02
      endloop
   endfacet
   facet normal -9.756574e-01 -5.983280e-17 2.193005e-01
      outer loop
         vertex 1.295317e+02 1.660409e+02 1.247031e+02
         vertex 1.301896e+02 1.104090e+01 1.276300e+02
         vertex 1.301896e+02 1.660409e+02 1.276300e+02
      endloop
   endfacet
   facet normal -2.193002e-01 1.068533e-16 -9.756574e-01
      outer loop
         vertex 1.412246e+02 1.104090e+01 1.220748e+02
         vertex 1.295317e+02 1.104090e+01 1.247031e+02
         vertex 1.412246e+02 1.660409e+02 1.220748e+02
      endloop
   endfacet
   facet normal -2.193002e-01 1.068533e-16 -9.756574e-01
      outer loop
         vertex 1.412246e+02 1.660409e+02 1.220748e+02
         vertex 1.295317e+02 1.104090e+01 1.247031e+02
         vertex 1.295317e+02 1.660409e+02 1.247031e+02
      endloop
   endfacet
   facet normal 2.193005e-01 -1.068533e-16 9.756574e-01
      outer loop
         vertex 1.301896e+02 1.104090e+01 1.276300e+02
         vertex 1.418755e+02 1.104090e+01 1.250034e+02
         vertex 1.301896e+02 1.660409e+02 1.276300e+02
      endloop
   endfacet
   facet normal 2.193005e-01 -1.068533e-16 9.756574e-01
      outer loop
         vertex 1.301896e+02 1.660409e+02 1.276300e+02
         vertex 1.418755e+02 1.104090e+01 1.250034e+02
         vertex 1.418755e+02 1.660409e+02 1.250034e+02
      endloop
   endfacet
   facet normal 3.494333e-17 -1.000000e+00 -1.173736e-16
      outer loop
         vertex 1.418755e+02 1.104090e+01 1.250034e+02
         vertex 1.301896e+02 1.104090e+01 1.276300e+02
         vertex 1.417254e+02 1.104090e+01 1.242631e+02
      endloop
   endfacet
   facet normal 3.494333e-17 -1.000000e+00 -1.173736e-16
      outer loop
         vertex 1.417254e+02 1.104090e+01 1.242631e+02
         vertex 1.301896e+02 1.104090e+01 1.276300e+02
         vertex 1.295317e+02 1.104090e+01 1.247031e+02
      endloop
   endfacet
   facet normal 3.494333e-17 -1.000000e+00 -1.173736e-16
      outer loop
         vertex 1.417254e+02 1.104090e+01 1.242631e+02
         vertex 1.295317e+02 1.104090e+01 1.247031e+02
         vertex 1.412246e+02 1.104090e+01 1.220748e+02
      endloop
   endfacet
   facet normal -2.193005e-01 1.068533e-16 -9.756574e-01
      outer loop
         vertex 9.512808e+01 1.104090e+01 1.830232e+02
         vertex 9.191960e+01 1.104090e+01 1.837444e+02
         vertex 9.512808e+01 1.660409e+02 1.830232e+02
      endloop
   endfacet
   facet normal -2.193005e-01 1.068533e-16 -9.756574e-01
      outer loop
         vertex 9.512808e+01 1.660409e+02 1.830232e+02
         vertex 9.191960e+01 1.104090e+01 1.837444e+02
         vertex 9.191960e+01 1.660409e+02 1.837444e+02
      endloop
   endfacet
   facet normal 9.756574e-01 5.983280e-17 -2.193005e-01
      outer loop
         vertex 9.775474e+01 1.104090e+01 1.947091e+02
         vertex 9.512808e+01 1.104090e+01 1.830232e+02
         vertex 9.775474e+01 1.660409e+02 1.947091e+02
      endloop
   endfacet
   facet normal 9.756574e-01 5.983280e-17 -2.193005e-01
      outer loop
         vertex 9.775474e+01 1.660409e+02 1.947091e+02
         vertex 9.512808e+01 1.104090e+01 1.830232e+02
         vertex 9.512808e+01 1.660409e+02 1.830232e+02
      endloop
   endfacet
   facet normal -9.756574e-01 -5.983280e-17 2.193005e-01
      outer loop
         vertex 9.191960e+01 1.104090e+01 1.837444e+02
         vertex 9.454627e+01 1.104090e+01 1.954303e+02
         vertex 9.191960e+01 1.660409e+02 1.837444e+02
      endloop
   endfacet
   facet normal -9.756574e-01 -5.983280e-17 2.193005e-01
      outer loop
         vertex 9.191960e+01 1.660409e+02 1.837444e+02
         vertex 9.454627e+01 1.104090e+01 1.954303e+02
         vertex 9.454627e+01 1.660409e+02 1.954303e+02
      endloop
   endfacet
   facet normal 3.494333e-17 -1.000000e+00 -1.173736e-16
      outer loop
         vertex 9.454627e+01 1.104090e+01 1.954303e+02
         vertex 9.191960e+01 1.104090e+01 1.837444e+02
         vertex 9.702145e+01 1.104090e+01 1.948903e+02
      endloop
   endfacet
   facet normal 3.494333e-17 -1.000000e+00 -1.173736e-16
      outer loop
         vertex 9.702145e+01 1.104090e+01 1.948903e+02
         vertex 9.191960e+01 1.104090e+01 1.837444e+02
         vertex 9.512808e+01 1.104090e+01 1.830232e+02
      endloop
   endfacet
   facet normal 3.494333e-17 -1.000000e+00 -1.173736e-16
      outer loop
         vertex 9.702145e+01 1.104090e+01 1.948903e+02
         vertex 9.512808e+01 1.104090e+01 1.830232e+02
         vertex 9.775474e+01 1.104090e+01 1.947091e+02
      endloop
   endfacet
   facet normal 2.193005e-01 -1.068533e-16 9.756574e-01
      outer loop
         vertex 7.114826e+01 1.104090e+01 9.001799e+01
         vertex 7.407523e+01 1.104090e+01 8.936008e+01
         vertex 7.114826e+01 1.660409e+02 9.001799e+01
      endloop
   endfacet
   facet normal 2.193005e-01 -1.068533e-16 9.756574e-01
      outer loop
         vertex 7.114826e+01 1.660409e+02 9.001799e+01
         vertex 7.407523e+01 1.104090e+01 8.936008e+01
         vertex 7.407523e+01 1.660409e+02 8.936008e+01
      endloop
   endfacet
   facet normal -9.756574e-01 -5.983278e-17 2.193002e-01
      outer loop
         vertex 6.852001e+01 1.104090e+01 7.832504e+01
         vertex 7.114826e+01 1.104090e+01 9.001799e+01
         vertex 6.852001e+01 1.660409e+02 7.832504e+01
      endloop
   endfacet
   facet normal -9.756574e-01 -5.983278e-17 2.193002e-01
      outer loop
         vertex 6.852001e+01 1.660409e+02 7.832504e+01
         vertex 7.114826e+01 1.104090e+01 9.001799e+01
         vertex 7.114826e+01 1.660409e+02 9.001799e+01
      endloop
   endfacet
   facet normal 9.756574e-01 5.983280e-17 -2.193005e-01
      outer loop
         vertex 7.407523e+01 1.104090e+01 8.936008e+01
         vertex 7.144857e+01 1.104090e+01 7.767418e+01
         vertex 7.407523e+01 1.660409e+02 8.936008e+01
      endloop
   endfacet
   facet normal 9.756574e-01 5.983280e-17 -2.193005e-01
      outer loop
         vertex 7.407523e+01 1.660409e+02 8.936008e+01
         vertex 7.144857e+01 1.104090e+01 7.767418e+01
         vertex 7.144857e+01 1.660409e+02 7.767418e+01
      endloop
   endfacet
   facet normal 3.494333e-17 -1.000000e+00 -1.173736e-16
      outer loop
         vertex 6.852001e+01 1.104090e+01 7.832504e+01
         vertex 7.144857e+01 1.104090e+01 7.767418e+01
         vertex 7.114826e+01 1.104090e+01 9.001799e+01
      endloop
   endfacet
   facet normal 3.494333e-17 -1.000000e+00 -1.173736e-16
      outer loop
         vertex 7.114826e+01 1.104090e+01 9.001799e+01
         vertex 7.144857e+01 1.104090e+01 7.767418e+01
         vertex 7.407523e+01 1.104090e+01 8.936008e+01
      endloop
   endfacet
   facet normal 9.756574e-01 5.983280e-17 -2.193005e-01
      outer loop
         vertex 3.646318e+01 1.104090e+01 1.484014e+02
         vertex 3.580528e+01 1.104090e+01 1.454744e+02
         vertex 3.646318e+01 1.660409e+02 1.484014e+02
      endloop
   endfacet
   facet normal 9.756574e-01 5.983280e-17 -2.193005e-01
      outer loop
         vertex 3.646318e+01 1.660409e+02 1.484014e+02
         vertex 3.580528e+01 1.104090e+01 1.454744e+02
         vertex 3.580528e+01 1.660409e+02 1.454744e+02
      endloop
   endfacet
   facet normal 2.193002e-01 -1.068533e-16 9.756574e-01
      outer loop
         vertex 2.477024e+01 1.104090e+01 1.510296e+02
         vertex 3.646318e+01 1.104090e+01 1.484014e+02
         vertex 2.477024e+01 1.660409e+02 1.510296e+02
      endloop
   endfacet
   facet normal 2.193002e-01 -1.068533e-16 9.756574e-01
      outer loop
         vertex 2.477024e+01 1.660409e+02 1.510296e+02
         vertex 3.646318e+01 1.104090e+01 1.484014e+02
         vertex 3.646318e+01 1.660409e+02 1.484014e+02
      endloop
   endfacet
   facet normal -2.193005e-01 1.068533e-16 -9.756574e-01
      outer loop
         vertex 3.580528e+01 1.104090e+01 1.454744e+02
         vertex 2.411937e+01 1.104090e+01 1.481011e+02
         vertex 3.580528e+01 1.660409e+02 1.454744e+02
      endloop
   endfacet
   facet normal -2.193005e-01 1.068533e-16 -9.756574e-01
      outer loop
         vertex 3.580528e+01 1.660409e+02 1.454744e+02
         vertex 2.411937e+01 1.104090e+01 1.481011e+02
         vertex 2.411937e+01 1.660409e+02 1.481011e+02
      endloop
   endfacet
   facet normal 3.494333e-17 -1.000000e+00 -1.173736e-16
      outer loop
         vertex 2.477024e+01 1.104090e+01 1.510296e+02
         vertex 2.411937e+01 1.104090e+01 1.481011e+02
         vertex 3.646318e+01 1.104090e+01 1.484014e+02
      endloop
   endfacet
   facet normal 3.494333e-17 -1.000000e+00 -1.173736e-16
      outer loop
         vertex 3.646318e+01 1.104090e+01 1.484014e+02
         vertex 2.411937e+01 1.104090e+01 1.481011e+02
         vertex 3.580528e+01 1.104090e+01 1.454744e+02
      endloop
   endfacet
endsolid