solid inlet
   facet normal 0.000000e+00 1.000000e+00 -0.000000e+00
      outer loop
         vertex 8.686000e+02 6.300002e+00 7.846000e+02
         vertex 8.601019e+02 6.300002e+00 7.850310e+02
         vertex 8.686000e+02 6.300002e+00 8.686000e+02
      endloop
   endfacet
   facet normal 0.000000e+00 1.000000e+00 0.000000e+00
      outer loop
         vertex 8.686000e+02 6.300002e+00 7.846000e+02
         vertex 8.686000e+02 6.300002e+00 8.686000e+02
         vertex 8.770981e+02 6.300002e+00 7.850310e+02
      endloop
   endfacet
   facet normal 0.000000e+00 1.000000e+00 0.000000e+00
      outer loop
         vertex 9.017259e+02 6.300002e+00 7.914076e+02
         vertex 8.937465e+02 6.300002e+00 7.884523e+02
         vertex 8.686000e+02 6.300002e+00 8.686000e+02
      endloop
   endfacet
   facet normal 0.000000e+00 1.000000e+00 0.000000e+00
      outer loop
         vertex 8.686000e+02 6.300002e+00 8.686000e+02
         vertex 8.937465e+02 6.300002e+00 7.884523e+02
         vertex 8.855091e+02 6.300002e+00 7.863195e+02
      endloop
   endfacet
   facet normal 0.000000e+00 1.000000e+00 0.000000e+00
      outer loop
         vertex 8.686000e+02 6.300002e+00 8.686000e+02
         vertex 8.855091e+02 6.300002e+00 7.863195e+02
         vertex 8.770981e+02 6.300002e+00 7.850310e+02
      endloop
   endfacet
   facet normal 0.000000e+00 1.000000e+00 0.000000e+00
      outer loop
         vertex 9.233153e+02 6.300002e+00 8.048643e+02
         vertex 9.165865e+02 6.300002e+00 7.996559e+02
         vertex 8.686000e+02 6.300002e+00 8.686000e+02
      endloop
   endfacet
   facet normal 0.000000e+00 1.000000e+00 0.000000e+00
      outer loop
         vertex 8.686000e+02 6.300002e+00 8.686000e+02
         vertex 9.165865e+02 6.300002e+00 7.996559e+02
         vertex 9.093654e+02 6.300002e+00 7.951549e+02
      endloop
   endfacet
   facet normal 0.000000e+00 1.000000e+00 0.000000e+00
      outer loop
         vertex 8.686000e+02 6.300002e+00 8.686000e+02
         vertex 9.093654e+02 6.300002e+00 7.951549e+02
         vertex 9.017259e+02 6.300002e+00 7.914076e+02
      endloop
   endfacet
   facet normal 0.000000e+00 1.000000e+00 0.000000e+00
      outer loop
         vertex 9.398861e+02 6.300002e+00 8.241670e+02
         vertex 9.350252e+02 6.300002e+00 8.171831e+02
         vertex 8.686000e+02 6.300002e+00 8.686000e+02
      endloop
   endfacet
   facet normal 0.000000e+00 1.000000e+00 0.000000e+00
      outer loop
         vertex 8.686000e+02 6.300002e+00 8.686000e+02
         vertex 9.350252e+02 6.300002e+00 8.171831e+02
         vertex 9.294826e+02 6.300002e+00 8.107268e+02
      endloop
   endfacet
   facet normal 0.000000e+00 1.000000e+00 0.000000e+00
      outer loop
         vertex 8.686000e+02 6.300002e+00 8.686000e+02
         vertex 9.294826e+02 6.300002e+00 8.107268e+02
         vertex 9.233153e+02 6.300002e+00 8.048643e+02
      endloop
   endfacet
   facet normal 0.000000e+00 1.000000e+00 0.000000e+00
      outer loop
         vertex 9.499185e+02 6.300002e+00 8.475452e+02
         vertex 9.473712e+02 6.300002e+00 8.394264e+02
         vertex 8.686000e+02 6.300002e+00 8.686000e+02
      endloop
   endfacet
   facet normal 0.000000e+00 1.000000e+00 0.000000e+00
      outer loop
         vertex 8.686000e+02 6.300002e+00 8.686000e+02
         vertex 9.473712e+02 6.300002e+00 8.394264e+02
         vertex 9.440156e+02 6.300002e+00 8.316069e+02
      endloop
   endfacet
   facet normal 0.000000e+00 1.000000e+00 0.000000e+00
      outer loop
         vertex 8.686000e+02 6.300002e+00 8.686000e+02
         vertex 9.440156e+02 6.300002e+00 8.316069e+02
         vertex 9.398861e+02 6.300002e+00 8.241670e+02
      endloop
   endfacet
   facet normal 0.000000e+00 1.000000e+00 0.000000e+00
      outer loop
         vertex 9.524922e+02 6.300002e+00 8.728545e+02
         vertex 9.524922e+02 6.300002e+00 8.643455e+02
         vertex 8.686000e+02 6.300002e+00 8.686000e+02
      endloop
   endfacet
   facet normal 0.000000e+00 1.000000e+00 0.000000e+00
      outer loop
         vertex 8.686000e+02 6.300002e+00 8.686000e+02
         vertex 9.524922e+02 6.300002e+00 8.643455e+02
         vertex 9.516314e+02 6.300002e+00 8.558801e+02
      endloop
   endfacet
   facet normal 0.000000e+00 1.000000e+00 0.000000e+00
      outer loop
         vertex 8.686000e+02 6.300002e+00 8.686000e+02
         vertex 9.516314e+02 6.300002e+00 8.558801e+02
         vertex 9.499185e+02 6.300002e+00 8.475452e+02
      endloop
   endfacet
   facet normal 0.000000e+00 1.000000e+00 0.000000e+00
      outer loop
         vertex 9.473712e+02 6.300002e+00 8.977737e+02
         vertex 9.499185e+02 6.300002e+00 8.896548e+02
         vertex 8.686000e+02 6.300002e+00 8.686000e+02
      endloop
   endfacet
   facet normal 0.000000e+00 1.000000e+00 0.000000e+00
      outer loop
         vertex 8.686000e+02 6.300002e+00 8.686000e+02
         vertex 9.499185e+02 6.300002e+00 8.896548e+02
         vertex 9.516314e+02 6.300002e+00 8.813199e+02
      endloop
   endfacet
   facet normal 0.000000e+00 1.000000e+00 0.000000e+00
      outer loop
         vertex 8.686000e+02 6.300002e+00 8.686000e+02
         vertex 9.516314e+02 6.300002e+00 8.813199e+02
         vertex 9.524922e+02 6.300002e+00 8.728545e+02
      endloop
   endfacet
   facet normal 0.000000e+00 1.000000e+00 0.000000e+00
      outer loop
         vertex 9.350252e+02 6.300002e+00 9.200169e+02
         vertex 9.398861e+02 6.300002e+00 9.130330e+02
         vertex 8.686000e+02 6.300002e+00 8.686000e+02
      endloop
   endfacet
   facet normal 0.000000e+00 1.000000e+00 0.000000e+00
      outer loop
         vertex 8.686000e+02 6.300002e+00 8.686000e+02
         vertex 9.398861e+02 6.300002e+00 9.130330e+02
         vertex 9.440156e+02 6.300002e+00 9.055931e+02
      endloop
   endfacet
   facet normal 0.000000e+00 1.000000e+00 0.000000e+00
      outer loop
         vertex 8.686000e+02 6.300002e+00 8.686000e+02
         vertex 9.440156e+02 6.300002e+00 9.055931e+02
         vertex 9.473712e+02 6.300002e+00 8.977737e+02
      endloop
   endfacet
   facet normal 0.000000e+00 1.000000e+00 0.000000e+00
      outer loop
         vertex 9.165865e+02 6.300002e+00 9.375441e+02
         vertex 9.233153e+02 6.300002e+00 9.323357e+02
         vertex 8.686000e+02 6.300002e+00 8.686000e+02
      endloop
   endfacet
   facet normal 0.000000e+00 1.000000e+00 0.000000e+00
      outer loop
         vertex 8.686000e+02 6.300002e+00 8.686000e+02
         vertex 9.233153e+02 6.300002e+00 9.323357e+02
         vertex 9.294826e+02 6.300002e+00 9.264732e+02
      endloop
   endfacet
   facet normal 0.000000e+00 1.000000e+00 0.000000e+00
      outer loop
         vertex 8.686000e+02 6.300002e+00 8.686000e+02
         vertex 9.294826e+02 6.300002e+00 9.264732e+02
         vertex 9.350252e+02 6.300002e+00 9.200169e+02
      endloop
   endfacet
   facet normal 0.000000e+00 1.000000e+00 0.000000e+00
      outer loop
         vertex 8.937465e+02 6.300002e+00 9.487477e+02
         vertex 9.017259e+02 6.300002e+00 9.457925e+02
         vertex 8.686000e+02 6.300002e+00 8.686000e+02
      endloop
   endfacet
   facet normal 0.000000e+00 1.000000e+00 0.000000e+00
      outer loop
         vertex 8.686000e+02 6.300002e+00 8.686000e+02
         vertex 9.017259e+02 6.300002e+00 9.457925e+02
         vertex 9.093654e+02 6.300002e+00 9.420451e+02
      endloop
   endfacet
   facet normal 0.000000e+00 1.000000e+00 0.000000e+00
      outer loop
         vertex 8.686000e+02 6.300002e+00 8.686000e+02
         vertex 9.093654e+02 6.300002e+00 9.420451e+02
         vertex 9.165865e+02 6.300002e+00 9.375441e+02
      endloop
   endfacet
   facet normal 0.000000e+00 1.000000e+00 0.000000e+00
      outer loop
         vertex 8.686000e+02 6.300002e+00 9.526000e+02
         vertex 8.770981e+02 6.300002e+00 9.521690e+02
         vertex 8.686000e+02 6.300002e+00 8.686000e+02
      endloop
   endfacet
   facet normal 0.000000e+00 1.000000e+00 0.000000e+00
      outer loop
         vertex 8.686000e+02 6.300002e+00 8.686000e+02
         vertex 8.770981e+02 6.300002e+00 9.521690e+02
         vertex 8.855091e+02 6.300002e+00 9.508805e+02
      endloop
   endfacet
   facet normal 0.000000e+00 1.000000e+00 0.000000e+00
      outer loop
         vertex 8.686000e+02 6.300002e+00 8.686000e+02
         vertex 8.855091e+02 6.300002e+00 9.508805e+02
         vertex 8.937465e+02 6.300002e+00 9.487477e+02
      endloop
   endfacet
   facet normal -0.000000e+00 1.000000e+00 0.000000e+00
      outer loop
         vertex 8.434535e+02 6.300002e+00 9.487477e+02
         vertex 8.516909e+02 6.300002e+00 9.508805e+02
         vertex 8.686000e+02 6.300002e+00 8.686000e+02
      endloop
   endfacet
   facet normal 0.000000e+00 1.000000e+00 0.000000e+00
      outer loop
         vertex 8.686000e+02 6.300002e+00 8.686000e+02
         vertex 8.516909e+02 6.300002e+00 9.508805e+02
         vertex 8.601019e+02 6.300002e+00 9.521690e+02
      endloop
   endfacet
   facet normal 0.000000e+00 1.000000e+00 -0.000000e+00
      outer loop
         vertex 8.686000e+02 6.300002e+00 8.686000e+02
         vertex 8.601019e+02 6.300002e+00 9.521690e+02
         vertex 8.686000e+02 6.300002e+00 9.526000e+02
      endloop
   endfacet
   facet normal -0.000000e+00 1.000000e+00 0.000000e+00
      outer loop
         vertex 8.206135e+02 6.300002e+00 9.375441e+02
         vertex 8.278346e+02 6.300002e+00 9.420451e+02
         vertex 8.686000e+02 6.300002e+00 8.686000e+02
      endloop
   endfacet
   facet normal 0.000000e+00 1.000000e+00 0.000000e+00
      outer loop
         vertex 8.686000e+02 6.300002e+00 8.686000e+02
         vertex 8.278346e+02 6.300002e+00 9.420451e+02
         vertex 8.354741e+02 6.300002e+00 9.457925e+02
      endloop
   endfacet
   facet normal 0.000000e+00 1.000000e+00 0.000000e+00
      outer loop
         vertex 8.686000e+02 6.300002e+00 8.686000e+02
         vertex 8.354741e+02 6.300002e+00 9.457925e+02
         vertex 8.434535e+02 6.300002e+00 9.487477e+02
      endloop
   endfacet
   facet normal -0.000000e+00 1.000000e+00 0.000000e+00
      outer loop
         vertex 8.021749e+02 6.300002e+00 9.200169e+02
         vertex 8.077174e+02 6.300002e+00 9.264732e+02
         vertex 8.686000e+02 6.300002e+00 8.686000e+02
      endloop
   endfacet
   facet normal 0.000000e+00 1.000000e+00 0.000000e+00
      outer loop
         vertex 8.686000e+02 6.300002e+00 8.686000e+02
         vertex 8.077174e+02 6.300002e+00 9.264732e+02
         vertex 8.138847e+02 6.300002e+00 9.323357e+02
      endloop
   endfacet
   facet normal 0.000000e+00 1.000000e+00 0.000000e+00
      outer loop
         vertex 8.686000e+02 6.300002e+00 8.686000e+02
         vertex 8.138847e+02 6.300002e+00 9.323357e+02
         vertex 8.206135e+02 6.300002e+00 9.375441e+02
      endloop
   endfacet
   facet normal -0.000000e+00 1.000000e+00 0.000000e+00
      outer loop
         vertex 7.898288e+02 6.300002e+00 8.977737e+02
         vertex 7.931844e+02 6.300002e+00 9.055931e+02
         vertex 8.686000e+02 6.300002e+00 8.686000e+02
      endloop
   endfacet
   facet normal 0.000000e+00 1.000000e+00 0.000000e+00
      outer loop
         vertex 8.686000e+02 6.300002e+00 8.686000e+02
         vertex 7.931844e+02 6.300002e+00 9.055931e+02
         vertex 7.973139e+02 6.300002e+00 9.130330e+02
      endloop
   endfacet
   facet normal 0.000000e+00 1.000000e+00 0.000000e+00
      outer loop
         vertex 8.686000e+02 6.300002e+00 8.686000e+02
         vertex 7.973139e+02 6.300002e+00 9.130330e+02
         vertex 8.021749e+02 6.300002e+00 9.200169e+02
      endloop
   endfacet
   facet normal -0.000000e+00 1.000000e+00 0.000000e+00
      outer loop
         vertex 7.847078e+02 6.300002e+00 8.728545e+02
         vertex 7.855687e+02 6.300002e+00 8.813199e+02
         vertex 8.686000e+02 6.300002e+00 8.686000e+02
      endloop
   endfacet
   facet normal 0.000000e+00 1.000000e+00 0.000000e+00
      outer loop
         vertex 8.686000e+02 6.300002e+00 8.686000e+02
         vertex 7.855687e+02 6.300002e+00 8.813199e+02
         vertex 7.872815e+02 6.300002e+00 8.896548e+02
      endloop
   endfacet
   facet normal 0.000000e+00 1.000000e+00 0.000000e+00
      outer loop
         vertex 8.686000e+02 6.300002e+00 8.686000e+02
         vertex 7.872815e+02 6.300002e+00 8.896548e+02
         vertex 7.898288e+02 6.300002e+00 8.977737e+02
      endloop
   endfacet
   facet normal 0.000000e+00 1.000000e+00 -0.000000e+00
      outer loop
         vertex 7.872815e+02 6.300002e+00 8.475452e+02
         vertex 7.855687e+02 6.300002e+00 8.558801e+02
         vertex 8.686000e+02 6.300002e+00 8.686000e+02
      endloop
   endfacet
   facet normal 0.000000e+00 1.000000e+00 0.000000e+00
      outer loop
         vertex 8.686000e+02 6.300002e+00 8.686000e+02
         vertex 7.855687e+02 6.300002e+00 8.558801e+02
         vertex 7.847078e+02 6.300002e+00 8.643455e+02
      endloop
   endfacet
   facet normal 0.000000e+00 1.000000e+00 0.000000e+00
      outer loop
         vertex 8.686000e+02 6.300002e+00 8.686000e+02
         vertex 7.847078e+02 6.300002e+00 8.643455e+02
         vertex 7.847078e+02 6.300002e+00 8.728545e+02
      endloop
   endfacet
   facet normal 0.000000e+00 1.000000e+00 -0.000000e+00
      outer loop
         vertex 7.973139e+02 6.300002e+00 8.241670e+02
         vertex 7.931844e+02 6.300002e+00 8.316069e+02
         vertex 8.686000e+02 6.300002e+00 8.686000e+02
      endloop
   endfacet
   facet normal 0.000000e+00 1.000000e+00 0.000000e+00
      outer loop
         vertex 8.686000e+02 6.300002e+00 8.686000e+02
         vertex 7.931844e+02 6.300002e+00 8.316069e+02
         vertex 7.898288e+02 6.300002e+00 8.394264e+02
      endloop
   endfacet
   facet normal 0.000000e+00 1.000000e+00 0.000000e+00
      outer loop
         vertex 8.686000e+02 6.300002e+00 8.686000e+02
         vertex 7.898288e+02 6.300002e+00 8.394264e+02
         vertex 7.872815e+02 6.300002e+00 8.475452e+02
      endloop
   endfacet
   facet normal 0.000000e+00 1.000000e+00 -0.000000e+00
      outer loop
         vertex 8.138847e+02 6.300002e+00 8.048643e+02
         vertex 8.077174e+02 6.300002e+00 8.107268e+02
         vertex 8.686000e+02 6.300002e+00 8.686000e+02
      endloop
   endfacet
   facet normal 0.000000e+00 1.000000e+00 0.000000e+00
      outer loop
         vertex 8.686000e+02 6.300002e+00 8.686000e+02
         vertex 8.077174e+02 6.300002e+00 8.107268e+02
         vertex 8.021749e+02 6.300002e+00 8.171831e+02
      endloop
   endfacet
   facet normal 0.000000e+00 1.000000e+00 0.000000e+00
      outer loop
         vertex 8.686000e+02 6.300002e+00 8.686000e+02
         vertex 8.021749e+02 6.300002e+00 8.171831e+02
         vertex 7.973139e+02 6.300002e+00 8.241670e+02
      endloop
   endfacet
   facet normal 0.000000e+00 1.000000e+00 -0.000000e+00
      outer loop
         vertex 8.354741e+02 6.300002e+00 7.914076e+02
         vertex 8.278346e+02 6.300002e+00 7.951549e+02
         vertex 8.686000e+02 6.300002e+00 8.686000e+02
      endloop
   endfacet
   facet normal 0.000000e+00 1.000000e+00 0.000000e+00
      outer loop
         vertex 8.686000e+02 6.300002e+00 8.686000e+02
         vertex 8.278346e+02 6.300002e+00 7.951549e+02
         vertex 8.206135e+02 6.300002e+00 7.996559e+02
      endloop
   endfacet
   facet normal 0.000000e+00 1.000000e+00 0.000000e+00
      outer loop
         vertex 8.686000e+02 6.300002e+00 8.686000e+02
         vertex 8.206135e+02 6.300002e+00 7.996559e+02
         vertex 8.138847e+02 6.300002e+00 8.048643e+02
      endloop
   endfacet
   facet normal 0.000000e+00 1.000000e+00 -0.000000e+00
      outer loop
         vertex 8.601019e+02 6.300002e+00 7.850310e+02
         vertex 8.516909e+02 6.300002e+00 7.863195e+02
         vertex 8.686000e+02 6.300002e+00 8.686000e+02
      endloop
   endfacet
   facet normal 0.000000e+00 1.000000e+00 0.000000e+00
      outer loop
         vertex 8.686000e+02 6.300002e+00 8.686000e+02
         vertex 8.516909e+02 6.300002e+00 7.863195e+02
         vertex 8.434535e+02 6.300002e+00 7.884523e+02
      endloop
   endfacet
   facet normal 0.000000e+00 1.000000e+00 0.000000e+00
      outer loop
         vertex 8.686000e+02 6.300002e+00 8.686000e+02
         vertex 8.434535e+02 6.300002e+00 7.884523e+02
         vertex 8.354741e+02 6.300002e+00 7.914076e+02
      endloop
   endfacet
   facet normal 5.064941e-02 0.000000e+00 -9.987165e-01
      outer loop
         vertex 8.686000e+02 4.299998e+00 7.846000e+02
         vertex 8.770981e+02 6.300002e+00 7.850310e+02
         vertex 8.770981e+02 4.299998e+00 7.850310e+02
      endloop
   endfacet
   facet normal 1.514272e-01 0.000000e+00 -9.884684e-01
      outer loop
         vertex 8.770981e+02 4.299998e+00 7.850310e+02
         vertex 8.770981e+02 6.300002e+00 7.850310e+02
         vertex 8.855091e+02 6.300002e+00 7.863195e+02
      endloop
   endfacet
   facet normal 1.514272e-01 0.000000e+00 -9.884684e-01
      outer loop
         vertex 8.770981e+02 4.299998e+00 7.850310e+02
         vertex 8.855091e+02 6.300002e+00 7.863195e+02
         vertex 8.855091e+02 4.299998e+00 7.863195e+02
      endloop
   endfacet
   facet normal 2.506526e-01 0.000000e+00 -9.680771e-01
      outer loop
         vertex 8.855091e+02 4.299998e+00 7.863195e+02
         vertex 8.855091e+02 6.300002e+00 7.863195e+02
         vertex 8.937465e+02 6.300002e+00 7.884523e+02
      endloop
   endfacet
   facet normal 2.506526e-01 0.000000e+00 -9.680771e-01
      outer loop
         vertex 8.855091e+02 4.299998e+00 7.863195e+02
         vertex 8.937465e+02 6.300002e+00 7.884523e+02
         vertex 8.937465e+02 4.299998e+00 7.884523e+02
      endloop
   endfacet
   facet normal 3.473054e-01 0.000000e+00 -9.377521e-01
      outer loop
         vertex 8.937465e+02 4.299998e+00 7.884523e+02
         vertex 8.937465e+02 6.300002e+00 7.884523e+02
         vertex 9.017259e+02 6.300002e+00 7.914076e+02
      endloop
   endfacet
   facet normal 3.473054e-01 0.000000e+00 -9.377521e-01
      outer loop
         vertex 8.937465e+02 4.299998e+00 7.884523e+02
         vertex 9.017259e+02 6.300002e+00 7.914076e+02
         vertex 9.017259e+02 4.299998e+00 7.914076e+02
      endloop
   endfacet
   facet normal 4.403939e-01 0.000000e+00 -8.978047e-01
      outer loop
         vertex 9.017259e+02 4.299998e+00 7.914076e+02
         vertex 9.017259e+02 6.300002e+00 7.914076e+02
         vertex 9.093654e+02 6.300002e+00 7.951549e+02
      endloop
   endfacet
   facet normal 4.403939e-01 0.000000e+00 -8.978047e-01
      outer loop
         vertex 9.017259e+02 4.299998e+00 7.914076e+02
         vertex 9.093654e+02 6.300002e+00 7.951549e+02
         vertex 9.093654e+02 4.299998e+00 7.951549e+02
      endloop
   endfacet
   facet normal 5.289645e-01 0.000000e+00 -8.486440e-01
      outer loop
         vertex 9.093654e+02 4.299998e+00 7.951549e+02
         vertex 9.093654e+02 6.300002e+00 7.951549e+02
         vertex 9.165865e+02 6.300002e+00 7.996559e+02
      endloop
   endfacet
   facet normal 5.289645e-01 0.000000e+00 -8.486440e-01
      outer loop
         vertex 9.093654e+02 4.299998e+00 7.951549e+02
         vertex 9.165865e+02 6.300002e+00 7.996559e+02
         vertex 9.165865e+02 4.299998e+00 7.996559e+02
      endloop
   endfacet
   facet normal 6.121061e-01 0.000000e+00 -7.907756e-01
      outer loop
         vertex 9.165865e+02 4.299998e+00 7.996559e+02
         vertex 9.165865e+02 6.300002e+00 7.996559e+02
         vertex 9.233153e+02 6.300002e+00 8.048643e+02
      endloop
   endfacet
   facet normal 6.121061e-01 0.000000e+00 -7.907756e-01
      outer loop
         vertex 9.165865e+02 4.299998e+00 7.996559e+02
         vertex 9.233153e+02 6.300002e+00 8.048643e+02
         vertex 9.233153e+02 4.299998e+00 8.048643e+02
      endloop
   endfacet
   facet normal 6.889665e-01 0.000000e+00 -7.247932e-01
      outer loop
         vertex 9.233153e+02 4.299998e+00 8.048643e+02
         vertex 9.233153e+02 6.300002e+00 8.048643e+02
         vertex 9.294826e+02 6.300002e+00 8.107268e+02
      endloop
   endfacet
   facet normal 6.889665e-01 0.000000e+00 -7.247932e-01
      outer loop
         vertex 9.233153e+02 4.299998e+00 8.048643e+02
         vertex 9.294826e+02 6.300002e+00 8.107268e+02
         vertex 9.294826e+02 4.299998e+00 8.107268e+02
      endloop
   endfacet
   facet normal 7.587583e-01 0.000000e+00 -6.513723e-01
      outer loop
         vertex 9.294826e+02 4.299998e+00 8.107268e+02
         vertex 9.294826e+02 6.300002e+00 8.107268e+02
         vertex 9.350252e+02 6.300002e+00 8.171831e+02
      endloop
   endfacet
   facet normal 7.587583e-01 0.000000e+00 -6.513723e-01
      outer loop
         vertex 9.294826e+02 4.299998e+00 8.107268e+02
         vertex 9.350252e+02 6.300002e+00 8.171831e+02
         vertex 9.350252e+02 4.299998e+00 8.171831e+02
      endloop
   endfacet
   facet normal 8.207633e-01 0.000000e+00 -5.712684e-01
      outer loop
         vertex 9.350252e+02 4.299998e+00 8.171831e+02
         vertex 9.350252e+02 6.300002e+00 8.171831e+02
         vertex 9.398861e+02 6.300002e+00 8.241670e+02
      endloop
   endfacet
   facet normal 8.207633e-01 0.000000e+00 -5.712684e-01
      outer loop
         vertex 9.350252e+02 4.299998e+00 8.171831e+02
         vertex 9.398861e+02 6.300002e+00 8.241670e+02
         vertex 9.398861e+02 4.299998e+00 8.241670e+02
      endloop
   endfacet
   facet normal 8.743467e-01 0.000000e+00 -4.853019e-01
      outer loop
         vertex 9.398861e+02 4.299998e+00 8.241670e+02
         vertex 9.398861e+02 6.300002e+00 8.241670e+02
         vertex 9.440156e+02 6.300002e+00 8.316069e+02
      endloop
   endfacet
   facet normal 8.743467e-01 0.000000e+00 -4.853019e-01
      outer loop
         vertex 9.398861e+02 4.299998e+00 8.241670e+02
         vertex 9.440156e+02 6.300002e+00 8.316069e+02
         vertex 9.440156e+02 4.299998e+00 8.316069e+02
      endloop
   endfacet
   facet normal 9.189577e-01 0.000000e+00 -3.943560e-01
      outer loop
         vertex 9.440156e+02 4.299998e+00 8.316069e+02
         vertex 9.440156e+02 6.300002e+00 8.316069e+02
         vertex 9.473712e+02 6.300002e+00 8.394264e+02
      endloop
   endfacet
   facet normal 9.189577e-01 0.000000e+00 -3.943560e-01
      outer loop
         vertex 9.440156e+02 4.299998e+00 8.316069e+02
         vertex 9.473712e+02 6.300002e+00 8.394264e+02
         vertex 9.473712e+02 4.299998e+00 8.394264e+02
      endloop
   endfacet
   facet normal 9.541394e-01 0.000000e+00 -2.993626e-01
      outer loop
         vertex 9.473712e+02 4.299998e+00 8.394264e+02
         vertex 9.473712e+02 6.300002e+00 8.394264e+02
         vertex 9.499185e+02 6.300002e+00 8.475452e+02
      endloop
   endfacet
   facet normal 9.541394e-01 0.000000e+00 -2.993626e-01
      outer loop
         vertex 9.473712e+02 4.299998e+00 8.394264e+02
         vertex 9.499185e+02 6.300002e+00 8.475452e+02
         vertex 9.499185e+02 4.299998e+00 8.475452e+02
      endloop
   endfacet
   facet normal 9.795298e-01 0.000000e+00 -2.012990e-01
      outer loop
         vertex 9.499185e+02 4.299998e+00 8.475452e+02
         vertex 9.499185e+02 6.300002e+00 8.475452e+02
         vertex 9.516314e+02 6.300002e+00 8.558801e+02
      endloop
   endfacet
   facet normal 9.795298e-01 0.000000e+00 -2.012990e-01
      outer loop
         vertex 9.499185e+02 4.299998e+00 8.475452e+02
         vertex 9.516314e+02 6.300002e+00 8.558801e+02
         vertex 9.516314e+02 4.299998e+00 8.558801e+02
      endloop
   endfacet
   facet normal 9.948693e-01 0.000000e+00 -1.011683e-01
      outer loop
         vertex 9.516314e+02 4.299998e+00 8.558801e+02
         vertex 9.516314e+02 6.300002e+00 8.558801e+02
         vertex 9.524922e+02 6.300002e+00 8.643455e+02
      endloop
   endfacet
   facet normal 9.948693e-01 0.000000e+00 -1.011683e-01
      outer loop
         vertex 9.516314e+02 4.299998e+00 8.558801e+02
         vertex 9.524922e+02 6.300002e+00 8.643455e+02
         vertex 9.524922e+02 4.299998e+00 8.643455e+02
      endloop
   endfacet
   facet normal 1.000000e+00 0.000000e+00 0.000000e+00
      outer loop
         vertex 9.524922e+02 4.299998e+00 8.643455e+02
         vertex 9.524922e+02 6.300002e+00 8.643455e+02
         vertex 9.524922e+02 6.300002e+00 8.728545e+02
      endloop
   endfacet
   facet normal 1.000000e+00 0.000000e+00 0.000000e+00
      outer loop
         vertex 9.524922e+02 4.299998e+00 8.643455e+02
         vertex 9.524922e+02 6.300002e+00 8.728545e+02
         vertex 9.524922e+02 4.299998e+00 8.728545e+02
      endloop
   endfacet
   facet normal 9.948693e-01 -0.000000e+00 1.011683e-01
      outer loop
         vertex 9.524922e+02 4.299998e+00 8.728545e+02
         vertex 9.524922e+02 6.300002e+00 8.728545e+02
         vertex 9.516314e+02 6.300002e+00 8.813199e+02
      endloop
   endfacet
   facet normal 9.948693e-01 0.000000e+00 1.011683e-01
      outer loop
         vertex 9.524922e+02 4.299998e+00 8.728545e+02
         vertex 9.516314e+02 6.300002e+00 8.813199e+02
         vertex 9.516314e+02 4.299998e+00 8.813199e+02
      endloop
   endfacet
   facet normal 9.795298e-01 -0.000000e+00 2.012990e-01
      outer loop
         vertex 9.516314e+02 4.299998e+00 8.813199e+02
         vertex 9.516314e+02 6.300002e+00 8.813199e+02
         vertex 9.499185e+02 6.300002e+00 8.896548e+02
      endloop
   endfacet
   facet normal 9.795298e-01 0.000000e+00 2.012990e-01
      outer loop
         vertex 9.516314e+02 4.299998e+00 8.813199e+02
         vertex 9.499185e+02 6.300002e+00 8.896548e+02
         vertex 9.499185e+02 4.299998e+00 8.896548e+02
      endloop
   endfacet
   facet normal 9.541394e-01 -0.000000e+00 2.993626e-01
      outer loop
         vertex 9.499185e+02 4.299998e+00 8.896548e+02
         vertex 9.499185e+02 6.300002e+00 8.896548e+02
         vertex 9.473712e+02 6.300002e+00 8.977737e+02
      endloop
   endfacet
   facet normal 9.541394e-01 0.000000e+00 2.993626e-01
      outer loop
         vertex 9.499185e+02 4.299998e+00 8.896548e+02
         vertex 9.473712e+02 6.300002e+00 8.977737e+02
         vertex 9.473712e+02 4.299998e+00 8.977737e+02
      endloop
   endfacet
   facet normal 9.189577e-01 -0.000000e+00 3.943560e-01
      outer loop
         vertex 9.473712e+02 4.299998e+00 8.977737e+02
         vertex 9.473712e+02 6.300002e+00 8.977737e+02
         vertex 9.440156e+02 6.300002e+00 9.055931e+02
      endloop
   endfacet
   facet normal 9.189577e-01 0.000000e+00 3.943560e-01
      outer loop
         vertex 9.473712e+02 4.299998e+00 8.977737e+02
         vertex 9.440156e+02 6.300002e+00 9.055931e+02
         vertex 9.440156e+02 4.299998e+00 9.055931e+02
      endloop
   endfacet
   facet normal 8.743467e-01 -0.000000e+00 4.853019e-01
      outer loop
         vertex 9.440156e+02 4.299998e+00 9.055931e+02
         vertex 9.440156e+02 6.300002e+00 9.055931e+02
         vertex 9.398861e+02 6.300002e+00 9.130330e+02
      endloop
   endfacet
   facet normal 8.743467e-01 0.000000e+00 4.853019e-01
      outer loop
         vertex 9.440156e+02 4.299998e+00 9.055931e+02
         vertex 9.398861e+02 6.300002e+00 9.130330e+02
         vertex 9.398861e+02 4.299998e+00 9.130330e+02
      endloop
   endfacet
   facet normal 8.207633e-01 -0.000000e+00 5.712684e-01
      outer loop
         vertex 9.398861e+02 4.299998e+00 9.130330e+02
         vertex 9.398861e+02 6.300002e+00 9.130330e+02
         vertex 9.350252e+02 6.300002e+00 9.200169e+02
      endloop
   endfacet
   facet normal 8.207633e-01 0.000000e+00 5.712684e-01
      outer loop
         vertex 9.398861e+02 4.299998e+00 9.130330e+02
         vertex 9.350252e+02 6.300002e+00 9.200169e+02
         vertex 9.350252e+02 4.299998e+00 9.200169e+02
      endloop
   endfacet
   facet normal 7.587583e-01 -0.000000e+00 6.513723e-01
      outer loop
         vertex 9.350252e+02 4.299998e+00 9.200169e+02
         vertex 9.350252e+02 6.300002e+00 9.200169e+02
         vertex 9.294826e+02 6.300002e+00 9.264732e+02
      endloop
   endfacet
   facet normal 7.587583e-01 0.000000e+00 6.513723e-01
      outer loop
         vertex 9.350252e+02 4.299998e+00 9.200169e+02
         vertex 9.294826e+02 6.300002e+00 9.264732e+02
         vertex 9.294826e+02 4.299998e+00 9.264732e+02
      endloop
   endfacet
   facet normal 6.889665e-01 -0.000000e+00 7.247932e-01
      outer loop
         vertex 9.294826e+02 4.299998e+00 9.264732e+02
         vertex 9.294826e+02 6.300002e+00 9.264732e+02
         vertex 9.233153e+02 6.300002e+00 9.323357e+02
      endloop
   endfacet
   facet normal 6.889665e-01 0.000000e+00 7.247932e-01
      outer loop
         vertex 9.294826e+02 4.299998e+00 9.264732e+02
         vertex 9.233153e+02 6.300002e+00 9.323357e+02
         vertex 9.233153e+02 4.299998e+00 9.323357e+02
      endloop
   endfacet
   facet normal 6.121061e-01 -0.000000e+00 7.907756e-01
      outer loop
         vertex 9.233153e+02 4.299998e+00 9.323357e+02
         vertex 9.233153e+02 6.300002e+00 9.323357e+02
         vertex 9.165865e+02 6.300002e+00 9.375441e+02
      endloop
   endfacet
   facet normal 6.121061e-01 0.000000e+00 7.907756e-01
      outer loop
         vertex 9.233153e+02 4.299998e+00 9.323357e+02
         vertex 9.165865e+02 6.300002e+00 9.375441e+02
         vertex 9.165865e+02 4.299998e+00 9.375441e+02
      endloop
   endfacet
   facet normal 5.289645e-01 -0.000000e+00 8.486440e-01
      outer loop
         vertex 9.165865e+02 4.299998e+00 9.375441e+02
         vertex 9.165865e+02 6.300002e+00 9.375441e+02
         vertex 9.093654e+02 6.300002e+00 9.420451e+02
      endloop
   endfacet
   facet normal 5.289645e-01 0.000000e+00 8.486440e-01
      outer loop
         vertex 9.165865e+02 4.299998e+00 9.375441e+02
         vertex 9.093654e+02 6.300002e+00 9.420451e+02
         vertex 9.093654e+02 4.299998e+00 9.420451e+02
      endloop
   endfacet
   facet normal 4.403939e-01 -0.000000e+00 8.978047e-01
      outer loop
         vertex 9.093654e+02 4.299998e+00 9.420451e+02
         vertex 9.093654e+02 6.300002e+00 9.420451e+02
         vertex 9.017259e+02 6.300002e+00 9.457925e+02
      endloop
   endfacet
   facet normal 4.403939e-01 0.000000e+00 8.978047e-01
      outer loop
         vertex 9.093654e+02 4.299998e+00 9.420451e+02
         vertex 9.017259e+02 6.300002e+00 9.457925e+02
         vertex 9.017259e+02 4.299998e+00 9.457925e+02
      endloop
   endfacet
   facet normal 3.473054e-01 -0.000000e+00 9.377521e-01
      outer loop
         vertex 9.017259e+02 4.299998e+00 9.457925e+02
         vertex 9.017259e+02 6.300002e+00 9.457925e+02
         vertex 8.937465e+02 6.300002e+00 9.487477e+02
      endloop
   endfacet
   facet normal 3.473054e-01 0.000000e+00 9.377521e-01
      outer loop
         vertex 9.017259e+02 4.299998e+00 9.457925e+02
         vertex 8.937465e+02 6.300002e+00 9.487477e+02
         vertex 8.937465e+02 4.299998e+00 9.487477e+02
      endloop
   endfacet
   facet normal 2.506526e-01 -0.000000e+00 9.680771e-01
      outer loop
         vertex 8.937465e+02 4.299998e+00 9.487477e+02
         vertex 8.937465e+02 6.300002e+00 9.487477e+02
         vertex 8.855091e+02 6.300002e+00 9.508805e+02
      endloop
   endfacet
   facet normal 2.506526e-01 0.000000e+00 9.680771e-01
      outer loop
         vertex 8.937465e+02 4.299998e+00 9.487477e+02
         vertex 8.855091e+02 6.300002e+00 9.508805e+02
         vertex 8.855091e+02 4.299998e+00 9.508805e+02
      endloop
   endfacet
   facet normal 1.514272e-01 -0.000000e+00 9.884684e-01
      outer loop
         vertex 8.855091e+02 4.299998e+00 9.508805e+02
         vertex 8.855091e+02 6.300002e+00 9.508805e+02
         vertex 8.770981e+02 6.300002e+00 9.521690e+02
      endloop
   endfacet
   facet normal 1.514272e-01 0.000000e+00 9.884684e-01
      outer loop
         vertex 8.855091e+02 4.299998e+00 9.508805e+02
         vertex 8.770981e+02 6.300002e+00 9.521690e+02
         vertex 8.770981e+02 4.299998e+00 9.521690e+02
      endloop
   endfacet
   facet normal 5.064941e-02 -0.000000e+00 9.987165e-01
      outer loop
         vertex 8.770981e+02 4.299998e+00 9.521690e+02
         vertex 8.770981e+02 6.300002e+00 9.521690e+02
         vertex 8.686000e+02 6.300002e+00 9.526000e+02
      endloop
   endfacet
   facet normal 5.064941e-02 0.000000e+00 9.987165e-01
      outer loop
         vertex 8.770981e+02 4.299998e+00 9.521690e+02
         vertex 8.686000e+02 6.300002e+00 9.526000e+02
         vertex 8.686000e+02 4.299998e+00 9.526000e+02
      endloop
   endfacet
   facet normal -5.064941e-02 0.000000e+00 9.987165e-01
      outer loop
         vertex 8.686000e+02 4.299998e+00 9.526000e+02
         vertex 8.686000e+02 6.300002e+00 9.526000e+02
         vertex 8.601019e+02 6.300002e+00 9.521690e+02
      endloop
   endfacet
   facet normal -5.064941e-02 0.000000e+00 9.987165e-01
      outer loop
         vertex 8.686000e+02 4.299998e+00 9.526000e+02
         vertex 8.601019e+02 6.300002e+00 9.521690e+02
         vertex 8.601019e+02 4.299998e+00 9.521690e+02
      endloop
   endfacet
   facet normal -1.514272e-01 0.000000e+00 9.884684e-01
      outer loop
         vertex 8.601019e+02 4.299998e+00 9.521690e+02
         vertex 8.601019e+02 6.300002e+00 9.521690e+02
         vertex 8.516909e+02 6.300002e+00 9.508805e+02
      endloop
   endfacet
   facet normal -1.514272e-01 0.000000e+00 9.884684e-01
      outer loop
         vertex 8.601019e+02 4.299998e+00 9.521690e+02
         vertex 8.516909e+02 6.300002e+00 9.508805e+02
         vertex 8.516909e+02 4.299998e+00 9.508805e+02
      endloop
   endfacet
   facet normal -2.506526e-01 0.000000e+00 9.680771e-01
      outer loop
         vertex 8.516909e+02 4.299998e+00 9.508805e+02
         vertex 8.516909e+02 6.300002e+00 9.508805e+02
         vertex 8.434535e+02 6.300002e+00 9.487477e+02
      endloop
   endfacet
   facet normal -2.506526e-01 0.000000e+00 9.680771e-01
      outer loop
         vertex 8.516909e+02 4.299998e+00 9.508805e+02
         vertex 8.434535e+02 6.300002e+00 9.487477e+02
         vertex 8.434535e+02 4.299998e+00 9.487477e+02
      endloop
   endfacet
   facet normal -3.473054e-01 0.000000e+00 9.377521e-01
      outer loop
         vertex 8.434535e+02 4.299998e+00 9.487477e+02
         vertex 8.434535e+02 6.300002e+00 9.487477e+02
         vertex 8.354741e+02 6.300002e+00 9.457925e+02
      endloop
   endfacet
   facet normal -3.473054e-01 0.000000e+00 9.377521e-01
      outer loop
         vertex 8.434535e+02 4.299998e+00 9.487477e+02
         vertex 8.354741e+02 6.300002e+00 9.457925e+02
         vertex 8.354741e+02 4.299998e+00 9.457925e+02
      endloop
   endfacet
   facet normal -4.403939e-01 0.000000e+00 8.978047e-01
      outer loop
         vertex 8.354741e+02 4.299998e+00 9.457925e+02
         vertex 8.354741e+02 6.300002e+00 9.457925e+02
         vertex 8.278346e+02 6.300002e+00 9.420451e+02
      endloop
   endfacet
   facet normal -4.403939e-01 0.000000e+00 8.978047e-01
      outer loop
         vertex 8.354741e+02 4.299998e+00 9.457925e+02
         vertex 8.278346e+02 6.300002e+00 9.420451e+02
         vertex 8.278346e+02 4.299998e+00 9.420451e+02
      endloop
   endfacet
   facet normal -5.289645e-01 0.000000e+00 8.486440e-01
      outer loop
         vertex 8.278346e+02 4.299998e+00 9.420451e+02
         vertex 8.278346e+02 6.300002e+00 9.420451e+02
         vertex 8.206135e+02 6.300002e+00 9.375441e+02
      endloop
   endfacet
   facet normal -5.289645e-01 0.000000e+00 8.486440e-01
      outer loop
         vertex 8.278346e+02 4.299998e+00 9.420451e+02
         vertex 8.206135e+02 6.300002e+00 9.375441e+02
         vertex 8.206135e+02 4.299998e+00 9.375441e+02
      endloop
   endfacet
   facet normal -6.121061e-01 0.000000e+00 7.907756e-01
      outer loop
         vertex 8.206135e+02 4.299998e+00 9.375441e+02
         vertex 8.206135e+02 6.300002e+00 9.375441e+02
         vertex 8.138847e+02 6.300002e+00 9.323357e+02
      endloop
   endfacet
   facet normal -6.121061e-01 0.000000e+00 7.907756e-01
      outer loop
         vertex 8.206135e+02 4.299998e+00 9.375441e+02
         vertex 8.138847e+02 6.300002e+00 9.323357e+02
         vertex 8.138847e+02 4.299998e+00 9.323357e+02
      endloop
   endfacet
   facet normal -6.889665e-01 0.000000e+00 7.247932e-01
      outer loop
         vertex 8.138847e+02 4.299998e+00 9.323357e+02
         vertex 8.138847e+02 6.300002e+00 9.323357e+02
         vertex 8.077174e+02 6.300002e+00 9.264732e+02
      endloop
   endfacet
   facet normal -6.889665e-01 0.000000e+00 7.247932e-01
      outer loop
         vertex 8.138847e+02 4.299998e+00 9.323357e+02
         vertex 8.077174e+02 6.300002e+00 9.264732e+02
         vertex 8.077174e+02 4.299998e+00 9.264732e+02
      endloop
   endfacet
   facet normal -7.587583e-01 0.000000e+00 6.513723e-01
      outer loop
         vertex 8.077174e+02 4.299998e+00 9.264732e+02
         vertex 8.077174e+02 6.300002e+00 9.264732e+02
         vertex 8.021749e+02 6.300002e+00 9.200169e+02
      endloop
   endfacet
   facet normal -7.587583e-01 0.000000e+00 6.513723e-01
      outer loop
         vertex 8.077174e+02 4.299998e+00 9.264732e+02
         vertex 8.021749e+02 6.300002e+00 9.200169e+02
         vertex 8.021749e+02 4.299998e+00 9.200169e+02
      endloop
   endfacet
   facet normal -8.207633e-01 0.000000e+00 5.712684e-01
      outer loop
         vertex 8.021749e+02 4.299998e+00 9.200169e+02
         vertex 8.021749e+02 6.300002e+00 9.200169e+02
         vertex 7.973139e+02 6.300002e+00 9.130330e+02
      endloop
   endfacet
   facet normal -8.207633e-01 0.000000e+00 5.712684e-01
      outer loop
         vertex 8.021749e+02 4.299998e+00 9.200169e+02
         vertex 7.973139e+02 6.300002e+00 9.130330e+02
         vertex 7.973139e+02 4.299998e+00 9.130330e+02
      endloop
   endfacet
   facet normal -8.743467e-01 0.000000e+00 4.853019e-01
      outer loop
         vertex 7.973139e+02 4.299998e+00 9.130330e+02
         vertex 7.973139e+02 6.300002e+00 9.130330e+02
         vertex 7.931844e+02 6.300002e+00 9.055931e+02
      endloop
   endfacet
   facet normal -8.743467e-01 0.000000e+00 4.853019e-01
      outer loop
         vertex 7.973139e+02 4.299998e+00 9.130330e+02
         vertex 7.931844e+02 6.300002e+00 9.055931e+02
         vertex 7.931844e+02 4.299998e+00 9.055931e+02
      endloop
   endfacet
   facet normal -9.189577e-01 0.000000e+00 3.943560e-01
      outer loop
         vertex 7.931844e+02 4.299998e+00 9.055931e+02
         vertex 7.931844e+02 6.300002e+00 9.055931e+02
         vertex 7.898288e+02 6.300002e+00 8.977737e+02
      endloop
   endfacet
   facet normal -9.189577e-01 0.000000e+00 3.943560e-01
      outer loop
         vertex 7.931844e+02 4.299998e+00 9.055931e+02
         vertex 7.898288e+02 6.300002e+00 8.977737e+02
         vertex 7.898288e+02 4.299998e+00 8.977737e+02
      endloop
   endfacet
   facet normal -9.541394e-01 0.000000e+00 2.993626e-01
      outer loop
         vertex 7.898288e+02 4.299998e+00 8.977737e+02
         vertex 7.898288e+02 6.300002e+00 8.977737e+02
         vertex 7.872815e+02 6.300002e+00 8.896548e+02
      endloop
   endfacet
   facet normal -9.541394e-01 0.000000e+00 2.993626e-01
      outer loop
         vertex 7.898288e+02 4.299998e+00 8.977737e+02
         vertex 7.872815e+02 6.300002e+00 8.896548e+02
         vertex 7.872815e+02 4.299998e+00 8.896548e+02
      endloop
   endfacet
   facet normal -9.795298e-01 0.000000e+00 2.012990e-01
      outer loop
         vertex 7.872815e+02 4.299998e+00 8.896548e+02
         vertex 7.872815e+02 6.300002e+00 8.896548e+02
         vertex 7.855687e+02 6.300002e+00 8.813199e+02
      endloop
   endfacet
   facet normal -9.795298e-01 0.000000e+00 2.012990e-01
      outer loop
         vertex 7.872815e+02 4.299998e+00 8.896548e+02
         vertex 7.855687e+02 6.300002e+00 8.813199e+02
         vertex 7.855687e+02 4.299998e+00 8.813199e+02
      endloop
   endfacet
   facet normal -9.948693e-01 0.000000e+00 1.011683e-01
      outer loop
         vertex 7.855687e+02 4.299998e+00 8.813199e+02
         vertex 7.855687e+02 6.300002e+00 8.813199e+02
         vertex 7.847078e+02 6.300002e+00 8.728545e+02
      endloop
   endfacet
   facet normal -9.948693e-01 0.000000e+00 1.011683e-01
      outer loop
         vertex 7.855687e+02 4.299998e+00 8.813199e+02
         vertex 7.847078e+02 6.300002e+00 8.728545e+02
         vertex 7.847078e+02 4.299998e+00 8.728545e+02
      endloop
   endfacet
   facet normal -1.000000e+00 0.000000e+00 0.000000e+00
      outer loop
         vertex 7.847078e+02 4.299998e+00 8.728545e+02
         vertex 7.847078e+02 6.300002e+00 8.728545e+02
         vertex 7.847078e+02 6.300002e+00 8.643455e+02
      endloop
   endfacet
   facet normal -1.000000e+00 0.000000e+00 0.000000e+00
      outer loop
         vertex 7.847078e+02 4.299998e+00 8.728545e+02
         vertex 7.847078e+02 6.300002e+00 8.643455e+02
         vertex 7.847078e+02 4.299998e+00 8.643455e+02
      endloop
   endfacet
   facet normal -9.948693e-01 0.000000e+00 -1.011683e-01
      outer loop
         vertex 7.847078e+02 4.299998e+00 8.643455e+02
         vertex 7.847078e+02 6.300002e+00 8.643455e+02
         vertex 7.855687e+02 6.300002e+00 8.558801e+02
      endloop
   endfacet
   facet normal -9.948693e-01 0.000000e+00 -1.011683e-01
      outer loop
         vertex 7.847078e+02 4.299998e+00 8.643455e+02
         vertex 7.855687e+02 6.300002e+00 8.558801e+02
         vertex 7.855687e+02 4.299998e+00 8.558801e+02
      endloop
   endfacet
   facet normal -9.795298e-01 0.000000e+00 -2.012990e-01
      outer loop
         vertex 7.855687e+02 4.299998e+00 8.558801e+02
         vertex 7.855687e+02 6.300002e+00 8.558801e+02
         vertex 7.872815e+02 6.300002e+00 8.475452e+02
      endloop
   endfacet
   facet normal -9.795298e-01 0.000000e+00 -2.012990e-01
      outer loop
         vertex 7.855687e+02 4.299998e+00 8.558801e+02
         vertex 7.872815e+02 6.300002e+00 8.475452e+02
         vertex 7.872815e+02 4.299998e+00 8.475452e+02
      endloop
   endfacet
   facet normal -9.541394e-01 0.000000e+00 -2.993626e-01
      outer loop
         vertex 7.872815e+02 4.299998e+00 8.475452e+02
         vertex 7.872815e+02 6.300002e+00 8.475452e+02
         vertex 7.898288e+02 6.300002e+00 8.394264e+02
      endloop
   endfacet
   facet normal -9.541394e-01 0.000000e+00 -2.993626e-01
      outer loop
         vertex 7.872815e+02 4.299998e+00 8.475452e+02
         vertex 7.898288e+02 6.300002e+00 8.394264e+02
         vertex 7.898288e+02 4.299998e+00 8.394264e+02
      endloop
   endfacet
   facet normal -9.189577e-01 0.000000e+00 -3.943560e-01
      outer loop
         vertex 7.898288e+02 4.299998e+00 8.394264e+02
         vertex 7.898288e+02 6.300002e+00 8.394264e+02
         vertex 7.931844e+02 6.300002e+00 8.316069e+02
      endloop
   endfacet
   facet normal -9.189577e-01 0.000000e+00 -3.943560e-01
      outer loop
         vertex 7.898288e+02 4.299998e+00 8.394264e+02
         vertex 7.931844e+02 6.300002e+00 8.316069e+02
         vertex 7.931844e+02 4.299998e+00 8.316069e+02
      endloop
   endfacet
   facet normal -8.743467e-01 0.000000e+00 -4.853019e-01
      outer loop
         vertex 7.931844e+02 4.299998e+00 8.316069e+02
         vertex 7.931844e+02 6.300002e+00 8.316069e+02
         vertex 7.973139e+02 6.300002e+00 8.241670e+02
      endloop
   endfacet
   facet normal -8.743467e-01 0.000000e+00 -4.853019e-01
      outer loop
         vertex 7.931844e+02 4.299998e+00 8.316069e+02
         vertex 7.973139e+02 6.300002e+00 8.241670e+02
         vertex 7.973139e+02 4.299998e+00 8.241670e+02
      endloop
   endfacet
   facet normal -8.207633e-01 0.000000e+00 -5.712684e-01
      outer loop
         vertex 7.973139e+02 4.299998e+00 8.241670e+02
         vertex 7.973139e+02 6.300002e+00 8.241670e+02
         vertex 8.021749e+02 6.300002e+00 8.171831e+02
      endloop
   endfacet
   facet normal -8.207633e-01 0.000000e+00 -5.712684e-01
      outer loop
         vertex 7.973139e+02 4.299998e+00 8.241670e+02
         vertex 8.021749e+02 6.300002e+00 8.171831e+02
         vertex 8.021749e+02 4.299998e+00 8.171831e+02
      endloop
   endfacet
   facet normal -7.587583e-01 0.000000e+00 -6.513723e-01
      outer loop
         vertex 8.021749e+02 4.299998e+00 8.171831e+02
         vertex 8.021749e+02 6.300002e+00 8.171831e+02
         vertex 8.077174e+02 6.300002e+00 8.107268e+02
      endloop
   endfacet
   facet normal -7.587583e-01 0.000000e+00 -6.513723e-01
      outer loop
         vertex 8.021749e+02 4.299998e+00 8.171831e+02
         vertex 8.077174e+02 6.300002e+00 8.107268e+02
         vertex 8.077174e+02 4.299998e+00 8.107268e+02
      endloop
   endfacet
   facet normal -6.889665e-01 0.000000e+00 -7.247932e-01
      outer loop
         vertex 8.077174e+02 4.299998e+00 8.107268e+02
         vertex 8.077174e+02 6.300002e+00 8.107268e+02
         vertex 8.138847e+02 6.300002e+00 8.048643e+02
      endloop
   endfacet
   facet normal -6.889665e-01 0.000000e+00 -7.247932e-01
      outer loop
         vertex 8.077174e+02 4.299998e+00 8.107268e+02
         vertex 8.138847e+02 6.300002e+00 8.048643e+02
         vertex 8.138847e+02 4.299998e+00 8.048643e+02
      endloop
   endfacet
   facet normal -6.121061e-01 0.000000e+00 -7.907756e-01
      outer loop
         vertex 8.138847e+02 4.299998e+00 8.048643e+02
         vertex 8.138847e+02 6.300002e+00 8.048643e+02
         vertex 8.206135e+02 6.300002e+00 7.996559e+02
      endloop
   endfacet
   facet normal -6.121061e-01 0.000000e+00 -7.907756e-01
      outer loop
         vertex 8.138847e+02 4.299998e+00 8.048643e+02
         vertex 8.206135e+02 6.300002e+00 7.996559e+02
         vertex 8.206135e+02 4.299998e+00 7.996559e+02
      endloop
   endfacet
   facet normal -5.289645e-01 0.000000e+00 -8.486440e-01
      outer loop
         vertex 8.206135e+02 4.299998e+00 7.996559e+02
         vertex 8.206135e+02 6.300002e+00 7.996559e+02
         vertex 8.278346e+02 6.300002e+00 7.951549e+02
      endloop
   endfacet
   facet normal -5.289645e-01 0.000000e+00 -8.486440e-01
      outer loop
         vertex 8.206135e+02 4.299998e+00 7.996559e+02
         vertex 8.278346e+02 6.300002e+00 7.951549e+02
         vertex 8.278346e+02 4.299998e+00 7.951549e+02
      endloop
   endfacet
   facet normal -4.403939e-01 0.000000e+00 -8.978047e-01
      outer loop
         vertex 8.278346e+02 4.299998e+00 7.951549e+02
         vertex 8.278346e+02 6.300002e+00 7.951549e+02
         vertex 8.354741e+02 6.300002e+00 7.914076e+02
      endloop
   endfacet
   facet normal -4.403939e-01 0.000000e+00 -8.978047e-01
      outer loop
         vertex 8.278346e+02 4.299998e+00 7.951549e+02
         vertex 8.354741e+02 6.300002e+00 7.914076e+02
         vertex 8.354741e+02 4.299998e+00 7.914076e+02
      endloop
   endfacet
   facet normal -3.473054e-01 0.000000e+00 -9.377521e-01
      outer loop
         vertex 8.354741e+02 4.299998e+00 7.914076e+02
         vertex 8.354741e+02 6.300002e+00 7.914076e+02
         vertex 8.434535e+02 6.300002e+00 7.884523e+02
      endloop
   endfacet
   facet normal -3.473054e-01 0.000000e+00 -9.377521e-01
      outer loop
         vertex 8.354741e+02 4.299998e+00 7.914076e+02
         vertex 8.434535e+02 6.300002e+00 7.884523e+02
         vertex 8.434535e+02 4.299998e+00 7.884523e+02
      endloop
   endfacet
   facet normal -2.506526e-01 0.000000e+00 -9.680771e-01
      outer loop
         vertex 8.434535e+02 4.299998e+00 7.884523e+02
         vertex 8.434535e+02 6.300002e+00 7.884523e+02
         vertex 8.516909e+02 6.300002e+00 7.863195e+02
      endloop
   endfacet
   facet normal -2.506526e-01 0.000000e+00 -9.680771e-01
      outer loop
         vertex 8.434535e+02 4.299998e+00 7.884523e+02
         vertex 8.516909e+02 6.300002e+00 7.863195e+02
         vertex 8.516909e+02 4.299998e+00 7.863195e+02
      endloop
   endfacet
   facet normal -1.514272e-01 0.000000e+00 -9.884684e-01
      outer loop
         vertex 8.516909e+02 4.299998e+00 7.863195e+02
         vertex 8.516909e+02 6.300002e+00 7.863195e+02
         vertex 8.601019e+02 6.300002e+00 7.850310e+02
      endloop
   endfacet
   facet normal -1.514272e-01 0.000000e+00 -9.884684e-01
      outer loop
         vertex 8.516909e+02 4.299998e+00 7.863195e+02
         vertex 8.601019e+02 6.300002e+00 7.850310e+02
         vertex 8.601019e+02 4.299998e+00 7.850310e+02
      endloop
   endfacet
   facet normal -5.064941e-02 0.000000e+00 -9.987165e-01
      outer loop
         vertex 8.601019e+02 4.299998e+00 7.850310e+02
         vertex 8.601019e+02 6.300002e+00 7.850310e+02
         vertex 8.686000e+02 6.300002e+00 7.846000e+02
      endloop
   endfacet
   facet normal -5.064941e-02 0.000000e+00 -9.987165e-01
      outer loop
         vertex 8.601019e+02 4.299998e+00 7.850310e+02
         vertex 8.686000e+02 6.300002e+00 7.846000e+02
         vertex 8.686000e+02 4.299998e+00 7.846000e+02
      endloop
   endfacet
   facet normal 5.064941e-02 0.000000e+00 -9.987165e-01
      outer loop
         vertex 8.686000e+02 4.299998e+00 7.846000e+02
         vertex 8.686000e+02 6.300002e+00 7.846000e+02
         vertex 8.770981e+02 6.300002e+00 7.850310e+02
      endloop
   endfacet
   facet normal 0.000000e+00 -1.000000e+00 0.000000e+00
      outer loop
         vertex 8.686000e+02 4.299998e+00 7.846000e+02
         vertex 8.770981e+02 4.299998e+00 7.850310e+02
         vertex 8.686000e+02 4.299998e+00 8.686000e+02
      endloop
   endfacet
   facet normal 0.000000e+00 -1.000000e+00 0.000000e+00
      outer loop
         vertex 8.686000e+02 4.299998e+00 7.846000e+02
         vertex 8.686000e+02 4.299998e+00 8.686000e+02
         vertex 8.601019e+02 4.299998e+00 7.850310e+02
      endloop
   endfacet
   facet normal 0.000000e+00 -1.000000e+00 0.000000e+00
      outer loop
         vertex 8.354741e+02 4.299998e+00 7.914076e+02
         vertex 8.434535e+02 4.299998e+00 7.884523e+02
         vertex 8.686000e+02 4.299998e+00 8.686000e+02
      endloop
   endfacet
   facet normal 0.000000e+00 -1.000000e+00 0.000000e+00
      outer loop
         vertex 8.686000e+02 4.299998e+00 8.686000e+02
         vertex 8.434535e+02 4.299998e+00 7.884523e+02
         vertex 8.516909e+02 4.299998e+00 7.863195e+02
      endloop
   endfacet
   facet normal 0.000000e+00 -1.000000e+00 0.000000e+00
      outer loop
         vertex 8.686000e+02 4.299998e+00 8.686000e+02
         vertex 8.516909e+02 4.299998e+00 7.863195e+02
         vertex 8.601019e+02 4.299998e+00 7.850310e+02
      endloop
   endfacet
   facet normal 0.000000e+00 -1.000000e+00 0.000000e+00
      outer loop
         vertex 8.138847e+02 4.299998e+00 8.048643e+02
         vertex 8.206135e+02 4.299998e+00 7.996559e+02
         vertex 8.686000e+02 4.299998e+00 8.686000e+02
      endloop
   endfacet
   facet normal 0.000000e+00 -1.000000e+00 0.000000e+00
      outer loop
         vertex 8.686000e+02 4.299998e+00 8.686000e+02
         vertex 8.206135e+02 4.299998e+00 7.996559e+02
         vertex 8.278346e+02 4.299998e+00 7.951549e+02
      endloop
   endfacet
   facet normal 0.000000e+00 -1.000000e+00 0.000000e+00
      outer loop
         vertex 8.686000e+02 4.299998e+00 8.686000e+02
         vertex 8.278346e+02 4.299998e+00 7.951549e+02
         vertex 8.354741e+02 4.299998e+00 7.914076e+02
      endloop
   endfacet
   facet normal 0.000000e+00 -1.000000e+00 0.000000e+00
      outer loop
         vertex 7.973139e+02 4.299998e+00 8.241670e+02
         vertex 8.021749e+02 4.299998e+00 8.171831e+02
         vertex 8.686000e+02 4.299998e+00 8.686000e+02
      endloop
   endfacet
   facet normal 0.000000e+00 -1.000000e+00 0.000000e+00
      outer loop
         vertex 8.686000e+02 4.299998e+00 8.686000e+02
         vertex 8.021749e+02 4.299998e+00 8.171831e+02
         vertex 8.077174e+02 4.299998e+00 8.107268e+02
      endloop
   endfacet
   facet normal 0.000000e+00 -1.000000e+00 0.000000e+00
      outer loop
         vertex 8.686000e+02 4.299998e+00 8.686000e+02
         vertex 8.077174e+02 4.299998e+00 8.107268e+02
         vertex 8.138847e+02 4.299998e+00 8.048643e+02
      endloop
   endfacet
   facet normal 0.000000e+00 -1.000000e+00 0.000000e+00
      outer loop
         vertex 7.872815e+02 4.299998e+00 8.475452e+02
         vertex 7.898288e+02 4.299998e+00 8.394264e+02
         vertex 8.686000e+02 4.299998e+00 8.686000e+02
      endloop
   endfacet
   facet normal 0.000000e+00 -1.000000e+00 0.000000e+00
      outer loop
         vertex 8.686000e+02 4.299998e+00 8.686000e+02
         vertex 7.898288e+02 4.299998e+00 8.394264e+02
         vertex 7.931844e+02 4.299998e+00 8.316069e+02
      endloop
   endfacet
   facet normal 0.000000e+00 -1.000000e+00 0.000000e+00
      outer loop
         vertex 8.686000e+02 4.299998e+00 8.686000e+02
         vertex 7.931844e+02 4.299998e+00 8.316069e+02
         vertex 7.973139e+02 4.299998e+00 8.241670e+02
      endloop
   endfacet
   facet normal 0.000000e+00 -1.000000e+00 0.000000e+00
      outer loop
         vertex 7.847078e+02 4.299998e+00 8.728545e+02
         vertex 7.847078e+02 4.299998e+00 8.643455e+02
         vertex 8.686000e+02 4.299998e+00 8.686000e+02
      endloop
   endfacet
   facet normal 0.000000e+00 -1.000000e+00 0.000000e+00
      outer loop
         vertex 8.686000e+02 4.299998e+00 8.686000e+02
         vertex 7.847078e+02 4.299998e+00 8.643455e+02
         vertex 7.855687e+02 4.299998e+00 8.558801e+02
      endloop
   endfacet
   facet normal 0.000000e+00 -1.000000e+00 0.000000e+00
      outer loop
         vertex 8.686000e+02 4.299998e+00 8.686000e+02
         vertex 7.855687e+02 4.299998e+00 8.558801e+02
         vertex 7.872815e+02 4.299998e+00 8.475452e+02
      endloop
   endfacet
   facet normal 0.000000e+00 -1.000000e+00 -0.000000e+00
      outer loop
         vertex 7.898288e+02 4.299998e+00 8.977737e+02
         vertex 7.872815e+02 4.299998e+00 8.896548e+02
         vertex 8.686000e+02 4.299998e+00 8.686000e+02
      endloop
   endfacet
   facet normal 0.000000e+00 -1.000000e+00 0.000000e+00
      outer loop
         vertex 8.686000e+02 4.299998e+00 8.686000e+02
         vertex 7.872815e+02 4.299998e+00 8.896548e+02
         vertex 7.855687e+02 4.299998e+00 8.813199e+02
      endloop
   endfacet
   facet normal 0.000000e+00 -1.000000e+00 0.000000e+00
      outer loop
         vertex 8.686000e+02 4.299998e+00 8.686000e+02
         vertex 7.855687e+02 4.299998e+00 8.813199e+02
         vertex 7.847078e+02 4.299998e+00 8.728545e+02
      endloop
   endfacet
   facet normal 0.000000e+00 -1.000000e+00 -0.000000e+00
      outer loop
         vertex 8.021749e+02 4.299998e+00 9.200169e+02
         vertex 7.973139e+02 4.299998e+00 9.130330e+02
         vertex 8.686000e+02 4.299998e+00 8.686000e+02
      endloop
   endfacet
   facet normal 0.000000e+00 -1.000000e+00 0.000000e+00
      outer loop
         vertex 8.686000e+02 4.299998e+00 8.686000e+02
         vertex 7.973139e+02 4.299998e+00 9.130330e+02
         vertex 7.931844e+02 4.299998e+00 9.055931e+02
      endloop
   endfacet
   facet normal 0.000000e+00 -1.000000e+00 0.000000e+00
      outer loop
         vertex 8.686000e+02 4.299998e+00 8.686000e+02
         vertex 7.931844e+02 4.299998e+00 9.055931e+02
         vertex 7.898288e+02 4.299998e+00 8.977737e+02
      endloop
   endfacet
   facet normal 0.000000e+00 -1.000000e+00 -0.000000e+00
      outer loop
         vertex 8.206135e+02 4.299998e+00 9.375441e+02
         vertex 8.138847e+02 4.299998e+00 9.323357e+02
         vertex 8.686000e+02 4.299998e+00 8.686000e+02
      endloop
   endfacet
   facet normal 0.000000e+00 -1.000000e+00 0.000000e+00
      outer loop
         vertex 8.686000e+02 4.299998e+00 8.686000e+02
         vertex 8.138847e+02 4.299998e+00 9.323357e+02
         vertex 8.077174e+02 4.299998e+00 9.264732e+02
      endloop
   endfacet
   facet normal 0.000000e+00 -1.000000e+00 0.000000e+00
      outer loop
         vertex 8.686000e+02 4.299998e+00 8.686000e+02
         vertex 8.077174e+02 4.299998e+00 9.264732e+02
         vertex 8.021749e+02 4.299998e+00 9.200169e+02
      endloop
   endfacet
   facet normal 0.000000e+00 -1.000000e+00 -0.000000e+00
      outer loop
         vertex 8.434535e+02 4.299998e+00 9.487477e+02
         vertex 8.354741e+02 4.299998e+00 9.457925e+02
         vertex 8.686000e+02 4.299998e+00 8.686000e+02
      endloop
   endfacet
   facet normal 0.000000e+00 -1.000000e+00 0.000000e+00
      outer loop
         vertex 8.686000e+02 4.299998e+00 8.686000e+02
         vertex 8.354741e+02 4.299998e+00 9.457925e+02
         vertex 8.278346e+02 4.299998e+00 9.420451e+02
      endloop
   endfacet
   facet normal 0.000000e+00 -1.000000e+00 0.000000e+00
      outer loop
         vertex 8.686000e+02 4.299998e+00 8.686000e+02
         vertex 8.278346e+02 4.299998e+00 9.420451e+02
         vertex 8.206135e+02 4.299998e+00 9.375441e+02
      endloop
   endfacet
   facet normal 0.000000e+00 -1.000000e+00 0.000000e+00
      outer loop
         vertex 8.686000e+02 4.299998e+00 9.526000e+02
         vertex 8.601019e+02 4.299998e+00 9.521690e+02
         vertex 8.686000e+02 4.299998e+00 8.686000e+02
      endloop
   endfacet
   facet normal 0.000000e+00 -1.000000e+00 0.000000e+00
      outer loop
         vertex 8.686000e+02 4.299998e+00 8.686000e+02
         vertex 8.601019e+02 4.299998e+00 9.521690e+02
         vertex 8.516909e+02 4.299998e+00 9.508805e+02
      endloop
   endfacet
   facet normal 0.000000e+00 -1.000000e+00 0.000000e+00
      outer loop
         vertex 8.686000e+02 4.299998e+00 8.686000e+02
         vertex 8.516909e+02 4.299998e+00 9.508805e+02
         vertex 8.434535e+02 4.299998e+00 9.487477e+02
      endloop
   endfacet
   facet normal -0.000000e+00 -1.000000e+00 0.000000e+00
      outer loop
         vertex 8.937465e+02 4.299998e+00 9.487477e+02
         vertex 8.855091e+02 4.299998e+00 9.508805e+02
         vertex 8.686000e+02 4.299998e+00 8.686000e+02
      endloop
   endfacet
   facet normal 0.000000e+00 -1.000000e+00 0.000000e+00
      outer loop
         vertex 8.686000e+02 4.299998e+00 8.686000e+02
         vertex 8.855091e+02 4.299998e+00 9.508805e+02
         vertex 8.770981e+02 4.299998e+00 9.521690e+02
      endloop
   endfacet
   facet normal 0.000000e+00 -1.000000e+00 0.000000e+00
      outer loop
         vertex 8.686000e+02 4.299998e+00 8.686000e+02
         vertex 8.770981e+02 4.299998e+00 9.521690e+02
         vertex 8.686000e+02 4.299998e+00 9.526000e+02
      endloop
   endfacet
   facet normal -0.000000e+00 -1.000000e+00 0.000000e+00
      outer loop
         vertex 9.165865e+02 4.299998e+00 9.375441e+02
         vertex 9.093654e+02 4.299998e+00 9.420451e+02
         vertex 8.686000e+02 4.299998e+00 8.686000e+02
      endloop
   endfacet
   facet normal 0.000000e+00 -1.000000e+00 0.000000e+00
      outer loop
         vertex 8.686000e+02 4.299998e+00 8.686000e+02
         vertex 9.093654e+02 4.299998e+00 9.420451e+02
         vertex 9.017259e+02 4.299998e+00 9.457925e+02
      endloop
   endfacet
   facet normal 0.000000e+00 -1.000000e+00 0.000000e+00
      outer loop
         vertex 8.686000e+02 4.299998e+00 8.686000e+02
         vertex 9.017259e+02 4.299998e+00 9.457925e+02
         vertex 8.937465e+02 4.299998e+00 9.487477e+02
      endloop
   endfacet
   facet normal -0.000000e+00 -1.000000e+00 0.000000e+00
      outer loop
         vertex 9.350252e+02 4.299998e+00 9.200169e+02
         vertex 9.294826e+02 4.299998e+00 9.264732e+02
         vertex 8.686000e+02 4.299998e+00 8.686000e+02
      endloop
   endfacet
   facet normal 0.000000e+00 -1.000000e+00 0.000000e+00
      outer loop
         vertex 8.686000e+02 4.299998e+00 8.686000e+02
         vertex 9.294826e+02 4.299998e+00 9.264732e+02
         vertex 9.233153e+02 4.299998e+00 9.323357e+02
      endloop
   endfacet
   facet normal 0.000000e+00 -1.000000e+00 0.000000e+00
      outer loop
         vertex 8.686000e+02 4.299998e+00 8.686000e+02
         vertex 9.233153e+02 4.299998e+00 9.323357e+02
         vertex 9.165865e+02 4.299998e+00 9.375441e+02
      endloop
   endfacet
   facet normal -0.000000e+00 -1.000000e+00 0.000000e+00
      outer loop
         vertex 9.473712e+02 4.299998e+00 8.977737e+02
         vertex 9.440156e+02 4.299998e+00 9.055931e+02
         vertex 8.686000e+02 4.299998e+00 8.686000e+02
      endloop
   endfacet
   facet normal 0.000000e+00 -1.000000e+00 0.000000e+00
      outer loop
         vertex 8.686000e+02 4.299998e+00 8.686000e+02
         vertex 9.440156e+02 4.299998e+00 9.055931e+02
         vertex 9.398861e+02 4.299998e+00 9.130330e+02
      endloop
   endfacet
   facet normal 0.000000e+00 -1.000000e+00 0.000000e+00
      outer loop
         vertex 8.686000e+02 4.299998e+00 8.686000e+02
         vertex 9.398861e+02 4.299998e+00 9.130330e+02
         vertex 9.350252e+02 4.299998e+00 9.200169e+02
      endloop
   endfacet
   facet normal -0.000000e+00 -1.000000e+00 0.000000e+00
      outer loop
         vertex 9.524922e+02 4.299998e+00 8.728545e+02
         vertex 9.516314e+02 4.299998e+00 8.813199e+02
         vertex 8.686000e+02 4.299998e+00 8.686000e+02
      endloop
   endfacet
   facet normal 0.000000e+00 -1.000000e+00 0.000000e+00
      outer loop
         vertex 8.686000e+02 4.299998e+00 8.686000e+02
         vertex 9.516314e+02 4.299998e+00 8.813199e+02
         vertex 9.499185e+02 4.299998e+00 8.896548e+02
      endloop
   endfacet
   facet normal 0.000000e+00 -1.000000e+00 0.000000e+00
      outer loop
         vertex 8.686000e+02 4.299998e+00 8.686000e+02
         vertex 9.499185e+02 4.299998e+00 8.896548e+02
         vertex 9.473712e+02 4.299998e+00 8.977737e+02
      endloop
   endfacet
   facet normal 0.000000e+00 -1.000000e+00 0.000000e+00
      outer loop
         vertex 9.499185e+02 4.299998e+00 8.475452e+02
         vertex 9.516314e+02 4.299998e+00 8.558801e+02
         vertex 8.686000e+02 4.299998e+00 8.686000e+02
      endloop
   endfacet
   facet normal 0.000000e+00 -1.000000e+00 0.000000e+00
      outer loop
         vertex 8.686000e+02 4.299998e+00 8.686000e+02
         vertex 9.516314e+02 4.299998e+00 8.558801e+02
         vertex 9.524922e+02 4.299998e+00 8.643455e+02
      endloop
   endfacet
   facet normal 0.000000e+00 -1.000000e+00 0.000000e+00
      outer loop
         vertex 8.686000e+02 4.299998e+00 8.686000e+02
         vertex 9.524922e+02 4.299998e+00 8.643455e+02
         vertex 9.524922e+02 4.299998e+00 8.728545e+02
      endloop
   endfacet
   facet normal 0.000000e+00 -1.000000e+00 0.000000e+00
      outer loop
         vertex 9.398861e+02 4.299998e+00 8.241670e+02
         vertex 9.440156e+02 4.299998e+00 8.316069e+02
         vertex 8.686000e+02 4.299998e+00 8.686000e+02
      endloop
   endfacet
   facet normal 0.000000e+00 -1.000000e+00 0.000000e+00
      outer loop
         vertex 8.686000e+02 4.299998e+00 8.686000e+02
         vertex 9.440156e+02 4.299998e+00 8.316069e+02
         vertex 9.473712e+02 4.299998e+00 8.394264e+02
      endloop
   endfacet
   facet normal 0.000000e+00 -1.000000e+00 0.000000e+00
      outer loop
         vertex 8.686000e+02 4.299998e+00 8.686000e+02
         vertex 9.473712e+02 4.299998e+00 8.394264e+02
         vertex 9.499185e+02 4.299998e+00 8.475452e+02
      endloop
   endfacet
   facet normal 0.000000e+00 -1.000000e+00 0.000000e+00
      outer loop
         vertex 9.233153e+02 4.299998e+00 8.048643e+02
         vertex 9.294826e+02 4.299998e+00 8.107268e+02
         vertex 8.686000e+02 4.299998e+00 8.686000e+02
      endloop
   endfacet
   facet normal 0.000000e+00 -1.000000e+00 0.000000e+00
      outer loop
         vertex 8.686000e+02 4.299998e+00 8.686000e+02
         vertex 9.294826e+02 4.299998e+00 8.107268e+02
         vertex 9.350252e+02 4.299998e+00 8.171831e+02
      endloop
   endfacet
   facet normal 0.000000e+00 -1.000000e+00 0.000000e+00
      outer loop
         vertex 8.686000e+02 4.299998e+00 8.686000e+02
         vertex 9.350252e+02 4.299998e+00 8.171831e+02
         vertex 9.398861e+02 4.299998e+00 8.241670e+02
      endloop
   endfacet
   facet normal 0.000000e+00 -1.000000e+00 0.000000e+00
      outer loop
         vertex 9.017259e+02 4.299998e+00 7.914076e+02
         vertex 9.093654e+02 4.299998e+00 7.951549e+02
         vertex 8.686000e+02 4.299998e+00 8.686000e+02
      endloop
   endfacet
   facet normal 0.000000e+00 -1.000000e+00 0.000000e+00
      outer loop
         vertex 8.686000e+02 4.299998e+00 8.686000e+02
         vertex 9.093654e+02 4.299998e+00 7.951549e+02
         vertex 9.165865e+02 4.299998e+00 7.996559e+02
      endloop
   endfacet
   facet normal 0.000000e+00 -1.000000e+00 0.000000e+00
      outer loop
         vertex 8.686000e+02 4.299998e+00 8.686000e+02
         vertex 9.165865e+02 4.299998e+00 7.996559e+02
         vertex 9.233153e+02 4.299998e+00 8.048643e+02
      endloop
   endfacet
   facet normal 0.000000e+00 -1.000000e+00 0.000000e+00
      outer loop
         vertex 8.770981e+02 4.299998e+00 7.850310e+02
         vertex 8.855091e+02 4.299998e+00 7.863195e+02
         vertex 8.686000e+02 4.299998e+00 8.686000e+02
      endloop
   endfacet
   facet normal 0.000000e+00 -1.000000e+00 0.000000e+00
      outer loop
         vertex 8.686000e+02 4.299998e+00 8.686000e+02
         vertex 8.855091e+02 4.299998e+00 7.863195e+02
         vertex 8.937465e+02 4.299998e+00 7.884523e+02
      endloop
   endfacet
   facet normal 0.000000e+00 -1.000000e+00 0.000000e+00
      outer loop
         vertex 8.686000e+02 4.299998e+00 8.686000e+02
         vertex 8.937465e+02 4.299998e+00 7.884523e+02
         vertex 9.017259e+02 4.299998e+00 7.914076e+02
      endloop
   endfacet
endsolid