solid inlet
   facet normal 0.000000e+00 -1.000000e+00 0.000000e+00
      outer loop
         vertex 4.946044e+02 2.519995e+00 4.560926e+02
         vertex 4.997736e+02 2.519995e+00 4.552739e+02
         vertex 5.050000e+02 2.519995e+00 5.050000e+02
      endloop
   endfacet
   facet normal 0.000000e+00 -1.000000e+00 -0.000000e+00
      outer loop
         vertex 5.050000e+02 2.519995e+00 5.050000e+02
         vertex 4.997736e+02 2.519995e+00 4.552739e+02
         vertex 5.050000e+02 2.519995e+00 4.550000e+02
      endloop
   endfacet
   facet normal 0.000000e+00 -1.000000e+00 0.000000e+00
      outer loop
         vertex 5.050000e+02 2.519995e+00 5.050000e+02
         vertex 5.050000e+02 2.519995e+00 4.550000e+02
         vertex 5.102264e+02 2.519995e+00 4.552739e+02
      endloop
   endfacet
   facet normal 0.000000e+00 -1.000000e+00 0.000000e+00
      outer loop
         vertex 4.800000e+02 2.519995e+00 4.616987e+02
         vertex 4.846632e+02 2.519995e+00 4.593227e+02
         vertex 5.050000e+02 2.519995e+00 5.050000e+02
      endloop
   endfacet
   facet normal 0.000000e+00 -1.000000e+00 0.000000e+00
      outer loop
         vertex 5.050000e+02 2.519995e+00 5.050000e+02
         vertex 4.846632e+02 2.519995e+00 4.593227e+02
         vertex 4.895491e+02 2.519995e+00 4.574472e+02
      endloop
   endfacet
   facet normal 0.000000e+00 -1.000000e+00 0.000000e+00
      outer loop
         vertex 5.050000e+02 2.519995e+00 5.050000e+02
         vertex 4.895491e+02 2.519995e+00 4.574472e+02
         vertex 4.946044e+02 2.519995e+00 4.560926e+02
      endloop
   endfacet
   facet normal 0.000000e+00 -1.000000e+00 0.000000e+00
      outer loop
         vertex 4.678428e+02 2.519995e+00 4.715435e+02
         vertex 4.715435e+02 2.519995e+00 4.678428e+02
         vertex 5.050000e+02 2.519995e+00 5.050000e+02
      endloop
   endfacet
   facet normal 0.000000e+00 -1.000000e+00 0.000000e+00
      outer loop
         vertex 5.050000e+02 2.519995e+00 5.050000e+02
         vertex 4.715435e+02 2.519995e+00 4.678428e+02
         vertex 4.756107e+02 2.519995e+00 4.645491e+02
      endloop
   endfacet
   facet normal 0.000000e+00 -1.000000e+00 0.000000e+00
      outer loop
         vertex 5.050000e+02 2.519995e+00 5.050000e+02
         vertex 4.756107e+02 2.519995e+00 4.645491e+02
         vertex 4.800000e+02 2.519995e+00 4.616987e+02
      endloop
   endfacet
   facet normal 0.000000e+00 -1.000000e+00 0.000000e+00
      outer loop
         vertex 4.593227e+02 2.519995e+00 4.846632e+02
         vertex 4.616987e+02 2.519995e+00 4.800000e+02
         vertex 5.050000e+02 2.519995e+00 5.050000e+02
      endloop
   endfacet
   facet normal 0.000000e+00 -1.000000e+00 0.000000e+00
      outer loop
         vertex 5.050000e+02 2.519995e+00 5.050000e+02
         vertex 4.616987e+02 2.519995e+00 4.800000e+02
         vertex 4.645491e+02 2.519995e+00 4.756107e+02
      endloop
   endfacet
   facet normal 0.000000e+00 -1.000000e+00 0.000000e+00
      outer loop
         vertex 5.050000e+02 2.519995e+00 5.050000e+02
         vertex 4.645491e+02 2.519995e+00 4.756107e+02
         vertex 4.678428e+02 2.519995e+00 4.715435e+02
      endloop
   endfacet
   facet normal 0.000000e+00 -1.000000e+00 0.000000e+00
      outer loop
         vertex 4.552739e+02 2.519995e+00 4.997736e+02
         vertex 4.560926e+02 2.519995e+00 4.946044e+02
         vertex 5.050000e+02 2.519995e+00 5.050000e+02
      endloop
   endfacet
   facet normal 0.000000e+00 -1.000000e+00 0.000000e+00
      outer loop
         vertex 5.050000e+02 2.519995e+00 5.050000e+02
         vertex 4.560926e+02 2.519995e+00 4.946044e+02
         vertex 4.574472e+02 2.519995e+00 4.895491e+02
      endloop
   endfacet
   facet normal 0.000000e+00 -1.000000e+00 0.000000e+00
      outer loop
         vertex 5.050000e+02 2.519995e+00 5.050000e+02
         vertex 4.574472e+02 2.519995e+00 4.895491e+02
         vertex 4.593227e+02 2.519995e+00 4.846632e+02
      endloop
   endfacet
   facet normal 0.000000e+00 -1.000000e+00 -0.000000e+00
      outer loop
         vertex 4.560926e+02 2.519995e+00 5.153956e+02
         vertex 4.552739e+02 2.519995e+00 5.102264e+02
         vertex 5.050000e+02 2.519995e+00 5.050000e+02
      endloop
   endfacet
   facet normal -0.000000e+00 -1.000000e+00 0.000000e+00
      outer loop
         vertex 5.050000e+02 2.519995e+00 5.050000e+02
         vertex 4.552739e+02 2.519995e+00 5.102264e+02
         vertex 4.550000e+02 2.519995e+00 5.050000e+02
      endloop
   endfacet
   facet normal 0.000000e+00 -1.000000e+00 0.000000e+00
      outer loop
         vertex 5.050000e+02 2.519995e+00 5.050000e+02
         vertex 4.550000e+02 2.519995e+00 5.050000e+02
         vertex 4.552739e+02 2.519995e+00 4.997736e+02
      endloop
   endfacet
   facet normal 0.000000e+00 -1.000000e+00 -0.000000e+00
      outer loop
         vertex 4.616987e+02 2.519995e+00 5.300000e+02
         vertex 4.593227e+02 2.519995e+00 5.253368e+02
         vertex 5.050000e+02 2.519995e+00 5.050000e+02
      endloop
   endfacet
   facet normal 0.000000e+00 -1.000000e+00 0.000000e+00
      outer loop
         vertex 5.050000e+02 2.519995e+00 5.050000e+02
         vertex 4.593227e+02 2.519995e+00 5.253368e+02
         vertex 4.574472e+02 2.519995e+00 5.204508e+02
      endloop
   endfacet
   facet normal 0.000000e+00 -1.000000e+00 0.000000e+00
      outer loop
         vertex 5.050000e+02 2.519995e+00 5.050000e+02
         vertex 4.574472e+02 2.519995e+00 5.204508e+02
         vertex 4.560926e+02 2.519995e+00 5.153956e+02
      endloop
   endfacet
   facet normal 0.000000e+00 -1.000000e+00 -0.000000e+00
      outer loop
         vertex 4.715435e+02 2.519995e+00 5.421572e+02
         vertex 4.678428e+02 2.519995e+00 5.384565e+02
         vertex 5.050000e+02 2.519995e+00 5.050000e+02
      endloop
   endfacet
   facet normal 0.000000e+00 -1.000000e+00 0.000000e+00
      outer loop
         vertex 5.050000e+02 2.519995e+00 5.050000e+02
         vertex 4.678428e+02 2.519995e+00 5.384565e+02
         vertex 4.645491e+02 2.519995e+00 5.343893e+02
      endloop
   endfacet
   facet normal 0.000000e+00 -1.000000e+00 0.000000e+00
      outer loop
         vertex 5.050000e+02 2.519995e+00 5.050000e+02
         vertex 4.645491e+02 2.519995e+00 5.343893e+02
         vertex 4.616987e+02 2.519995e+00 5.300000e+02
      endloop
   endfacet
   facet normal 0.000000e+00 -1.000000e+00 -0.000000e+00
      outer loop
         vertex 4.846632e+02 2.519995e+00 5.506773e+02
         vertex 4.800000e+02 2.519995e+00 5.483013e+02
         vertex 5.050000e+02 2.519995e+00 5.050000e+02
      endloop
   endfacet
   facet normal 0.000000e+00 -1.000000e+00 0.000000e+00
      outer loop
         vertex 5.050000e+02 2.519995e+00 5.050000e+02
         vertex 4.800000e+02 2.519995e+00 5.483013e+02
         vertex 4.756107e+02 2.519995e+00 5.454508e+02
      endloop
   endfacet
   facet normal 0.000000e+00 -1.000000e+00 0.000000e+00
      outer loop
         vertex 5.050000e+02 2.519995e+00 5.050000e+02
         vertex 4.756107e+02 2.519995e+00 5.454508e+02
         vertex 4.715435e+02 2.519995e+00 5.421572e+02
      endloop
   endfacet
   facet normal 0.000000e+00 -1.000000e+00 -0.000000e+00
      outer loop
         vertex 4.997736e+02 2.519995e+00 5.547261e+02
         vertex 4.946044e+02 2.519995e+00 5.539074e+02
         vertex 5.050000e+02 2.519995e+00 5.050000e+02
      endloop
   endfacet
   facet normal 0.000000e+00 -1.000000e+00 0.000000e+00
      outer loop
         vertex 5.050000e+02 2.519995e+00 5.050000e+02
         vertex 4.946044e+02 2.519995e+00 5.539074e+02
         vertex 4.895491e+02 2.519995e+00 5.525528e+02
      endloop
   endfacet
   facet normal 0.000000e+00 -1.000000e+00 0.000000e+00
      outer loop
         vertex 5.050000e+02 2.519995e+00 5.050000e+02
         vertex 4.895491e+02 2.519995e+00 5.525528e+02
         vertex 4.846632e+02 2.519995e+00 5.506773e+02
      endloop
   endfacet
   facet normal -0.000000e+00 -1.000000e+00 0.000000e+00
      outer loop
         vertex 5.153956e+02 2.519995e+00 5.539074e+02
         vertex 5.102264e+02 2.519995e+00 5.547261e+02
         vertex 5.050000e+02 2.519995e+00 5.050000e+02
      endloop
   endfacet
   facet normal 0.000000e+00 -1.000000e+00 0.000000e+00
      outer loop
         vertex 5.050000e+02 2.519995e+00 5.050000e+02
         vertex 5.102264e+02 2.519995e+00 5.547261e+02
         vertex 5.050000e+02 2.519995e+00 5.550000e+02
      endloop
   endfacet
   facet normal 0.000000e+00 -1.000000e+00 0.000000e+00
      outer loop
         vertex 5.050000e+02 2.519995e+00 5.050000e+02
         vertex 5.050000e+02 2.519995e+00 5.550000e+02
         vertex 4.997736e+02 2.519995e+00 5.547261e+02
      endloop
   endfacet
   facet normal -0.000000e+00 -1.000000e+00 0.000000e+00
      outer loop
         vertex 5.300000e+02 2.519995e+00 5.483013e+02
         vertex 5.253368e+02 2.519995e+00 5.506773e+02
         vertex 5.050000e+02 2.519995e+00 5.050000e+02
      endloop
   endfacet
   facet normal 0.000000e+00 -1.000000e+00 0.000000e+00
      outer loop
         vertex 5.050000e+02 2.519995e+00 5.050000e+02
         vertex 5.253368e+02 2.519995e+00 5.506773e+02
         vertex 5.204508e+02 2.519995e+00 5.525528e+02
      endloop
   endfacet
   facet normal 0.000000e+00 -1.000000e+00 0.000000e+00
      outer loop
         vertex 5.050000e+02 2.519995e+00 5.050000e+02
         vertex 5.204508e+02 2.519995e+00 5.525528e+02
         vertex 5.153956e+02 2.519995e+00 5.539074e+02
      endloop
   endfacet
   facet normal -0.000000e+00 -1.000000e+00 0.000000e+00
      outer loop
         vertex 5.421572e+02 2.519995e+00 5.384565e+02
         vertex 5.384565e+02 2.519995e+00 5.421572e+02
         vertex 5.050000e+02 2.519995e+00 5.050000e+02
      endloop
   endfacet
   facet normal 0.000000e+00 -1.000000e+00 0.000000e+00
      outer loop
         vertex 5.050000e+02 2.519995e+00 5.050000e+02
         vertex 5.384565e+02 2.519995e+00 5.421572e+02
         vertex 5.343893e+02 2.519995e+00 5.454508e+02
      endloop
   endfacet
   facet normal 0.000000e+00 -1.000000e+00 0.000000e+00
      outer loop
         vertex 5.050000e+02 2.519995e+00 5.050000e+02
         vertex 5.343893e+02 2.519995e+00 5.454508e+02
         vertex 5.300000e+02 2.519995e+00 5.483013e+02
      endloop
   endfacet
   facet normal -0.000000e+00 -1.000000e+00 0.000000e+00
      outer loop
         vertex 5.506773e+02 2.519995e+00 5.253368e+02
         vertex 5.483013e+02 2.519995e+00 5.300000e+02
         vertex 5.050000e+02 2.519995e+00 5.050000e+02
      endloop
   endfacet
   facet normal 0.000000e+00 -1.000000e+00 0.000000e+00
      outer loop
         vertex 5.050000e+02 2.519995e+00 5.050000e+02
         vertex 5.483013e+02 2.519995e+00 5.300000e+02
         vertex 5.454508e+02 2.519995e+00 5.343893e+02
      endloop
   endfacet
   facet normal 0.000000e+00 -1.000000e+00 0.000000e+00
      outer loop
         vertex 5.050000e+02 2.519995e+00 5.050000e+02
         vertex 5.454508e+02 2.519995e+00 5.343893e+02
         vertex 5.421572e+02 2.519995e+00 5.384565e+02
      endloop
   endfacet
   facet normal -0.000000e+00 -1.000000e+00 0.000000e+00
      outer loop
         vertex 5.547261e+02 2.519995e+00 5.102264e+02
         vertex 5.539074e+02 2.519995e+00 5.153956e+02
         vertex 5.050000e+02 2.519995e+00 5.050000e+02
      endloop
   endfacet
   facet normal 0.000000e+00 -1.000000e+00 0.000000e+00
      outer loop
         vertex 5.050000e+02 2.519995e+00 5.050000e+02
         vertex 5.539074e+02 2.519995e+00 5.153956e+02
         vertex 5.525528e+02 2.519995e+00 5.204508e+02
      endloop
   endfacet
   facet normal 0.000000e+00 -1.000000e+00 0.000000e+00
      outer loop
         vertex 5.050000e+02 2.519995e+00 5.050000e+02
         vertex 5.525528e+02 2.519995e+00 5.204508e+02
         vertex 5.506773e+02 2.519995e+00 5.253368e+02
      endloop
   endfacet
   facet normal 0.000000e+00 -1.000000e+00 0.000000e+00
      outer loop
         vertex 5.539074e+02 2.519995e+00 4.946044e+02
         vertex 5.547261e+02 2.519995e+00 4.997736e+02
         vertex 5.050000e+02 2.519995e+00 5.050000e+02
      endloop
   endfacet
   facet normal 0.000000e+00 -1.000000e+00 0.000000e+00
      outer loop
         vertex 5.050000e+02 2.519995e+00 5.050000e+02
         vertex 5.547261e+02 2.519995e+00 4.997736e+02
         vertex 5.550000e+02 2.519995e+00 5.050000e+02
      endloop
   endfacet
   facet normal 0.000000e+00 -1.000000e+00 0.000000e+00
      outer loop
         vertex 5.050000e+02 2.519995e+00 5.050000e+02
         vertex 5.550000e+02 2.519995e+00 5.050000e+02
         vertex 5.547261e+02 2.519995e+00 5.102264e+02
      endloop
   endfacet
   facet normal 0.000000e+00 -1.000000e+00 0.000000e+00
      outer loop
         vertex 5.483013e+02 2.519995e+00 4.800000e+02
         vertex 5.506773e+02 2.519995e+00 4.846632e+02
         vertex 5.050000e+02 2.519995e+00 5.050000e+02
      endloop
   endfacet
   facet normal 0.000000e+00 -1.000000e+00 0.000000e+00
      outer loop
         vertex 5.050000e+02 2.519995e+00 5.050000e+02
         vertex 5.506773e+02 2.519995e+00 4.846632e+02
         vertex 5.525528e+02 2.519995e+00 4.895491e+02
      endloop
   endfacet
   facet normal 0.000000e+00 -1.000000e+00 0.000000e+00
      outer loop
         vertex 5.050000e+02 2.519995e+00 5.050000e+02
         vertex 5.525528e+02 2.519995e+00 4.895491e+02
         vertex 5.539074e+02 2.519995e+00 4.946044e+02
      endloop
   endfacet
   facet normal 0.000000e+00 -1.000000e+00 0.000000e+00
      outer loop
         vertex 5.384565e+02 2.519995e+00 4.678428e+02
         vertex 5.421572e+02 2.519995e+00 4.715435e+02
         vertex 5.050000e+02 2.519995e+00 5.050000e+02
      endloop
   endfacet
   facet normal 0.000000e+00 -1.000000e+00 0.000000e+00
      outer loop
         vertex 5.050000e+02 2.519995e+00 5.050000e+02
         vertex 5.421572e+02 2.519995e+00 4.715435e+02
         vertex 5.454508e+02 2.519995e+00 4.756107e+02
      endloop
   endfacet
   facet normal 0.000000e+00 -1.000000e+00 0.000000e+00
      outer loop
         vertex 5.050000e+02 2.519995e+00 5.050000e+02
         vertex 5.454508e+02 2.519995e+00 4.756107e+02
         vertex 5.483013e+02 2.519995e+00 4.800000e+02
      endloop
   endfacet
   facet normal 0.000000e+00 -1.000000e+00 0.000000e+00
      outer loop
         vertex 5.253368e+02 2.519995e+00 4.593227e+02
         vertex 5.300000e+02 2.519995e+00 4.616987e+02
         vertex 5.050000e+02 2.519995e+00 5.050000e+02
      endloop
   endfacet
   facet normal 0.000000e+00 -1.000000e+00 0.000000e+00
      outer loop
         vertex 5.050000e+02 2.519995e+00 5.050000e+02
         vertex 5.300000e+02 2.519995e+00 4.616987e+02
         vertex 5.343893e+02 2.519995e+00 4.645491e+02
      endloop
   endfacet
   facet normal 0.000000e+00 -1.000000e+00 0.000000e+00
      outer loop
         vertex 5.050000e+02 2.519995e+00 5.050000e+02
         vertex 5.343893e+02 2.519995e+00 4.645491e+02
         vertex 5.384565e+02 2.519995e+00 4.678428e+02
      endloop
   endfacet
   facet normal 0.000000e+00 -1.000000e+00 0.000000e+00
      outer loop
         vertex 5.102264e+02 2.519995e+00 4.552739e+02
         vertex 5.153956e+02 2.519995e+00 4.560926e+02
         vertex 5.050000e+02 2.519995e+00 5.050000e+02
      endloop
   endfacet
   facet normal 0.000000e+00 -1.000000e+00 0.000000e+00
      outer loop
         vertex 5.050000e+02 2.519995e+00 5.050000e+02
         vertex 5.153956e+02 2.519995e+00 4.560926e+02
         vertex 5.204508e+02 2.519995e+00 4.574472e+02
      endloop
   endfacet
   facet normal 0.000000e+00 -1.000000e+00 0.000000e+00
      outer loop
         vertex 5.050000e+02 2.519995e+00 5.050000e+02
         vertex 5.204508e+02 2.519995e+00 4.574472e+02
         vertex 5.253368e+02 2.519995e+00 4.593227e+02
      endloop
   endfacet
   facet normal 5.233605e-02 0.000000e+00 9.986295e-01
      outer loop
         vertex 5.050000e+02 4.519999e+00 5.550000e+02
         vertex 5.102264e+02 2.519995e+00 5.547261e+02
         vertex 5.102264e+02 4.519999e+00 5.547261e+02
      endloop
   endfacet
   facet normal 1.564344e-01 0.000000e+00 9.876883e-01
      outer loop
         vertex 5.102264e+02 4.519999e+00 5.547261e+02
         vertex 5.102264e+02 2.519995e+00 5.547261e+02
         vertex 5.153956e+02 2.519995e+00 5.539074e+02
      endloop
   endfacet
   facet normal 1.564344e-01 0.000000e+00 9.876883e-01
      outer loop
         vertex 5.102264e+02 4.519999e+00 5.547261e+02
         vertex 5.153956e+02 2.519995e+00 5.539074e+02
         vertex 5.153956e+02 4.519999e+00 5.539074e+02
      endloop
   endfacet
   facet normal 2.588194e-01 0.000000e+00 9.659257e-01
      outer loop
         vertex 5.153956e+02 4.519999e+00 5.539074e+02
         vertex 5.153956e+02 2.519995e+00 5.539074e+02
         vertex 5.204508e+02 2.519995e+00 5.525528e+02
      endloop
   endfacet
   facet normal 2.588194e-01 0.000000e+00 9.659257e-01
      outer loop
         vertex 5.153956e+02 4.519999e+00 5.539074e+02
         vertex 5.204508e+02 2.519995e+00 5.525528e+02
         vertex 5.204508e+02 4.519999e+00 5.525528e+02
      endloop
   endfacet
   facet normal 3.583674e-01 0.000000e+00 9.335806e-01
      outer loop
         vertex 5.204508e+02 4.519999e+00 5.525528e+02
         vertex 5.204508e+02 2.519995e+00 5.525528e+02
         vertex 5.253368e+02 2.519995e+00 5.506773e+02
      endloop
   endfacet
   facet normal 3.583674e-01 0.000000e+00 9.335806e-01
      outer loop
         vertex 5.204508e+02 4.519999e+00 5.525528e+02
         vertex 5.253368e+02 2.519995e+00 5.506773e+02
         vertex 5.253368e+02 4.519999e+00 5.506773e+02
      endloop
   endfacet
   facet normal 4.539909e-01 0.000000e+00 8.910063e-01
      outer loop
         vertex 5.253368e+02 4.519999e+00 5.506773e+02
         vertex 5.253368e+02 2.519995e+00 5.506773e+02
         vertex 5.300000e+02 2.519995e+00 5.483013e+02
      endloop
   endfacet
   facet normal 4.539909e-01 0.000000e+00 8.910063e-01
      outer loop
         vertex 5.253368e+02 4.519999e+00 5.506773e+02
         vertex 5.300000e+02 2.519995e+00 5.483013e+02
         vertex 5.300000e+02 4.519999e+00 5.483013e+02
      endloop
   endfacet
   facet normal 5.446391e-01 0.000000e+00 8.386705e-01
      outer loop
         vertex 5.300000e+02 4.519999e+00 5.483013e+02
         vertex 5.300000e+02 2.519995e+00 5.483013e+02
         vertex 5.343893e+02 2.519995e+00 5.454508e+02
      endloop
   endfacet
   facet normal 5.446391e-01 0.000000e+00 8.386705e-01
      outer loop
         vertex 5.300000e+02 4.519999e+00 5.483013e+02
         vertex 5.343893e+02 2.519995e+00 5.454508e+02
         vertex 5.343893e+02 4.519999e+00 5.454508e+02
      endloop
   endfacet
   facet normal 6.293202e-01 0.000000e+00 7.771461e-01
      outer loop
         vertex 5.343893e+02 4.519999e+00 5.454508e+02
         vertex 5.343893e+02 2.519995e+00 5.454508e+02
         vertex 5.384565e+02 2.519995e+00 5.421572e+02
      endloop
   endfacet
   facet normal 6.293202e-01 0.000000e+00 7.771461e-01
      outer loop
         vertex 5.343893e+02 4.519999e+00 5.454508e+02
         vertex 5.384565e+02 2.519995e+00 5.421572e+02
         vertex 5.384565e+02 4.519999e+00 5.421572e+02
      endloop
   endfacet
   facet normal 7.071068e-01 0.000000e+00 7.071068e-01
      outer loop
         vertex 5.384565e+02 4.519999e+00 5.421572e+02
         vertex 5.384565e+02 2.519995e+00 5.421572e+02
         vertex 5.421572e+02 2.519995e+00 5.384565e+02
      endloop
   endfacet
   facet normal 7.071068e-01 0.000000e+00 7.071068e-01
      outer loop
         vertex 5.384565e+02 4.519999e+00 5.421572e+02
         vertex 5.421572e+02 2.519995e+00 5.384565e+02
         vertex 5.421572e+02 4.519999e+00 5.384565e+02
      endloop
   endfacet
   facet normal 7.771461e-01 0.000000e+00 6.293202e-01
      outer loop
         vertex 5.421572e+02 4.519999e+00 5.384565e+02
         vertex 5.421572e+02 2.519995e+00 5.384565e+02
         vertex 5.454508e+02 2.519995e+00 5.343893e+02
      endloop
   endfacet
   facet normal 7.771461e-01 0.000000e+00 6.293202e-01
      outer loop
         vertex 5.421572e+02 4.519999e+00 5.384565e+02
         vertex 5.454508e+02 2.519995e+00 5.343893e+02
         vertex 5.454508e+02 4.519999e+00 5.343893e+02
      endloop
   endfacet
   facet normal 8.386705e-01 0.000000e+00 5.446391e-01
      outer loop
         vertex 5.454508e+02 4.519999e+00 5.343893e+02
         vertex 5.454508e+02 2.519995e+00 5.343893e+02
         vertex 5.483013e+02 2.519995e+00 5.300000e+02
      endloop
   endfacet
   facet normal 8.386705e-01 0.000000e+00 5.446391e-01
      outer loop
         vertex 5.454508e+02 4.519999e+00 5.343893e+02
         vertex 5.483013e+02 2.519995e+00 5.300000e+02
         vertex 5.483013e+02 4.519999e+00 5.300000e+02
      endloop
   endfacet
   facet normal 8.910063e-01 0.000000e+00 4.539909e-01
      outer loop
         vertex 5.483013e+02 4.519999e+00 5.300000e+02
         vertex 5.483013e+02 2.519995e+00 5.300000e+02
         vertex 5.506773e+02 2.519995e+00 5.253368e+02
      endloop
   endfacet
   facet normal 8.910063e-01 0.000000e+00 4.539909e-01
      outer loop
         vertex 5.483013e+02 4.519999e+00 5.300000e+02
         vertex 5.506773e+02 2.519995e+00 5.253368e+02
         vertex 5.506773e+02 4.519999e+00 5.253368e+02
      endloop
   endfacet
   facet normal 9.335806e-01 0.000000e+00 3.583674e-01
      outer loop
         vertex 5.506773e+02 4.519999e+00 5.253368e+02
         vertex 5.506773e+02 2.519995e+00 5.253368e+02
         vertex 5.525528e+02 2.519995e+00 5.204508e+02
      endloop
   endfacet
   facet normal 9.335806e-01 0.000000e+00 3.583674e-01
      outer loop
         vertex 5.506773e+02 4.519999e+00 5.253368e+02
         vertex 5.525528e+02 2.519995e+00 5.204508e+02
         vertex 5.525528e+02 4.519999e+00 5.204508e+02
      endloop
   endfacet
   facet normal 9.659257e-01 0.000000e+00 2.588194e-01
      outer loop
         vertex 5.525528e+02 4.519999e+00 5.204508e+02
         vertex 5.525528e+02 2.519995e+00 5.204508e+02
         vertex 5.539074e+02 2.519995e+00 5.153956e+02
      endloop
   endfacet
   facet normal 9.659257e-01 0.000000e+00 2.588194e-01
      outer loop
         vertex 5.525528e+02 4.519999e+00 5.204508e+02
         vertex 5.539074e+02 2.519995e+00 5.153956e+02
         vertex 5.539074e+02 4.519999e+00 5.153956e+02
      endloop
   endfacet
   facet normal 9.876883e-01 0.000000e+00 1.564344e-01
      outer loop
         vertex 5.539074e+02 4.519999e+00 5.153956e+02
         vertex 5.539074e+02 2.519995e+00 5.153956e+02
         vertex 5.547261e+02 2.519995e+00 5.102264e+02
      endloop
   endfacet
   facet normal 9.876883e-01 0.000000e+00 1.564344e-01
      outer loop
         vertex 5.539074e+02 4.519999e+00 5.153956e+02
         vertex 5.547261e+02 2.519995e+00 5.102264e+02
         vertex 5.547261e+02 4.519999e+00 5.102264e+02
      endloop
   endfacet
   facet normal 9.986295e-01 0.000000e+00 5.233605e-02
      outer loop
         vertex 5.547261e+02 4.519999e+00 5.102264e+02
         vertex 5.547261e+02 2.519995e+00 5.102264e+02
         vertex 5.550000e+02 2.519995e+00 5.050000e+02
      endloop
   endfacet
   facet normal 9.986295e-01 0.000000e+00 5.233605e-02
      outer loop
         vertex 5.547261e+02 4.519999e+00 5.102264e+02
         vertex 5.550000e+02 2.519995e+00 5.050000e+02
         vertex 5.550000e+02 4.519999e+00 5.050000e+02
      endloop
   endfacet
   facet normal 9.986295e-01 0.000000e+00 -5.233605e-02
      outer loop
         vertex 5.550000e+02 4.519999e+00 5.050000e+02
         vertex 5.550000e+02 2.519995e+00 5.050000e+02
         vertex 5.547261e+02 2.519995e+00 4.997736e+02
      endloop
   endfacet
   facet normal 9.986295e-01 0.000000e+00 -5.233605e-02
      outer loop
         vertex 5.550000e+02 4.519999e+00 5.050000e+02
         vertex 5.547261e+02 2.519995e+00 4.997736e+02
         vertex 5.547261e+02 4.519999e+00 4.997736e+02
      endloop
   endfacet
   facet normal 9.876883e-01 0.000000e+00 -1.564344e-01
      outer loop
         vertex 5.547261e+02 4.519999e+00 4.997736e+02
         vertex 5.547261e+02 2.519995e+00 4.997736e+02
         vertex 5.539074e+02 2.519995e+00 4.946044e+02
      endloop
   endfacet
   facet normal 9.876883e-01 0.000000e+00 -1.564344e-01
      outer loop
         vertex 5.547261e+02 4.519999e+00 4.997736e+02
         vertex 5.539074e+02 2.519995e+00 4.946044e+02
         vertex 5.539074e+02 4.519999e+00 4.946044e+02
      endloop
   endfacet
   facet normal 9.659257e-01 0.000000e+00 -2.588194e-01
      outer loop
         vertex 5.539074e+02 4.519999e+00 4.946044e+02
         vertex 5.539074e+02 2.519995e+00 4.946044e+02
         vertex 5.525528e+02 2.519995e+00 4.895491e+02
      endloop
   endfacet
   facet normal 9.659257e-01 0.000000e+00 -2.588194e-01
      outer loop
         vertex 5.539074e+02 4.519999e+00 4.946044e+02
         vertex 5.525528e+02 2.519995e+00 4.895491e+02
         vertex 5.525528e+02 4.519999e+00 4.895491e+02
      endloop
   endfacet
   facet normal 9.335806e-01 0.000000e+00 -3.583674e-01
      outer loop
         vertex 5.525528e+02 4.519999e+00 4.895491e+02
         vertex 5.525528e+02 2.519995e+00 4.895491e+02
         vertex 5.506773e+02 2.519995e+00 4.846632e+02
      endloop
   endfacet
   facet normal 9.335806e-01 0.000000e+00 -3.583674e-01
      outer loop
         vertex 5.525528e+02 4.519999e+00 4.895491e+02
         vertex 5.506773e+02 2.519995e+00 4.846632e+02
         vertex 5.506773e+02 4.519999e+00 4.846632e+02
      endloop
   endfacet
   facet normal 8.910063e-01 0.000000e+00 -4.539909e-01
      outer loop
         vertex 5.506773e+02 4.519999e+00 4.846632e+02
         vertex 5.506773e+02 2.519995e+00 4.846632e+02
         vertex 5.483013e+02 2.519995e+00 4.800000e+02
      endloop
   endfacet
   facet normal 8.910063e-01 0.000000e+00 -4.539909e-01
      outer loop
         vertex 5.506773e+02 4.519999e+00 4.846632e+02
         vertex 5.483013e+02 2.519995e+00 4.800000e+02
         vertex 5.483013e+02 4.519999e+00 4.800000e+02
      endloop
   endfacet
   facet normal 8.386705e-01 0.000000e+00 -5.446391e-01
      outer loop
         vertex 5.483013e+02 4.519999e+00 4.800000e+02
         vertex 5.483013e+02 2.519995e+00 4.800000e+02
         vertex 5.454508e+02 2.519995e+00 4.756107e+02
      endloop
   endfacet
   facet normal 8.386705e-01 0.000000e+00 -5.446391e-01
      outer loop
         vertex 5.483013e+02 4.519999e+00 4.800000e+02
         vertex 5.454508e+02 2.519995e+00 4.756107e+02
         vertex 5.454508e+02 4.519999e+00 4.756107e+02
      endloop
   endfacet
   facet normal 7.771461e-01 0.000000e+00 -6.293202e-01
      outer loop
         vertex 5.454508e+02 4.519999e+00 4.756107e+02
         vertex 5.454508e+02 2.519995e+00 4.756107e+02
         vertex 5.421572e+02 2.519995e+00 4.715435e+02
      endloop
   endfacet
   facet normal 7.771461e-01 0.000000e+00 -6.293202e-01
      outer loop
         vertex 5.454508e+02 4.519999e+00 4.756107e+02
         vertex 5.421572e+02 2.519995e+00 4.715435e+02
         vertex 5.421572e+02 4.519999e+00 4.715435e+02
      endloop
   endfacet
   facet normal 7.071068e-01 0.000000e+00 -7.071068e-01
      outer loop
         vertex 5.421572e+02 4.519999e+00 4.715435e+02
         vertex 5.421572e+02 2.519995e+00 4.715435e+02
         vertex 5.384565e+02 2.519995e+00 4.678428e+02
      endloop
   endfacet
   facet normal 7.071068e-01 0.000000e+00 -7.071068e-01
      outer loop
         vertex 5.421572e+02 4.519999e+00 4.715435e+02
         vertex 5.384565e+02 2.519995e+00 4.678428e+02
         vertex 5.384565e+02 4.519999e+00 4.678428e+02
      endloop
   endfacet
   facet normal 6.293202e-01 0.000000e+00 -7.771461e-01
      outer loop
         vertex 5.384565e+02 4.519999e+00 4.678428e+02
         vertex 5.384565e+02 2.519995e+00 4.678428e+02
         vertex 5.343893e+02 2.519995e+00 4.645491e+02
      endloop
   endfacet
   facet normal 6.293202e-01 0.000000e+00 -7.771461e-01
      outer loop
         vertex 5.384565e+02 4.519999e+00 4.678428e+02
         vertex 5.343893e+02 2.519995e+00 4.645491e+02
         vertex 5.343893e+02 4.519999e+00 4.645491e+02
      endloop
   endfacet
   facet normal 5.446391e-01 0.000000e+00 -8.386705e-01
      outer loop
         vertex 5.343893e+02 4.519999e+00 4.645491e+02
         vertex 5.343893e+02 2.519995e+00 4.645491e+02
         vertex 5.300000e+02 2.519995e+00 4.616987e+02
      endloop
   endfacet
   facet normal 5.446391e-01 0.000000e+00 -8.386705e-01
      outer loop
         vertex 5.343893e+02 4.519999e+00 4.645491e+02
         vertex 5.300000e+02 2.519995e+00 4.616987e+02
         vertex 5.300000e+02 4.519999e+00 4.616987e+02
      endloop
   endfacet
   facet normal 4.539909e-01 0.000000e+00 -8.910063e-01
      outer loop
         vertex 5.300000e+02 4.519999e+00 4.616987e+02
         vertex 5.300000e+02 2.519995e+00 4.616987e+02
         vertex 5.253368e+02 2.519995e+00 4.593227e+02
      endloop
   endfacet
   facet normal 4.539909e-01 0.000000e+00 -8.910063e-01
      outer loop
         vertex 5.300000e+02 4.519999e+00 4.616987e+02
         vertex 5.253368e+02 2.519995e+00 4.593227e+02
         vertex 5.253368e+02 4.519999e+00 4.593227e+02
      endloop
   endfacet
   facet normal 3.583674e-01 0.000000e+00 -9.335806e-01
      outer loop
         vertex 5.253368e+02 4.519999e+00 4.593227e+02
         vertex 5.253368e+02 2.519995e+00 4.593227e+02
         vertex 5.204508e+02 2.519995e+00 4.574472e+02
      endloop
   endfacet
   facet normal 3.583674e-01 0.000000e+00 -9.335806e-01
      outer loop
         vertex 5.253368e+02 4.519999e+00 4.593227e+02
         vertex 5.204508e+02 2.519995e+00 4.574472e+02
         vertex 5.204508e+02 4.519999e+00 4.574472e+02
      endloop
   endfacet
   facet normal 2.588194e-01 0.000000e+00 -9.659257e-01
      outer loop
         vertex 5.204508e+02 4.519999e+00 4.574472e+02
         vertex 5.204508e+02 2.519995e+00 4.574472e+02
         vertex 5.153956e+02 2.519995e+00 4.560926e+02
      endloop
   endfacet
   facet normal 2.588194e-01 0.000000e+00 -9.659257e-01
      outer loop
         vertex 5.204508e+02 4.519999e+00 4.574472e+02
         vertex 5.153956e+02 2.519995e+00 4.560926e+02
         vertex 5.153956e+02 4.519999e+00 4.560926e+02
      endloop
   endfacet
   facet normal 1.564344e-01 0.000000e+00 -9.876883e-01
      outer loop
         vertex 5.153956e+02 4.519999e+00 4.560926e+02
         vertex 5.153956e+02 2.519995e+00 4.560926e+02
         vertex 5.102264e+02 2.519995e+00 4.552739e+02
      endloop
   endfacet
   facet normal 1.564344e-01 0.000000e+00 -9.876883e-01
      outer loop
         vertex 5.153956e+02 4.519999e+00 4.560926e+02
         vertex 5.102264e+02 2.519995e+00 4.552739e+02
         vertex 5.102264e+02 4.519999e+00 4.552739e+02
      endloop
   endfacet
   facet normal 5.233605e-02 0.000000e+00 -9.986295e-01
      outer loop
         vertex 5.102264e+02 4.519999e+00 4.552739e+02
         vertex 5.102264e+02 2.519995e+00 4.552739e+02
         vertex 5.050000e+02 2.519995e+00 4.550000e+02
      endloop
   endfacet
   facet normal 5.233605e-02 0.000000e+00 -9.986295e-01
      outer loop
         vertex 5.102264e+02 4.519999e+00 4.552739e+02
         vertex 5.050000e+02 2.519995e+00 4.550000e+02
         vertex 5.050000e+02 4.519999e+00 4.550000e+02
      endloop
   endfacet
   facet normal -5.233605e-02 -0.000000e+00 -9.986295e-01
      outer loop
         vertex 5.050000e+02 4.519999e+00 4.550000e+02
         vertex 5.050000e+02 2.519995e+00 4.550000e+02
         vertex 4.997736e+02 2.519995e+00 4.552739e+02
      endloop
   endfacet
   facet normal -5.233605e-02 0.000000e+00 -9.986295e-01
      outer loop
         vertex 5.050000e+02 4.519999e+00 4.550000e+02
         vertex 4.997736e+02 2.519995e+00 4.552739e+02
         vertex 4.997736e+02 4.519999e+00 4.552739e+02
      endloop
   endfacet
   facet normal -1.564344e-01 -0.000000e+00 -9.876883e-01
      outer loop
         vertex 4.997736e+02 4.519999e+00 4.552739e+02
         vertex 4.997736e+02 2.519995e+00 4.552739e+02
         vertex 4.946044e+02 2.519995e+00 4.560926e+02
      endloop
   endfacet
   facet normal -1.564344e-01 0.000000e+00 -9.876883e-01
      outer loop
         vertex 4.997736e+02 4.519999e+00 4.552739e+02
         vertex 4.946044e+02 2.519995e+00 4.560926e+02
         vertex 4.946044e+02 4.519999e+00 4.560926e+02
      endloop
   endfacet
   facet normal -2.588194e-01 -0.000000e+00 -9.659257e-01
      outer loop
         vertex 4.946044e+02 4.519999e+00 4.560926e+02
         vertex 4.946044e+02 2.519995e+00 4.560926e+02
         vertex 4.895491e+02 2.519995e+00 4.574472e+02
      endloop
   endfacet
   facet normal -2.588194e-01 0.000000e+00 -9.659257e-01
      outer loop
         vertex 4.946044e+02 4.519999e+00 4.560926e+02
         vertex 4.895491e+02 2.519995e+00 4.574472e+02
         vertex 4.895491e+02 4.519999e+00 4.574472e+02
      endloop
   endfacet
   facet normal -3.583674e-01 -0.000000e+00 -9.335806e-01
      outer loop
         vertex 4.895491e+02 4.519999e+00 4.574472e+02
         vertex 4.895491e+02 2.519995e+00 4.574472e+02
         vertex 4.846632e+02 2.519995e+00 4.593227e+02
      endloop
   endfacet
   facet normal -3.583674e-01 0.000000e+00 -9.335806e-01
      outer loop
         vertex 4.895491e+02 4.519999e+00 4.574472e+02
         vertex 4.846632e+02 2.519995e+00 4.593227e+02
         vertex 4.846632e+02 4.519999e+00 4.593227e+02
      endloop
   endfacet
   facet normal -4.539909e-01 -0.000000e+00 -8.910063e-01
      outer loop
         vertex 4.846632e+02 4.519999e+00 4.593227e+02
         vertex 4.846632e+02 2.519995e+00 4.593227e+02
         vertex 4.800000e+02 2.519995e+00 4.616987e+02
      endloop
   endfacet
   facet normal -4.539909e-01 0.000000e+00 -8.910063e-01
      outer loop
         vertex 4.846632e+02 4.519999e+00 4.593227e+02
         vertex 4.800000e+02 2.519995e+00 4.616987e+02
         vertex 4.800000e+02 4.519999e+00 4.616987e+02
      endloop
   endfacet
   facet normal -5.446391e-01 -0.000000e+00 -8.386705e-01
      outer loop
         vertex 4.800000e+02 4.519999e+00 4.616987e+02
         vertex 4.800000e+02 2.519995e+00 4.616987e+02
         vertex 4.756107e+02 2.519995e+00 4.645491e+02
      endloop
   endfacet
   facet normal -5.446391e-01 0.000000e+00 -8.386705e-01
      outer loop
         vertex 4.800000e+02 4.519999e+00 4.616987e+02
         vertex 4.756107e+02 2.519995e+00 4.645491e+02
         vertex 4.756107e+02 4.519999e+00 4.645491e+02
      endloop
   endfacet
   facet normal -6.293202e-01 -0.000000e+00 -7.771461e-01
      outer loop
         vertex 4.756107e+02 4.519999e+00 4.645491e+02
         vertex 4.756107e+02 2.519995e+00 4.645491e+02
         vertex 4.715435e+02 2.519995e+00 4.678428e+02
      endloop
   endfacet
   facet normal -6.293202e-01 0.000000e+00 -7.771461e-01
      outer loop
         vertex 4.756107e+02 4.519999e+00 4.645491e+02
         vertex 4.715435e+02 2.519995e+00 4.678428e+02
         vertex 4.715435e+02 4.519999e+00 4.678428e+02
      endloop
   endfacet
   facet normal -7.071068e-01 -0.000000e+00 -7.071068e-01
      outer loop
         vertex 4.715435e+02 4.519999e+00 4.678428e+02
         vertex 4.715435e+02 2.519995e+00 4.678428e+02
         vertex 4.678428e+02 2.519995e+00 4.715435e+02
      endloop
   endfacet
   facet normal -7.071068e-01 0.000000e+00 -7.071068e-01
      outer loop
         vertex 4.715435e+02 4.519999e+00 4.678428e+02
         vertex 4.678428e+02 2.519995e+00 4.715435e+02
         vertex 4.678428e+02 4.519999e+00 4.715435e+02
      endloop
   endfacet
   facet normal -7.771461e-01 -0.000000e+00 -6.293202e-01
      outer loop
         vertex 4.678428e+02 4.519999e+00 4.715435e+02
         vertex 4.678428e+02 2.519995e+00 4.715435e+02
         vertex 4.645491e+02 2.519995e+00 4.756107e+02
      endloop
   endfacet
   facet normal -7.771461e-01 0.000000e+00 -6.293202e-01
      outer loop
         vertex 4.678428e+02 4.519999e+00 4.715435e+02
         vertex 4.645491e+02 2.519995e+00 4.756107e+02
         vertex 4.645491e+02 4.519999e+00 4.756107e+02
      endloop
   endfacet
   facet normal -8.386705e-01 -0.000000e+00 -5.446391e-01
      outer loop
         vertex 4.645491e+02 4.519999e+00 4.756107e+02
         vertex 4.645491e+02 2.519995e+00 4.756107e+02
         vertex 4.616987e+02 2.519995e+00 4.800000e+02
      endloop
   endfacet
   facet normal -8.386705e-01 0.000000e+00 -5.446391e-01
      outer loop
         vertex 4.645491e+02 4.519999e+00 4.756107e+02
         vertex 4.616987e+02 2.519995e+00 4.800000e+02
         vertex 4.616987e+02 4.519999e+00 4.800000e+02
      endloop
   endfacet
   facet normal -8.910063e-01 -0.000000e+00 -4.539909e-01
      outer loop
         vertex 4.616987e+02 4.519999e+00 4.800000e+02
         vertex 4.616987e+02 2.519995e+00 4.800000e+02
         vertex 4.593227e+02 2.519995e+00 4.846632e+02
      endloop
   endfacet
   facet normal -8.910063e-01 0.000000e+00 -4.539909e-01
      outer loop
         vertex 4.616987e+02 4.519999e+00 4.800000e+02
         vertex 4.593227e+02 2.519995e+00 4.846632e+02
         vertex 4.593227e+02 4.519999e+00 4.846632e+02
      endloop
   endfacet
   facet normal -9.335806e-01 -0.000000e+00 -3.583674e-01
      outer loop
         vertex 4.593227e+02 4.519999e+00 4.846632e+02
         vertex 4.593227e+02 2.519995e+00 4.846632e+02
         vertex 4.574472e+02 2.519995e+00 4.895491e+02
      endloop
   endfacet
   facet normal -9.335806e-01 0.000000e+00 -3.583674e-01
      outer loop
         vertex 4.593227e+02 4.519999e+00 4.846632e+02
         vertex 4.574472e+02 2.519995e+00 4.895491e+02
         vertex 4.574472e+02 4.519999e+00 4.895491e+02
      endloop
   endfacet
   facet normal -9.659257e-01 -0.000000e+00 -2.588194e-01
      outer loop
         vertex 4.574472e+02 4.519999e+00 4.895491e+02
         vertex 4.574472e+02 2.519995e+00 4.895491e+02
         vertex 4.560926e+02 2.519995e+00 4.946044e+02
      endloop
   endfacet
   facet normal -9.659257e-01 0.000000e+00 -2.588194e-01
      outer loop
         vertex 4.574472e+02 4.519999e+00 4.895491e+02
         vertex 4.560926e+02 2.519995e+00 4.946044e+02
         vertex 4.560926e+02 4.519999e+00 4.946044e+02
      endloop
   endfacet
   facet normal -9.876883e-01 -0.000000e+00 -1.564344e-01
      outer loop
         vertex 4.560926e+02 4.519999e+00 4.946044e+02
         vertex 4.560926e+02 2.519995e+00 4.946044e+02
         vertex 4.552739e+02 2.519995e+00 4.997736e+02
      endloop
   endfacet
   facet normal -9.876883e-01 0.000000e+00 -1.564344e-01
      outer loop
         vertex 4.560926e+02 4.519999e+00 4.946044e+02
         vertex 4.552739e+02 2.519995e+00 4.997736e+02
         vertex 4.552739e+02 4.519999e+00 4.997736e+02
      endloop
   endfacet
   facet normal -9.986295e-01 -0.000000e+00 -5.233605e-02
      outer loop
         vertex 4.552739e+02 4.519999e+00 4.997736e+02
         vertex 4.552739e+02 2.519995e+00 4.997736e+02
         vertex 4.550000e+02 2.519995e+00 5.050000e+02
      endloop
   endfacet
   facet normal -9.986295e-01 0.000000e+00 -5.233605e-02
      outer loop
         vertex 4.552739e+02 4.519999e+00 4.997736e+02
         vertex 4.550000e+02 2.519995e+00 5.050000e+02
         vertex 4.550000e+02 4.519999e+00 5.050000e+02
      endloop
   endfacet
   facet normal -9.986295e-01 0.000000e+00 5.233605e-02
      outer loop
         vertex 4.550000e+02 4.519999e+00 5.050000e+02
         vertex 4.550000e+02 2.519995e+00 5.050000e+02
         vertex 4.552739e+02 2.519995e+00 5.102264e+02
      endloop
   endfacet
   facet normal -9.986295e-01 0.000000e+00 5.233605e-02
      outer loop
         vertex 4.550000e+02 4.519999e+00 5.050000e+02
         vertex 4.552739e+02 2.519995e+00 5.102264e+02
         vertex 4.552739e+02 4.519999e+00 5.102264e+02
      endloop
   endfacet
   facet normal -9.876883e-01 0.000000e+00 1.564344e-01
      outer loop
         vertex 4.552739e+02 4.519999e+00 5.102264e+02
         vertex 4.552739e+02 2.519995e+00 5.102264e+02
         vertex 4.560926e+02 2.519995e+00 5.153956e+02
      endloop
   endfacet
   facet normal -9.876883e-01 0.000000e+00 1.564344e-01
      outer loop
         vertex 4.552739e+02 4.519999e+00 5.102264e+02
         vertex 4.560926e+02 2.519995e+00 5.153956e+02
         vertex 4.560926e+02 4.519999e+00 5.153956e+02
      endloop
   endfacet
   facet normal -9.659257e-01 0.000000e+00 2.588194e-01
      outer loop
         vertex 4.560926e+02 4.519999e+00 5.153956e+02
         vertex 4.560926e+02 2.519995e+00 5.153956e+02
         vertex 4.574472e+02 2.519995e+00 5.204508e+02
      endloop
   endfacet
   facet normal -9.659257e-01 0.000000e+00 2.588194e-01
      outer loop
         vertex 4.560926e+02 4.519999e+00 5.153956e+02
         vertex 4.574472e+02 2.519995e+00 5.204508e+02
         vertex 4.574472e+02 4.519999e+00 5.204508e+02
      endloop
   endfacet
   facet normal -9.335806e-01 0.000000e+00 3.583674e-01
      outer loop
         vertex 4.574472e+02 4.519999e+00 5.204508e+02
         vertex 4.574472e+02 2.519995e+00 5.204508e+02
         vertex 4.593227e+02 2.519995e+00 5.253368e+02
      endloop
   endfacet
   facet normal -9.335806e-01 0.000000e+00 3.583674e-01
      outer loop
         vertex 4.574472e+02 4.519999e+00 5.204508e+02
         vertex 4.593227e+02 2.519995e+00 5.253368e+02
         vertex 4.593227e+02 4.519999e+00 5.253368e+02
      endloop
   endfacet
   facet normal -8.910063e-01 0.000000e+00 4.539909e-01
      outer loop
         vertex 4.593227e+02 4.519999e+00 5.253368e+02
         vertex 4.593227e+02 2.519995e+00 5.253368e+02
         vertex 4.616987e+02 2.519995e+00 5.300000e+02
      endloop
   endfacet
   facet normal -8.910063e-01 0.000000e+00 4.539909e-01
      outer loop
         vertex 4.593227e+02 4.519999e+00 5.253368e+02
         vertex 4.616987e+02 2.519995e+00 5.300000e+02
         vertex 4.616987e+02 4.519999e+00 5.300000e+02
      endloop
   endfacet
   facet normal -8.386705e-01 0.000000e+00 5.446391e-01
      outer loop
         vertex 4.616987e+02 4.519999e+00 5.300000e+02
         vertex 4.616987e+02 2.519995e+00 5.300000e+02
         vertex 4.645491e+02 2.519995e+00 5.343893e+02
      endloop
   endfacet
   facet normal -8.386705e-01 0.000000e+00 5.446391e-01
      outer loop
         vertex 4.616987e+02 4.519999e+00 5.300000e+02
         vertex 4.645491e+02 2.519995e+00 5.343893e+02
         vertex 4.645491e+02 4.519999e+00 5.343893e+02
      endloop
   endfacet
   facet normal -7.771461e-01 0.000000e+00 6.293202e-01
      outer loop
         vertex 4.645491e+02 4.519999e+00 5.343893e+02
         vertex 4.645491e+02 2.519995e+00 5.343893e+02
         vertex 4.678428e+02 2.519995e+00 5.384565e+02
      endloop
   endfacet
   facet normal -7.771461e-01 0.000000e+00 6.293202e-01
      outer loop
         vertex 4.645491e+02 4.519999e+00 5.343893e+02
         vertex 4.678428e+02 2.519995e+00 5.384565e+02
         vertex 4.678428e+02 4.519999e+00 5.384565e+02
      endloop
   endfacet
   facet normal -7.071068e-01 0.000000e+00 7.071068e-01
      outer loop
         vertex 4.678428e+02 4.519999e+00 5.384565e+02
         vertex 4.678428e+02 2.519995e+00 5.384565e+02
         vertex 4.715435e+02 2.519995e+00 5.421572e+02
      endloop
   endfacet
   facet normal -7.071068e-01 0.000000e+00 7.071068e-01
      outer loop
         vertex 4.678428e+02 4.519999e+00 5.384565e+02
         vertex 4.715435e+02 2.519995e+00 5.421572e+02
         vertex 4.715435e+02 4.519999e+00 5.421572e+02
      endloop
   endfacet
   facet normal -6.293202e-01 0.000000e+00 7.771461e-01
      outer loop
         vertex 4.715435e+02 4.519999e+00 5.421572e+02
         vertex 4.715435e+02 2.519995e+00 5.421572e+02
         vertex 4.756107e+02 2.519995e+00 5.454508e+02
      endloop
   endfacet
   facet normal -6.293202e-01 0.000000e+00 7.771461e-01
      outer loop
         vertex 4.715435e+02 4.519999e+00 5.421572e+02
         vertex 4.756107e+02 2.519995e+00 5.454508e+02
         vertex 4.756107e+02 4.519999e+00 5.454508e+02
      endloop
   endfacet
   facet normal -5.446391e-01 0.000000e+00 8.386705e-01
      outer loop
         vertex 4.756107e+02 4.519999e+00 5.454508e+02
         vertex 4.756107e+02 2.519995e+00 5.454508e+02
         vertex 4.800000e+02 2.519995e+00 5.483013e+02
      endloop
   endfacet
   facet normal -5.446391e-01 0.000000e+00 8.386705e-01
      outer loop
         vertex 4.756107e+02 4.519999e+00 5.454508e+02
         vertex 4.800000e+02 2.519995e+00 5.483013e+02
         vertex 4.800000e+02 4.519999e+00 5.483013e+02
      endloop
   endfacet
   facet normal -4.539909e-01 0.000000e+00 8.910063e-01
      outer loop
         vertex 4.800000e+02 4.519999e+00 5.483013e+02
         vertex 4.800000e+02 2.519995e+00 5.483013e+02
         vertex 4.846632e+02 2.519995e+00 5.506773e+02
      endloop
   endfacet
   facet normal -4.539909e-01 0.000000e+00 8.910063e-01
      outer loop
         vertex 4.800000e+02 4.519999e+00 5.483013e+02
         vertex 4.846632e+02 2.519995e+00 5.506773e+02
         vertex 4.846632e+02 4.519999e+00 5.506773e+02
      endloop
   endfacet
   facet normal -3.583674e-01 0.000000e+00 9.335806e-01
      outer loop
         vertex 4.846632e+02 4.519999e+00 5.506773e+02
         vertex 4.846632e+02 2.519995e+00 5.506773e+02
         vertex 4.895491e+02 2.519995e+00 5.525528e+02
      endloop
   endfacet
   facet normal -3.583674e-01 0.000000e+00 9.335806e-01
      outer loop
         vertex 4.846632e+02 4.519999e+00 5.506773e+02
         vertex 4.895491e+02 2.519995e+00 5.525528e+02
         vertex 4.895491e+02 4.519999e+00 5.525528e+02
      endloop
   endfacet
   facet normal -2.588194e-01 0.000000e+00 9.659257e-01
      outer loop
         vertex 4.895491e+02 4.519999e+00 5.525528e+02
         vertex 4.895491e+02 2.519995e+00 5.525528e+02
         vertex 4.946044e+02 2.519995e+00 5.539074e+02
      endloop
   endfacet
   facet normal -2.588194e-01 0.000000e+00 9.659257e-01
      outer loop
         vertex 4.895491e+02 4.519999e+00 5.525528e+02
         vertex 4.946044e+02 2.519995e+00 5.539074e+02
         vertex 4.946044e+02 4.519999e+00 5.539074e+02
      endloop
   endfacet
   facet normal -1.564344e-01 0.000000e+00 9.876883e-01
      outer loop
         vertex 4.946044e+02 4.519999e+00 5.539074e+02
         vertex 4.946044e+02 2.519995e+00 5.539074e+02
         vertex 4.997736e+02 2.519995e+00 5.547261e+02
      endloop
   endfacet
   facet normal -1.564344e-01 0.000000e+00 9.876883e-01
      outer loop
         vertex 4.946044e+02 4.519999e+00 5.539074e+02
         vertex 4.997736e+02 2.519995e+00 5.547261e+02
         vertex 4.997736e+02 4.519999e+00 5.547261e+02
      endloop
   endfacet
   facet normal -5.233605e-02 0.000000e+00 9.986295e-01
      outer loop
         vertex 4.997736e+02 4.519999e+00 5.547261e+02
         vertex 4.997736e+02 2.519995e+00 5.547261e+02
         vertex 5.050000e+02 2.519995e+00 5.550000e+02
      endloop
   endfacet
   facet normal -5.233605e-02 0.000000e+00 9.986295e-01
      outer loop
         vertex 4.997736e+02 4.519999e+00 5.547261e+02
         vertex 5.050000e+02 2.519995e+00 5.550000e+02
         vertex 5.050000e+02 4.519999e+00 5.550000e+02
      endloop
   endfacet
   facet normal 5.233605e-02 0.000000e+00 9.986295e-01
      outer loop
         vertex 5.050000e+02 4.519999e+00 5.550000e+02
         vertex 5.050000e+02 2.519995e+00 5.550000e+02
         vertex 5.102264e+02 2.519995e+00 5.547261e+02
      endloop
   endfacet
   facet normal 0.000000e+00 1.000000e+00 0.000000e+00
      outer loop
         vertex 5.153956e+02 4.519999e+00 4.560926e+02
         vertex 5.102264e+02 4.519999e+00 4.552739e+02
         vertex 5.050000e+02 4.519999e+00 5.050000e+02
      endloop
   endfacet
   facet normal 0.000000e+00 1.000000e+00 0.000000e+00
      outer loop
         vertex 5.050000e+02 4.519999e+00 5.050000e+02
         vertex 5.102264e+02 4.519999e+00 4.552739e+02
         vertex 5.050000e+02 4.519999e+00 4.550000e+02
      endloop
   endfacet
   facet normal 0.000000e+00 1.000000e+00 0.000000e+00
      outer loop
         vertex 5.050000e+02 4.519999e+00 5.050000e+02
         vertex 5.050000e+02 4.519999e+00 4.550000e+02
         vertex 4.997736e+02 4.519999e+00 4.552739e+02
      endloop
   endfacet
   facet normal 0.000000e+00 1.000000e+00 0.000000e+00
      outer loop
         vertex 5.300000e+02 4.519999e+00 4.616987e+02
         vertex 5.253368e+02 4.519999e+00 4.593227e+02
         vertex 5.050000e+02 4.519999e+00 5.050000e+02
      endloop
   endfacet
   facet normal 0.000000e+00 1.000000e+00 0.000000e+00
      outer loop
         vertex 5.050000e+02 4.519999e+00 5.050000e+02
         vertex 5.253368e+02 4.519999e+00 4.593227e+02
         vertex 5.204508e+02 4.519999e+00 4.574472e+02
      endloop
   endfacet
   facet normal 0.000000e+00 1.000000e+00 0.000000e+00
      outer loop
         vertex 5.050000e+02 4.519999e+00 5.050000e+02
         vertex 5.204508e+02 4.519999e+00 4.574472e+02
         vertex 5.153956e+02 4.519999e+00 4.560926e+02
      endloop
   endfacet
   facet normal 0.000000e+00 1.000000e+00 0.000000e+00
      outer loop
         vertex 5.421572e+02 4.519999e+00 4.715435e+02
         vertex 5.384565e+02 4.519999e+00 4.678428e+02
         vertex 5.050000e+02 4.519999e+00 5.050000e+02
      endloop
   endfacet
   facet normal 0.000000e+00 1.000000e+00 0.000000e+00
      outer loop
         vertex 5.050000e+02 4.519999e+00 5.050000e+02
         vertex 5.384565e+02 4.519999e+00 4.678428e+02
         vertex 5.343893e+02 4.519999e+00 4.645491e+02
      endloop
   endfacet
   facet normal 0.000000e+00 1.000000e+00 0.000000e+00
      outer loop
         vertex 5.050000e+02 4.519999e+00 5.050000e+02
         vertex 5.343893e+02 4.519999e+00 4.645491e+02
         vertex 5.300000e+02 4.519999e+00 4.616987e+02
      endloop
   endfacet
   facet normal 0.000000e+00 1.000000e+00 0.000000e+00
      outer loop
         vertex 5.506773e+02 4.519999e+00 4.846632e+02
         vertex 5.483013e+02 4.519999e+00 4.800000e+02
         vertex 5.050000e+02 4.519999e+00 5.050000e+02
      endloop
   endfacet
   facet normal 0.000000e+00 1.000000e+00 0.000000e+00
      outer loop
         vertex 5.050000e+02 4.519999e+00 5.050000e+02
         vertex 5.483013e+02 4.519999e+00 4.800000e+02
         vertex 5.454508e+02 4.519999e+00 4.756107e+02
      endloop
   endfacet
   facet normal 0.000000e+00 1.000000e+00 0.000000e+00
      outer loop
         vertex 5.050000e+02 4.519999e+00 5.050000e+02
         vertex 5.454508e+02 4.519999e+00 4.756107e+02
         vertex 5.421572e+02 4.519999e+00 4.715435e+02
      endloop
   endfacet
   facet normal 0.000000e+00 1.000000e+00 0.000000e+00
      outer loop
         vertex 5.547261e+02 4.519999e+00 4.997736e+02
         vertex 5.539074e+02 4.519999e+00 4.946044e+02
         vertex 5.050000e+02 4.519999e+00 5.050000e+02
      endloop
   endfacet
   facet normal 0.000000e+00 1.000000e+00 0.000000e+00
      outer loop
         vertex 5.050000e+02 4.519999e+00 5.050000e+02
         vertex 5.539074e+02 4.519999e+00 4.946044e+02
         vertex 5.525528e+02 4.519999e+00 4.895491e+02
      endloop
   endfacet
   facet normal 0.000000e+00 1.000000e+00 0.000000e+00
      outer loop
         vertex 5.050000e+02 4.519999e+00 5.050000e+02
         vertex 5.525528e+02 4.519999e+00 4.895491e+02
         vertex 5.506773e+02 4.519999e+00 4.846632e+02
      endloop
   endfacet
   facet normal 0.000000e+00 1.000000e+00 0.000000e+00
      outer loop
         vertex 5.539074e+02 4.519999e+00 5.153956e+02
         vertex 5.547261e+02 4.519999e+00 5.102264e+02
         vertex 5.050000e+02 4.519999e+00 5.050000e+02
      endloop
   endfacet
   facet normal 0.000000e+00 1.000000e+00 0.000000e+00
      outer loop
         vertex 5.050000e+02 4.519999e+00 5.050000e+02
         vertex 5.547261e+02 4.519999e+00 5.102264e+02
         vertex 5.550000e+02 4.519999e+00 5.050000e+02
      endloop
   endfacet
   facet normal -0.000000e+00 1.000000e+00 0.000000e+00
      outer loop
         vertex 5.050000e+02 4.519999e+00 5.050000e+02
         vertex 5.550000e+02 4.519999e+00 5.050000e+02
         vertex 5.547261e+02 4.519999e+00 4.997736e+02
      endloop
   endfacet
   facet normal 0.000000e+00 1.000000e+00 0.000000e+00
      outer loop
         vertex 5.483013e+02 4.519999e+00 5.300000e+02
         vertex 5.506773e+02 4.519999e+00 5.253368e+02
         vertex 5.050000e+02 4.519999e+00 5.050000e+02
      endloop
   endfacet
   facet normal 0.000000e+00 1.000000e+00 0.000000e+00
      outer loop
         vertex 5.050000e+02 4.519999e+00 5.050000e+02
         vertex 5.506773e+02 4.519999e+00 5.253368e+02
         vertex 5.525528e+02 4.519999e+00 5.204508e+02
      endloop
   endfacet
   facet normal 0.000000e+00 1.000000e+00 0.000000e+00
      outer loop
         vertex 5.050000e+02 4.519999e+00 5.050000e+02
         vertex 5.525528e+02 4.519999e+00 5.204508e+02
         vertex 5.539074e+02 4.519999e+00 5.153956e+02
      endloop
   endfacet
   facet normal 0.000000e+00 1.000000e+00 0.000000e+00
      outer loop
         vertex 5.384565e+02 4.519999e+00 5.421572e+02
         vertex 5.421572e+02 4.519999e+00 5.384565e+02
         vertex 5.050000e+02 4.519999e+00 5.050000e+02
      endloop
   endfacet
   facet normal 0.000000e+00 1.000000e+00 0.000000e+00
      outer loop
         vertex 5.050000e+02 4.519999e+00 5.050000e+02
         vertex 5.421572e+02 4.519999e+00 5.384565e+02
         vertex 5.454508e+02 4.519999e+00 5.343893e+02
      endloop
   endfacet
   facet normal 0.000000e+00 1.000000e+00 0.000000e+00
      outer loop
         vertex 5.050000e+02 4.519999e+00 5.050000e+02
         vertex 5.454508e+02 4.519999e+00 5.343893e+02
         vertex 5.483013e+02 4.519999e+00 5.300000e+02
      endloop
   endfacet
   facet normal 0.000000e+00 1.000000e+00 0.000000e+00
      outer loop
         vertex 5.253368e+02 4.519999e+00 5.506773e+02
         vertex 5.300000e+02 4.519999e+00 5.483013e+02
         vertex 5.050000e+02 4.519999e+00 5.050000e+02
      endloop
   endfacet
   facet normal 0.000000e+00 1.000000e+00 0.000000e+00
      outer loop
         vertex 5.050000e+02 4.519999e+00 5.050000e+02
         vertex 5.300000e+02 4.519999e+00 5.483013e+02
         vertex 5.343893e+02 4.519999e+00 5.454508e+02
      endloop
   endfacet
   facet normal 0.000000e+00 1.000000e+00 0.000000e+00
      outer loop
         vertex 5.050000e+02 4.519999e+00 5.050000e+02
         vertex 5.343893e+02 4.519999e+00 5.454508e+02
         vertex 5.384565e+02 4.519999e+00 5.421572e+02
      endloop
   endfacet
   facet normal 0.000000e+00 1.000000e+00 0.000000e+00
      outer loop
         vertex 5.102264e+02 4.519999e+00 5.547261e+02
         vertex 5.153956e+02 4.519999e+00 5.539074e+02
         vertex 5.050000e+02 4.519999e+00 5.050000e+02
      endloop
   endfacet
   facet normal 0.000000e+00 1.000000e+00 0.000000e+00
      outer loop
         vertex 5.050000e+02 4.519999e+00 5.050000e+02
         vertex 5.153956e+02 4.519999e+00 5.539074e+02
         vertex 5.204508e+02 4.519999e+00 5.525528e+02
      endloop
   endfacet
   facet normal 0.000000e+00 1.000000e+00 0.000000e+00
      outer loop
         vertex 5.050000e+02 4.519999e+00 5.050000e+02
         vertex 5.204508e+02 4.519999e+00 5.525528e+02
         vertex 5.253368e+02 4.519999e+00 5.506773e+02
      endloop
   endfacet
   facet normal -0.000000e+00 1.000000e+00 0.000000e+00
      outer loop
         vertex 4.946044e+02 4.519999e+00 5.539074e+02
         vertex 4.997736e+02 4.519999e+00 5.547261e+02
         vertex 5.050000e+02 4.519999e+00 5.050000e+02
      endloop
   endfacet
   facet normal 0.000000e+00 1.000000e+00 -0.000000e+00
      outer loop
         vertex 5.050000e+02 4.519999e+00 5.050000e+02
         vertex 4.997736e+02 4.519999e+00 5.547261e+02
         vertex 5.050000e+02 4.519999e+00 5.550000e+02
      endloop
   endfacet
   facet normal 0.000000e+00 1.000000e+00 0.000000e+00
      outer loop
         vertex 5.050000e+02 4.519999e+00 5.050000e+02
         vertex 5.050000e+02 4.519999e+00 5.550000e+02
         vertex 5.102264e+02 4.519999e+00 5.547261e+02
      endloop
   endfacet
   facet normal -0.000000e+00 1.000000e+00 0.000000e+00
      outer loop
         vertex 4.800000e+02 4.519999e+00 5.483013e+02
         vertex 4.846632e+02 4.519999e+00 5.506773e+02
         vertex 5.050000e+02 4.519999e+00 5.050000e+02
      endloop
   endfacet
   facet normal 0.000000e+00 1.000000e+00 0.000000e+00
      outer loop
         vertex 5.050000e+02 4.519999e+00 5.050000e+02
         vertex 4.846632e+02 4.519999e+00 5.506773e+02
         vertex 4.895491e+02 4.519999e+00 5.525528e+02
      endloop
   endfacet
   facet normal 0.000000e+00 1.000000e+00 0.000000e+00
      outer loop
         vertex 5.050000e+02 4.519999e+00 5.050000e+02
         vertex 4.895491e+02 4.519999e+00 5.525528e+02
         vertex 4.946044e+02 4.519999e+00 5.539074e+02
      endloop
   endfacet
   facet normal -0.000000e+00 1.000000e+00 0.000000e+00
      outer loop
         vertex 4.678428e+02 4.519999e+00 5.384565e+02
         vertex 4.715435e+02 4.519999e+00 5.421572e+02
         vertex 5.050000e+02 4.519999e+00 5.050000e+02
      endloop
   endfacet
   facet normal 0.000000e+00 1.000000e+00 0.000000e+00
      outer loop
         vertex 5.050000e+02 4.519999e+00 5.050000e+02
         vertex 4.715435e+02 4.519999e+00 5.421572e+02
         vertex 4.756107e+02 4.519999e+00 5.454508e+02
      endloop
   endfacet
   facet normal 0.000000e+00 1.000000e+00 0.000000e+00
      outer loop
         vertex 5.050000e+02 4.519999e+00 5.050000e+02
         vertex 4.756107e+02 4.519999e+00 5.454508e+02
         vertex 4.800000e+02 4.519999e+00 5.483013e+02
      endloop
   endfacet
   facet normal -0.000000e+00 1.000000e+00 0.000000e+00
      outer loop
         vertex 4.593227e+02 4.519999e+00 5.253368e+02
         vertex 4.616987e+02 4.519999e+00 5.300000e+02
         vertex 5.050000e+02 4.519999e+00 5.050000e+02
      endloop
   endfacet
   facet normal 0.000000e+00 1.000000e+00 0.000000e+00
      outer loop
         vertex 5.050000e+02 4.519999e+00 5.050000e+02
         vertex 4.616987e+02 4.519999e+00 5.300000e+02
         vertex 4.645491e+02 4.519999e+00 5.343893e+02
      endloop
   endfacet
   facet normal 0.000000e+00 1.000000e+00 0.000000e+00
      outer loop
         vertex 5.050000e+02 4.519999e+00 5.050000e+02
         vertex 4.645491e+02 4.519999e+00 5.343893e+02
         vertex 4.678428e+02 4.519999e+00 5.384565e+02
      endloop
   endfacet
   facet normal -0.000000e+00 1.000000e+00 0.000000e+00
      outer loop
         vertex 4.552739e+02 4.519999e+00 5.102264e+02
         vertex 4.560926e+02 4.519999e+00 5.153956e+02
         vertex 5.050000e+02 4.519999e+00 5.050000e+02
      endloop
   endfacet
   facet normal 0.000000e+00 1.000000e+00 0.000000e+00
      outer loop
         vertex 5.050000e+02 4.519999e+00 5.050000e+02
         vertex 4.560926e+02 4.519999e+00 5.153956e+02
         vertex 4.574472e+02 4.519999e+00 5.204508e+02
      endloop
   endfacet
   facet normal 0.000000e+00 1.000000e+00 0.000000e+00
      outer loop
         vertex 5.050000e+02 4.519999e+00 5.050000e+02
         vertex 4.574472e+02 4.519999e+00 5.204508e+02
         vertex 4.593227e+02 4.519999e+00 5.253368e+02
      endloop
   endfacet
   facet normal 0.000000e+00 1.000000e+00 -0.000000e+00
      outer loop
         vertex 4.560926e+02 4.519999e+00 4.946044e+02
         vertex 4.552739e+02 4.519999e+00 4.997736e+02
         vertex 5.050000e+02 4.519999e+00 5.050000e+02
      endloop
   endfacet
   facet normal 0.000000e+00 1.000000e+00 0.000000e+00
      outer loop
         vertex 5.050000e+02 4.519999e+00 5.050000e+02
         vertex 4.552739e+02 4.519999e+00 4.997736e+02
         vertex 4.550000e+02 4.519999e+00 5.050000e+02
      endloop
   endfacet
   facet normal 0.000000e+00 1.000000e+00 0.000000e+00
      outer loop
         vertex 5.050000e+02 4.519999e+00 5.050000e+02
         vertex 4.550000e+02 4.519999e+00 5.050000e+02
         vertex 4.552739e+02 4.519999e+00 5.102264e+02
      endloop
   endfacet
   facet normal 0.000000e+00 1.000000e+00 -0.000000e+00
      outer loop
         vertex 4.616987e+02 4.519999e+00 4.800000e+02
         vertex 4.593227e+02 4.519999e+00 4.846632e+02
         vertex 5.050000e+02 4.519999e+00 5.050000e+02
      endloop
   endfacet
   facet normal 0.000000e+00 1.000000e+00 0.000000e+00
      outer loop
         vertex 5.050000e+02 4.519999e+00 5.050000e+02
         vertex 4.593227e+02 4.519999e+00 4.846632e+02
         vertex 4.574472e+02 4.519999e+00 4.895491e+02
      endloop
   endfacet
   facet normal 0.000000e+00 1.000000e+00 0.000000e+00
      outer loop
         vertex 5.050000e+02 4.519999e+00 5.050000e+02
         vertex 4.574472e+02 4.519999e+00 4.895491e+02
         vertex 4.560926e+02 4.519999e+00 4.946044e+02
      endloop
   endfacet
   facet normal 0.000000e+00 1.000000e+00 -0.000000e+00
      outer loop
         vertex 4.715435e+02 4.519999e+00 4.678428e+02
         vertex 4.678428e+02 4.519999e+00 4.715435e+02
         vertex 5.050000e+02 4.519999e+00 5.050000e+02
      endloop
   endfacet
   facet normal 0.000000e+00 1.000000e+00 0.000000e+00
      outer loop
         vertex 5.050000e+02 4.519999e+00 5.050000e+02
         vertex 4.678428e+02 4.519999e+00 4.715435e+02
         vertex 4.645491e+02 4.519999e+00 4.756107e+02
      endloop
   endfacet
   facet normal 0.000000e+00 1.000000e+00 0.000000e+00
      outer loop
         vertex 5.050000e+02 4.519999e+00 5.050000e+02
         vertex 4.645491e+02 4.519999e+00 4.756107e+02
         vertex 4.616987e+02 4.519999e+00 4.800000e+02
      endloop
   endfacet
   facet normal 0.000000e+00 1.000000e+00 -0.000000e+00
      outer loop
         vertex 4.846632e+02 4.519999e+00 4.593227e+02
         vertex 4.800000e+02 4.519999e+00 4.616987e+02
         vertex 5.050000e+02 4.519999e+00 5.050000e+02
      endloop
   endfacet
   facet normal 0.000000e+00 1.000000e+00 0.000000e+00
      outer loop
         vertex 5.050000e+02 4.519999e+00 5.050000e+02
         vertex 4.800000e+02 4.519999e+00 4.616987e+02
         vertex 4.756107e+02 4.519999e+00 4.645491e+02
      endloop
   endfacet
   facet normal 0.000000e+00 1.000000e+00 0.000000e+00
      outer loop
         vertex 5.050000e+02 4.519999e+00 5.050000e+02
         vertex 4.756107e+02 4.519999e+00 4.645491e+02
         vertex 4.715435e+02 4.519999e+00 4.678428e+02
      endloop
   endfacet
   facet normal 0.000000e+00 1.000000e+00 -0.000000e+00
      outer loop
         vertex 4.997736e+02 4.519999e+00 4.552739e+02
         vertex 4.946044e+02 4.519999e+00 4.560926e+02
         vertex 5.050000e+02 4.519999e+00 5.050000e+02
      endloop
   endfacet
   facet normal 0.000000e+00 1.000000e+00 0.000000e+00
      outer loop
         vertex 5.050000e+02 4.519999e+00 5.050000e+02
         vertex 4.946044e+02 4.519999e+00 4.560926e+02
         vertex 4.895491e+02 4.519999e+00 4.574472e+02
      endloop
   endfacet
   facet normal 0.000000e+00 1.000000e+00 0.000000e+00
      outer loop
         vertex 5.050000e+02 4.519999e+00 5.050000e+02
         vertex 4.895491e+02 4.519999e+00 4.574472e+02
         vertex 4.846632e+02 4.519999e+00 4.593227e+02
      endloop
   endfacet
endsolid