solid vessel
   facet normal 8.715579e-02 0.000000e+00 -9.961947e-01
      outer loop
         vertex 6.196241e+02 2.058119e+02 1.016124e+03
         vertex 6.369889e+02 1.405812e+03 1.017643e+03
         vertex 6.369889e+02 2.058119e+02 1.017643e+03
      endloop
   endfacet
   facet normal 2.588191e-01 0.000000e+00 -9.659258e-01
      outer loop
         vertex 6.369889e+02 2.058119e+02 1.017643e+03
         vertex 6.369889e+02 1.405812e+03 1.017643e+03
         vertex 6.538261e+02 1.405812e+03 1.022155e+03
      endloop
   endfacet
   facet normal 2.588191e-01 0.000000e+00 -9.659258e-01
      outer loop
         vertex 6.369889e+02 2.058119e+02 1.017643e+03
         vertex 6.538261e+02 1.405812e+03 1.022155e+03
         vertex 6.538261e+02 2.058119e+02 1.022155e+03
      endloop
   endfacet
   facet normal 4.226183e-01 0.000000e+00 -9.063077e-01
      outer loop
         vertex 6.538261e+02 2.058119e+02 1.022155e+03
         vertex 6.538261e+02 1.405812e+03 1.022155e+03
         vertex 6.696241e+02 1.405812e+03 1.029521e+03
      endloop
   endfacet
   facet normal 4.226183e-01 0.000000e+00 -9.063077e-01
      outer loop
         vertex 6.538261e+02 2.058119e+02 1.022155e+03
         vertex 6.696241e+02 1.405812e+03 1.029521e+03
         vertex 6.696241e+02 2.058119e+02 1.029521e+03
      endloop
   endfacet
   facet normal 5.735766e-01 0.000000e+00 -8.191519e-01
      outer loop
         vertex 6.696241e+02 2.058119e+02 1.029521e+03
         vertex 6.696241e+02 1.405812e+03 1.029521e+03
         vertex 6.839028e+02 1.405812e+03 1.039519e+03
      endloop
   endfacet
   facet normal 5.735766e-01 0.000000e+00 -8.191519e-01
      outer loop
         vertex 6.696241e+02 2.058119e+02 1.029521e+03
         vertex 6.839028e+02 1.405812e+03 1.039519e+03
         vertex 6.839028e+02 2.058119e+02 1.039519e+03
      endloop
   endfacet
   facet normal 7.071068e-01 0.000000e+00 -7.071068e-01
      outer loop
         vertex 6.839028e+02 2.058119e+02 1.039519e+03
         vertex 6.839028e+02 1.405812e+03 1.039519e+03
         vertex 6.962285e+02 1.405812e+03 1.051845e+03
      endloop
   endfacet
   facet normal 7.071068e-01 0.000000e+00 -7.071068e-01
      outer loop
         vertex 6.839028e+02 2.058119e+02 1.039519e+03
         vertex 6.962285e+02 1.405812e+03 1.051845e+03
         vertex 6.962285e+02 2.058119e+02 1.051845e+03
      endloop
   endfacet
   facet normal 8.191519e-01 0.000000e+00 -5.735766e-01
      outer loop
         vertex 6.962285e+02 2.058119e+02 1.051845e+03
         vertex 6.962285e+02 1.405812e+03 1.051845e+03
         vertex 7.062266e+02 1.405812e+03 1.066124e+03
      endloop
   endfacet
   facet normal 8.191519e-01 0.000000e+00 -5.735766e-01
      outer loop
         vertex 6.962285e+02 2.058119e+02 1.051845e+03
         vertex 7.062266e+02 1.405812e+03 1.066124e+03
         vertex 7.062266e+02 2.058119e+02 1.066124e+03
      endloop
   endfacet
   facet normal 9.063077e-01 0.000000e+00 -4.226183e-01
      outer loop
         vertex 7.062266e+02 2.058119e+02 1.066124e+03
         vertex 7.062266e+02 1.405812e+03 1.066124e+03
         vertex 7.135933e+02 1.405812e+03 1.081922e+03
      endloop
   endfacet
   facet normal 9.063077e-01 0.000000e+00 -4.226183e-01
      outer loop
         vertex 7.062266e+02 2.058119e+02 1.066124e+03
         vertex 7.135933e+02 1.405812e+03 1.081922e+03
         vertex 7.135933e+02 2.058119e+02 1.081922e+03
      endloop
   endfacet
   facet normal 9.659258e-01 0.000000e+00 -2.588191e-01
      outer loop
         vertex 7.135933e+02 2.058119e+02 1.081922e+03
         vertex 7.135933e+02 1.405812e+03 1.081922e+03
         vertex 7.181048e+02 1.405812e+03 1.098759e+03
      endloop
   endfacet
   facet normal 9.659258e-01 0.000000e+00 -2.588191e-01
      outer loop
         vertex 7.135933e+02 2.058119e+02 1.081922e+03
         vertex 7.181048e+02 1.405812e+03 1.098759e+03
         vertex 7.181048e+02 2.058119e+02 1.098759e+03
      endloop
   endfacet
   facet normal 9.961947e-01 0.000000e+00 -8.715579e-02
      outer loop
         vertex 7.181048e+02 2.058119e+02 1.098759e+03
         vertex 7.181048e+02 1.405812e+03 1.098759e+03
         vertex 7.196241e+02 1.405812e+03 1.116124e+03
      endloop
   endfacet
   facet normal 9.961947e-01 0.000000e+00 -8.715579e-02
      outer loop
         vertex 7.181048e+02 2.058119e+02 1.098759e+03
         vertex 7.196241e+02 1.405812e+03 1.116124e+03
         vertex 7.196241e+02 2.058119e+02 1.116124e+03
      endloop
   endfacet
   facet normal 9.961947e-01 -0.000000e+00 8.715579e-02
      outer loop
         vertex 7.196241e+02 2.058119e+02 1.116124e+03
         vertex 7.196241e+02 1.405812e+03 1.116124e+03
         vertex 7.181048e+02 1.405812e+03 1.133489e+03
      endloop
   endfacet
   facet normal 9.961947e-01 0.000000e+00 8.715579e-02
      outer loop
         vertex 7.196241e+02 2.058119e+02 1.116124e+03
         vertex 7.181048e+02 1.405812e+03 1.133489e+03
         vertex 7.181048e+02 2.058119e+02 1.133489e+03
      endloop
   endfacet
   facet normal 9.659258e-01 -0.000000e+00 2.588191e-01
      outer loop
         vertex 7.181048e+02 2.058119e+02 1.133489e+03
         vertex 7.181048e+02 1.405812e+03 1.133489e+03
         vertex 7.135933e+02 1.405812e+03 1.150326e+03
      endloop
   endfacet
   facet normal 9.659258e-01 0.000000e+00 2.588191e-01
      outer loop
         vertex 7.181048e+02 2.058119e+02 1.133489e+03
         vertex 7.135933e+02 1.405812e+03 1.150326e+03
         vertex 7.135933e+02 2.058119e+02 1.150326e+03
      endloop
   endfacet
   facet normal 9.063077e-01 -0.000000e+00 4.226183e-01
      outer loop
         vertex 7.135933e+02 2.058119e+02 1.150326e+03
         vertex 7.135933e+02 1.405812e+03 1.150326e+03
         vertex 7.062266e+02 1.405812e+03 1.166124e+03
      endloop
   endfacet
   facet normal 9.063077e-01 0.000000e+00 4.226183e-01
      outer loop
         vertex 7.135933e+02 2.058119e+02 1.150326e+03
         vertex 7.062266e+02 1.405812e+03 1.166124e+03
         vertex 7.062266e+02 2.058119e+02 1.166124e+03
      endloop
   endfacet
   facet normal 8.191519e-01 -0.000000e+00 5.735766e-01
      outer loop
         vertex 7.062266e+02 2.058119e+02 1.166124e+03
         vertex 7.062266e+02 1.405812e+03 1.166124e+03
         vertex 6.962285e+02 1.405812e+03 1.180403e+03
      endloop
   endfacet
   facet normal 8.191519e-01 0.000000e+00 5.735766e-01
      outer loop
         vertex 7.062266e+02 2.058119e+02 1.166124e+03
         vertex 6.962285e+02 1.405812e+03 1.180403e+03
         vertex 6.962285e+02 2.058119e+02 1.180403e+03
      endloop
   endfacet
   facet normal 7.071068e-01 -0.000000e+00 7.071068e-01
      outer loop
         vertex 6.962285e+02 2.058119e+02 1.180403e+03
         vertex 6.962285e+02 1.405812e+03 1.180403e+03
         vertex 6.839028e+02 1.405812e+03 1.192728e+03
      endloop
   endfacet
   facet normal 7.071068e-01 0.000000e+00 7.071068e-01
      outer loop
         vertex 6.962285e+02 2.058119e+02 1.180403e+03
         vertex 6.839028e+02 1.405812e+03 1.192728e+03
         vertex 6.839028e+02 2.058119e+02 1.192728e+03
      endloop
   endfacet
   facet normal 5.735766e-01 -0.000000e+00 8.191519e-01
      outer loop
         vertex 6.839028e+02 2.058119e+02 1.192728e+03
         vertex 6.839028e+02 1.405812e+03 1.192728e+03
         vertex 6.696241e+02 1.405812e+03 1.202726e+03
      endloop
   endfacet
   facet normal 5.735766e-01 0.000000e+00 8.191519e-01
      outer loop
         vertex 6.839028e+02 2.058119e+02 1.192728e+03
         vertex 6.696241e+02 1.405812e+03 1.202726e+03
         vertex 6.696241e+02 2.058119e+02 1.202726e+03
      endloop
   endfacet
   facet normal 4.226183e-01 -0.000000e+00 9.063077e-01
      outer loop
         vertex 6.696241e+02 2.058119e+02 1.202726e+03
         vertex 6.696241e+02 1.405812e+03 1.202726e+03
         vertex 6.538261e+02 1.405812e+03 1.210093e+03
      endloop
   endfacet
   facet normal 4.226183e-01 0.000000e+00 9.063077e-01
      outer loop
         vertex 6.696241e+02 2.058119e+02 1.202726e+03
         vertex 6.538261e+02 1.405812e+03 1.210093e+03
         vertex 6.538261e+02 2.058119e+02 1.210093e+03
      endloop
   endfacet
   facet normal 2.588191e-01 -0.000000e+00 9.659258e-01
      outer loop
         vertex 6.538261e+02 2.058119e+02 1.210093e+03
         vertex 6.538261e+02 1.405812e+03 1.210093e+03
         vertex 6.369889e+02 1.405812e+03 1.214605e+03
      endloop
   endfacet
   facet normal 2.588191e-01 0.000000e+00 9.659258e-01
      outer loop
         vertex 6.538261e+02 2.058119e+02 1.210093e+03
         vertex 6.369889e+02 1.405812e+03 1.214605e+03
         vertex 6.369889e+02 2.058119e+02 1.214605e+03
      endloop
   endfacet
   facet normal 8.715579e-02 -0.000000e+00 9.961947e-01
      outer loop
         vertex 6.369889e+02 2.058119e+02 1.214605e+03
         vertex 6.369889e+02 1.405812e+03 1.214605e+03
         vertex 6.196241e+02 1.405812e+03 1.216124e+03
      endloop
   endfacet
   facet normal 8.715579e-02 0.000000e+00 9.961947e-01
      outer loop
         vertex 6.369889e+02 2.058119e+02 1.214605e+03
         vertex 6.196241e+02 1.405812e+03 1.216124e+03
         vertex 6.196241e+02 2.058119e+02 1.216124e+03
      endloop
   endfacet
   facet normal -8.715579e-02 0.000000e+00 9.961947e-01
      outer loop
         vertex 6.196241e+02 2.058119e+02 1.216124e+03
         vertex 6.196241e+02 1.405812e+03 1.216124e+03
         vertex 6.022593e+02 1.405812e+03 1.214605e+03
      endloop
   endfacet
   facet normal -8.715579e-02 0.000000e+00 9.961947e-01
      outer loop
         vertex 6.196241e+02 2.058119e+02 1.216124e+03
         vertex 6.022593e+02 1.405812e+03 1.214605e+03
         vertex 6.022593e+02 2.058119e+02 1.214605e+03
      endloop
   endfacet
   facet normal -2.588191e-01 0.000000e+00 9.659258e-01
      outer loop
         vertex 6.022593e+02 2.058119e+02 1.214605e+03
         vertex 6.022593e+02 1.405812e+03 1.214605e+03
         vertex 5.854221e+02 1.405812e+03 1.210093e+03
      endloop
   endfacet
   facet normal -2.588191e-01 0.000000e+00 9.659258e-01
      outer loop
         vertex 6.022593e+02 2.058119e+02 1.214605e+03
         vertex 5.854221e+02 1.405812e+03 1.210093e+03
         vertex 5.854221e+02 2.058119e+02 1.210093e+03
      endloop
   endfacet
   facet normal -4.226183e-01 0.000000e+00 9.063077e-01
      outer loop
         vertex 5.854221e+02 2.058119e+02 1.210093e+03
         vertex 5.854221e+02 1.405812e+03 1.210093e+03
         vertex 5.696241e+02 1.405812e+03 1.202726e+03
      endloop
   endfacet
   facet normal -4.226183e-01 0.000000e+00 9.063077e-01
      outer loop
         vertex 5.854221e+02 2.058119e+02 1.210093e+03
         vertex 5.696241e+02 1.405812e+03 1.202726e+03
         vertex 5.696241e+02 2.058119e+02 1.202726e+03
      endloop
   endfacet
   facet normal -5.735766e-01 0.000000e+00 8.191519e-01
      outer loop
         vertex 5.696241e+02 2.058119e+02 1.202726e+03
         vertex 5.696241e+02 1.405812e+03 1.202726e+03
         vertex 5.553453e+02 1.405812e+03 1.192728e+03
      endloop
   endfacet
   facet normal -5.735766e-01 0.000000e+00 8.191519e-01
      outer loop
         vertex 5.696241e+02 2.058119e+02 1.202726e+03
         vertex 5.553453e+02 1.405812e+03 1.192728e+03
         vertex 5.553453e+02 2.058119e+02 1.192728e+03
      endloop
   endfacet
   facet normal -7.071068e-01 0.000000e+00 7.071068e-01
      outer loop
         vertex 5.553453e+02 2.058119e+02 1.192728e+03
         vertex 5.553453e+02 1.405812e+03 1.192728e+03
         vertex 5.430196e+02 1.405812e+03 1.180403e+03
      endloop
   endfacet
   facet normal -7.071068e-01 0.000000e+00 7.071068e-01
      outer loop
         vertex 5.553453e+02 2.058119e+02 1.192728e+03
         vertex 5.430196e+02 1.405812e+03 1.180403e+03
         vertex 5.430196e+02 2.058119e+02 1.180403e+03
      endloop
   endfacet
   facet normal -8.191519e-01 0.000000e+00 5.735766e-01
      outer loop
         vertex 5.430196e+02 2.058119e+02 1.180403e+03
         vertex 5.430196e+02 1.405812e+03 1.180403e+03
         vertex 5.330215e+02 1.405812e+03 1.166124e+03
      endloop
   endfacet
   facet normal -8.191519e-01 0.000000e+00 5.735766e-01
      outer loop
         vertex 5.430196e+02 2.058119e+02 1.180403e+03
         vertex 5.330215e+02 1.405812e+03 1.166124e+03
         vertex 5.330215e+02 2.058119e+02 1.166124e+03
      endloop
   endfacet
   facet normal -9.063077e-01 0.000000e+00 4.226183e-01
      outer loop
         vertex 5.330215e+02 2.058119e+02 1.166124e+03
         vertex 5.330215e+02 1.405812e+03 1.166124e+03
         vertex 5.256548e+02 1.405812e+03 1.150326e+03
      endloop
   endfacet
   facet normal -9.063077e-01 0.000000e+00 4.226183e-01
      outer loop
         vertex 5.330215e+02 2.058119e+02 1.166124e+03
         vertex 5.256548e+02 1.405812e+03 1.150326e+03
         vertex 5.256548e+02 2.058119e+02 1.150326e+03
      endloop
   endfacet
   facet normal -9.659258e-01 0.000000e+00 2.588191e-01
      outer loop
         vertex 5.256548e+02 2.058119e+02 1.150326e+03
         vertex 5.256548e+02 1.405812e+03 1.150326e+03
         vertex 5.211433e+02 1.405812e+03 1.133489e+03
      endloop
   endfacet
   facet normal -9.659258e-01 0.000000e+00 2.588191e-01
      outer loop
         vertex 5.256548e+02 2.058119e+02 1.150326e+03
         vertex 5.211433e+02 1.405812e+03 1.133489e+03
         vertex 5.211433e+02 2.058119e+02 1.133489e+03
      endloop
   endfacet
   facet normal -9.961947e-01 0.000000e+00 8.715579e-02
      outer loop
         vertex 5.211433e+02 2.058119e+02 1.133489e+03
         vertex 5.211433e+02 1.405812e+03 1.133489e+03
         vertex 5.196241e+02 1.405812e+03 1.116124e+03
      endloop
   endfacet
   facet normal -9.961947e-01 0.000000e+00 8.715579e-02
      outer loop
         vertex 5.211433e+02 2.058119e+02 1.133489e+03
         vertex 5.196241e+02 1.405812e+03 1.116124e+03
         vertex 5.196241e+02 2.058119e+02 1.116124e+03
      endloop
   endfacet
   facet normal -9.961947e-01 0.000000e+00 -8.715579e-02
      outer loop
         vertex 5.196241e+02 2.058119e+02 1.116124e+03
         vertex 5.196241e+02 1.405812e+03 1.116124e+03
         vertex 5.211433e+02 1.405812e+03 1.098759e+03
      endloop
   endfacet
   facet normal -9.961947e-01 0.000000e+00 -8.715579e-02
      outer loop
         vertex 5.196241e+02 2.058119e+02 1.116124e+03
         vertex 5.211433e+02 1.405812e+03 1.098759e+03
         vertex 5.211433e+02 2.058119e+02 1.098759e+03
      endloop
   endfacet
   facet normal -9.659258e-01 0.000000e+00 -2.588191e-01
      outer loop
         vertex 5.211433e+02 2.058119e+02 1.098759e+03
         vertex 5.211433e+02 1.405812e+03 1.098759e+03
         vertex 5.256548e+02 1.405812e+03 1.081922e+03
      endloop
   endfacet
   facet normal -9.659258e-01 0.000000e+00 -2.588191e-01
      outer loop
         vertex 5.211433e+02 2.058119e+02 1.098759e+03
         vertex 5.256548e+02 1.405812e+03 1.081922e+03
         vertex 5.256548e+02 2.058119e+02 1.081922e+03
      endloop
   endfacet
   facet normal -9.063077e-01 0.000000e+00 -4.226183e-01
      outer loop
         vertex 5.256548e+02 2.058119e+02 1.081922e+03
         vertex 5.256548e+02 1.405812e+03 1.081922e+03
         vertex 5.330215e+02 1.405812e+03 1.066124e+03
      endloop
   endfacet
   facet normal -9.063077e-01 0.000000e+00 -4.226183e-01
      outer loop
         vertex 5.256548e+02 2.058119e+02 1.081922e+03
         vertex 5.330215e+02 1.405812e+03 1.066124e+03
         vertex 5.330215e+02 2.058119e+02 1.066124e+03
      endloop
   endfacet
   facet normal -8.191519e-01 0.000000e+00 -5.735766e-01
      outer loop
         vertex 5.330215e+02 2.058119e+02 1.066124e+03
         vertex 5.330215e+02 1.405812e+03 1.066124e+03
         vertex 5.430196e+02 1.405812e+03 1.051845e+03
      endloop
   endfacet
   facet normal -8.191519e-01 0.000000e+00 -5.735766e-01
      outer loop
         vertex 5.330215e+02 2.058119e+02 1.066124e+03
         vertex 5.430196e+02 1.405812e+03 1.051845e+03
         vertex 5.430196e+02 2.058119e+02 1.051845e+03
      endloop
   endfacet
   facet normal -7.071068e-01 0.000000e+00 -7.071068e-01
      outer loop
         vertex 5.430196e+02 2.058119e+02 1.051845e+03
         vertex 5.430196e+02 1.405812e+03 1.051845e+03
         vertex 5.553453e+02 1.405812e+03 1.039519e+03
      endloop
   endfacet
   facet normal -7.071068e-01 0.000000e+00 -7.071068e-01
      outer loop
         vertex 5.430196e+02 2.058119e+02 1.051845e+03
         vertex 5.553453e+02 1.405812e+03 1.039519e+03
         vertex 5.553453e+02 2.058119e+02 1.039519e+03
      endloop
   endfacet
   facet normal -5.735766e-01 0.000000e+00 -8.191519e-01
      outer loop
         vertex 5.553453e+02 2.058119e+02 1.039519e+03
         vertex 5.553453e+02 1.405812e+03 1.039519e+03
         vertex 5.696241e+02 1.405812e+03 1.029521e+03
      endloop
   endfacet
   facet normal -5.735766e-01 0.000000e+00 -8.191519e-01
      outer loop
         vertex 5.553453e+02 2.058119e+02 1.039519e+03
         vertex 5.696241e+02 1.405812e+03 1.029521e+03
         vertex 5.696241e+02 2.058119e+02 1.029521e+03
      endloop
   endfacet
   facet normal -4.226183e-01 0.000000e+00 -9.063077e-01
      outer loop
         vertex 5.696241e+02 2.058119e+02 1.029521e+03
         vertex 5.696241e+02 1.405812e+03 1.029521e+03
         vertex 5.854221e+02 1.405812e+03 1.022155e+03
      endloop
   endfacet
   facet normal -4.226183e-01 0.000000e+00 -9.063077e-01
      outer loop
         vertex 5.696241e+02 2.058119e+02 1.029521e+03
         vertex 5.854221e+02 1.405812e+03 1.022155e+03
         vertex 5.854221e+02 2.058119e+02 1.022155e+03
      endloop
   endfacet
   facet normal -2.588191e-01 0.000000e+00 -9.659258e-01
      outer loop
         vertex 5.854221e+02 2.058119e+02 1.022155e+03
         vertex 5.854221e+02 1.405812e+03 1.022155e+03
         vertex 6.022593e+02 1.405812e+03 1.017643e+03
      endloop
   endfacet
   facet normal -2.588191e-01 0.000000e+00 -9.659258e-01
      outer loop
         vertex 5.854221e+02 2.058119e+02 1.022155e+03
         vertex 6.022593e+02 1.405812e+03 1.017643e+03
         vertex 6.022593e+02 2.058119e+02 1.017643e+03
      endloop
   endfacet
   facet normal -8.715579e-02 0.000000e+00 -9.961947e-01
      outer loop
         vertex 6.022593e+02 2.058119e+02 1.017643e+03
         vertex 6.022593e+02 1.405812e+03 1.017643e+03
         vertex 6.196241e+02 1.405812e+03 1.016124e+03
      endloop
   endfacet
   facet normal -8.715579e-02 0.000000e+00 -9.961947e-01
      outer loop
         vertex 6.022593e+02 2.058119e+02 1.017643e+03
         vertex 6.196241e+02 1.405812e+03 1.016124e+03
         vertex 6.196241e+02 2.058119e+02 1.016124e+03
      endloop
   endfacet
   facet normal 8.715579e-02 0.000000e+00 -9.961947e-01
      outer loop
         vertex 6.196241e+02 2.058119e+02 1.016124e+03
         vertex 6.196241e+02 1.405812e+03 1.016124e+03
         vertex 6.369889e+02 1.405812e+03 1.017643e+03
      endloop
   endfacet
   facet normal -0.000000e+00 1.000000e+00 0.000000e+00
      outer loop
         vertex 5.854221e+02 1.405812e+03 1.210093e+03
         vertex 6.022593e+02 1.405812e+03 1.214605e+03
         vertex 6.196241e+02 1.405812e+03 1.116124e+03
      endloop
   endfacet
   facet normal 0.000000e+00 1.000000e+00 -0.000000e+00
      outer loop
         vertex 6.196241e+02 1.405812e+03 1.116124e+03
         vertex 6.022593e+02 1.405812e+03 1.214605e+03
         vertex 6.196241e+02 1.405812e+03 1.216124e+03
      endloop
   endfacet
   facet normal 0.000000e+00 1.000000e+00 0.000000e+00
      outer loop
         vertex 6.196241e+02 1.405812e+03 1.116124e+03
         vertex 6.196241e+02 1.405812e+03 1.216124e+03
         vertex 6.369889e+02 1.405812e+03 1.214605e+03
      endloop
   endfacet
   facet normal -0.000000e+00 1.000000e+00 0.000000e+00
      outer loop
         vertex 5.430196e+02 1.405812e+03 1.180403e+03
         vertex 5.553453e+02 1.405812e+03 1.192728e+03
         vertex 6.196241e+02 1.405812e+03 1.116124e+03
      endloop
   endfacet
   facet normal 0.000000e+00 1.000000e+00 0.000000e+00
      outer loop
         vertex 6.196241e+02 1.405812e+03 1.116124e+03
         vertex 5.553453e+02 1.405812e+03 1.192728e+03
         vertex 5.696241e+02 1.405812e+03 1.202726e+03
      endloop
   endfacet
   facet normal 0.000000e+00 1.000000e+00 0.000000e+00
      outer loop
         vertex 6.196241e+02 1.405812e+03 1.116124e+03
         vertex 5.696241e+02 1.405812e+03 1.202726e+03
         vertex 5.854221e+02 1.405812e+03 1.210093e+03
      endloop
   endfacet
   facet normal -0.000000e+00 1.000000e+00 0.000000e+00
      outer loop
         vertex 5.211433e+02 1.405812e+03 1.133489e+03
         vertex 5.256548e+02 1.405812e+03 1.150326e+03
         vertex 6.196241e+02 1.405812e+03 1.116124e+03
      endloop
   endfacet
   facet normal 0.000000e+00 1.000000e+00 0.000000e+00
      outer loop
         vertex 6.196241e+02 1.405812e+03 1.116124e+03
         vertex 5.256548e+02 1.405812e+03 1.150326e+03
         vertex 5.330215e+02 1.405812e+03 1.166124e+03
      endloop
   endfacet
   facet normal 0.000000e+00 1.000000e+00 0.000000e+00
      outer loop
         vertex 6.196241e+02 1.405812e+03 1.116124e+03
         vertex 5.330215e+02 1.405812e+03 1.166124e+03
         vertex 5.430196e+02 1.405812e+03 1.180403e+03
      endloop
   endfacet
   facet normal 0.000000e+00 1.000000e+00 -0.000000e+00
      outer loop
         vertex 5.256548e+02 1.405812e+03 1.081922e+03
         vertex 5.211433e+02 1.405812e+03 1.098759e+03
         vertex 6.196241e+02 1.405812e+03 1.116124e+03
      endloop
   endfacet
   facet normal 0.000000e+00 1.000000e+00 0.000000e+00
      outer loop
         vertex 6.196241e+02 1.405812e+03 1.116124e+03
         vertex 5.211433e+02 1.405812e+03 1.098759e+03
         vertex 5.196241e+02 1.405812e+03 1.116124e+03
      endloop
   endfacet
   facet normal 0.000000e+00 1.000000e+00 0.000000e+00
      outer loop
         vertex 6.196241e+02 1.405812e+03 1.116124e+03
         vertex 5.196241e+02 1.405812e+03 1.116124e+03
         vertex 5.211433e+02 1.405812e+03 1.133489e+03
      endloop
   endfacet
   facet normal 0.000000e+00 1.000000e+00 -0.000000e+00
      outer loop
         vertex 5.553453e+02 1.405812e+03 1.039519e+03
         vertex 5.430196e+02 1.405812e+03 1.051845e+03
         vertex 6.196241e+02 1.405812e+03 1.116124e+03
      endloop
   endfacet
   facet normal 0.000000e+00 1.000000e+00 0.000000e+00
      outer loop
         vertex 6.196241e+02 1.405812e+03 1.116124e+03
         vertex 5.430196e+02 1.405812e+03 1.051845e+03
         vertex 5.330215e+02 1.405812e+03 1.066124e+03
      endloop
   endfacet
   facet normal 0.000000e+00 1.000000e+00 0.000000e+00
      outer loop
         vertex 6.196241e+02 1.405812e+03 1.116124e+03
         vertex 5.330215e+02 1.405812e+03 1.066124e+03
         vertex 5.256548e+02 1.405812e+03 1.081922e+03
      endloop
   endfacet
   facet normal 0.000000e+00 1.000000e+00 -0.000000e+00
      outer loop
         vertex 6.022593e+02 1.405812e+03 1.017643e+03
         vertex 5.854221e+02 1.405812e+03 1.022155e+03
         vertex 6.196241e+02 1.405812e+03 1.116124e+03
      endloop
   endfacet
   facet normal 0.000000e+00 1.000000e+00 0.000000e+00
      outer loop
         vertex 6.196241e+02 1.405812e+03 1.116124e+03
         vertex 5.854221e+02 1.405812e+03 1.022155e+03
         vertex 5.696241e+02 1.405812e+03 1.029521e+03
      endloop
   endfacet
   facet normal 0.000000e+00 1.000000e+00 0.000000e+00
      outer loop
         vertex 6.196241e+02 1.405812e+03 1.116124e+03
         vertex 5.696241e+02 1.405812e+03 1.029521e+03
         vertex 5.553453e+02 1.405812e+03 1.039519e+03
      endloop
   endfacet
   facet normal 0.000000e+00 1.000000e+00 0.000000e+00
      outer loop
         vertex 6.538261e+02 1.405812e+03 1.022155e+03
         vertex 6.369889e+02 1.405812e+03 1.017643e+03
         vertex 6.196241e+02 1.405812e+03 1.116124e+03
      endloop
   endfacet
   facet normal 0.000000e+00 1.000000e+00 0.000000e+00
      outer loop
         vertex 6.196241e+02 1.405812e+03 1.116124e+03
         vertex 6.369889e+02 1.405812e+03 1.017643e+03
         vertex 6.196241e+02 1.405812e+03 1.016124e+03
      endloop
   endfacet
   facet normal 0.000000e+00 1.000000e+00 0.000000e+00
      outer loop
         vertex 6.196241e+02 1.405812e+03 1.116124e+03
         vertex 6.196241e+02 1.405812e+03 1.016124e+03
         vertex 6.022593e+02 1.405812e+03 1.017643e+03
      endloop
   endfacet
   facet normal 0.000000e+00 1.000000e+00 0.000000e+00
      outer loop
         vertex 6.962285e+02 1.405812e+03 1.051845e+03
         vertex 6.839028e+02 1.405812e+03 1.039519e+03
         vertex 6.196241e+02 1.405812e+03 1.116124e+03
      endloop
   endfacet
   facet normal 0.000000e+00 1.000000e+00 0.000000e+00
      outer loop
         vertex 6.196241e+02 1.405812e+03 1.116124e+03
         vertex 6.839028e+02 1.405812e+03 1.039519e+03
         vertex 6.696241e+02 1.405812e+03 1.029521e+03
      endloop
   endfacet
   facet normal 0.000000e+00 1.000000e+00 0.000000e+00
      outer loop
         vertex 6.196241e+02 1.405812e+03 1.116124e+03
         vertex 6.696241e+02 1.405812e+03 1.029521e+03
         vertex 6.538261e+02 1.405812e+03 1.022155e+03
      endloop
   endfacet
   facet normal 0.000000e+00 1.000000e+00 0.000000e+00
      outer loop
         vertex 7.181048e+02 1.405812e+03 1.098759e+03
         vertex 7.135933e+02 1.405812e+03 1.081922e+03
         vertex 6.196241e+02 1.405812e+03 1.116124e+03
      endloop
   endfacet
   facet normal 0.000000e+00 1.000000e+00 0.000000e+00
      outer loop
         vertex 6.196241e+02 1.405812e+03 1.116124e+03
         vertex 7.135933e+02 1.405812e+03 1.081922e+03
         vertex 7.062266e+02 1.405812e+03 1.066124e+03
      endloop
   endfacet
   facet normal 0.000000e+00 1.000000e+00 0.000000e+00
      outer loop
         vertex 6.196241e+02 1.405812e+03 1.116124e+03
         vertex 7.062266e+02 1.405812e+03 1.066124e+03
         vertex 6.962285e+02 1.405812e+03 1.051845e+03
      endloop
   endfacet
   facet normal 0.000000e+00 1.000000e+00 0.000000e+00
      outer loop
         vertex 7.135933e+02 1.405812e+03 1.150326e+03
         vertex 7.181048e+02 1.405812e+03 1.133489e+03
         vertex 6.196241e+02 1.405812e+03 1.116124e+03
      endloop
   endfacet
   facet normal -0.000000e+00 1.000000e+00 0.000000e+00
      outer loop
         vertex 6.196241e+02 1.405812e+03 1.116124e+03
         vertex 7.181048e+02 1.405812e+03 1.133489e+03
         vertex 7.196241e+02 1.405812e+03 1.116124e+03
      endloop
   endfacet
   facet normal 0.000000e+00 1.000000e+00 0.000000e+00
      outer loop
         vertex 6.196241e+02 1.405812e+03 1.116124e+03
         vertex 7.196241e+02 1.405812e+03 1.116124e+03
         vertex 7.181048e+02 1.405812e+03 1.098759e+03
      endloop
   endfacet
   facet normal 0.000000e+00 1.000000e+00 0.000000e+00
      outer loop
         vertex 6.839028e+02 1.405812e+03 1.192728e+03
         vertex 6.962285e+02 1.405812e+03 1.180403e+03
         vertex 6.196241e+02 1.405812e+03 1.116124e+03
      endloop
   endfacet
   facet normal 0.000000e+00 1.000000e+00 0.000000e+00
      outer loop
         vertex 6.196241e+02 1.405812e+03 1.116124e+03
         vertex 6.962285e+02 1.405812e+03 1.180403e+03
         vertex 7.062266e+02 1.405812e+03 1.166124e+03
      endloop
   endfacet
   facet normal 0.000000e+00 1.000000e+00 0.000000e+00
      outer loop
         vertex 6.196241e+02 1.405812e+03 1.116124e+03
         vertex 7.062266e+02 1.405812e+03 1.166124e+03
         vertex 7.135933e+02 1.405812e+03 1.150326e+03
      endloop
   endfacet
   facet normal 0.000000e+00 1.000000e+00 0.000000e+00
      outer loop
         vertex 6.369889e+02 1.405812e+03 1.214605e+03
         vertex 6.538261e+02 1.405812e+03 1.210093e+03
         vertex 6.196241e+02 1.405812e+03 1.116124e+03
      endloop
   endfacet
   facet normal 0.000000e+00 1.000000e+00 0.000000e+00
      outer loop
         vertex 6.196241e+02 1.405812e+03 1.116124e+03
         vertex 6.538261e+02 1.405812e+03 1.210093e+03
         vertex 6.696241e+02 1.405812e+03 1.202726e+03
      endloop
   endfacet
   facet normal 0.000000e+00 1.000000e+00 0.000000e+00
      outer loop
         vertex 6.196241e+02 1.405812e+03 1.116124e+03
         vertex 6.696241e+02 1.405812e+03 1.202726e+03
         vertex 6.839028e+02 1.405812e+03 1.192728e+03
      endloop
   endfacet
   facet normal -0.000000e+00 -1.000000e+00 0.000000e+00
      outer loop
         vertex 6.538261e+02 2.058119e+02 1.210093e+03
         vertex 6.369889e+02 2.058119e+02 1.214605e+03
         vertex 6.196241e+02 2.058119e+02 1.116124e+03
      endloop
   endfacet
   facet normal 0.000000e+00 -1.000000e+00 0.000000e+00
      outer loop
         vertex 6.196241e+02 2.058119e+02 1.116124e+03
         vertex 6.369889e+02 2.058119e+02 1.214605e+03
         vertex 6.196241e+02 2.058119e+02 1.216124e+03
      endloop
   endfacet
   facet normal 0.000000e+00 -1.000000e+00 0.000000e+00
      outer loop
         vertex 6.196241e+02 2.058119e+02 1.116124e+03
         vertex 6.196241e+02 2.058119e+02 1.216124e+03
         vertex 6.022593e+02 2.058119e+02 1.214605e+03
      endloop
   endfacet
   facet normal -0.000000e+00 -1.000000e+00 0.000000e+00
      outer loop
         vertex 6.962285e+02 2.058119e+02 1.180403e+03
         vertex 6.839028e+02 2.058119e+02 1.192728e+03
         vertex 6.196241e+02 2.058119e+02 1.116124e+03
      endloop
   endfacet
   facet normal 0.000000e+00 -1.000000e+00 0.000000e+00
      outer loop
         vertex 6.196241e+02 2.058119e+02 1.116124e+03
         vertex 6.839028e+02 2.058119e+02 1.192728e+03
         vertex 6.696241e+02 2.058119e+02 1.202726e+03
      endloop
   endfacet
   facet normal 0.000000e+00 -1.000000e+00 0.000000e+00
      outer loop
         vertex 6.196241e+02 2.058119e+02 1.116124e+03
         vertex 6.696241e+02 2.058119e+02 1.202726e+03
         vertex 6.538261e+02 2.058119e+02 1.210093e+03
      endloop
   endfacet
   facet normal -0.000000e+00 -1.000000e+00 0.000000e+00
      outer loop
         vertex 7.181048e+02 2.058119e+02 1.133489e+03
         vertex 7.135933e+02 2.058119e+02 1.150326e+03
         vertex 6.196241e+02 2.058119e+02 1.116124e+03
      endloop
   endfacet
   facet normal 0.000000e+00 -1.000000e+00 0.000000e+00
      outer loop
         vertex 6.196241e+02 2.058119e+02 1.116124e+03
         vertex 7.135933e+02 2.058119e+02 1.150326e+03
         vertex 7.062266e+02 2.058119e+02 1.166124e+03
      endloop
   endfacet
   facet normal 0.000000e+00 -1.000000e+00 0.000000e+00
      outer loop
         vertex 6.196241e+02 2.058119e+02 1.116124e+03
         vertex 7.062266e+02 2.058119e+02 1.166124e+03
         vertex 6.962285e+02 2.058119e+02 1.180403e+03
      endloop
   endfacet
   facet normal 0.000000e+00 -1.000000e+00 0.000000e+00
      outer loop
         vertex 7.135933e+02 2.058119e+02 1.081922e+03
         vertex 7.181048e+02 2.058119e+02 1.098759e+03
         vertex 6.196241e+02 2.058119e+02 1.116124e+03
      endloop
   endfacet
   facet normal 0.000000e+00 -1.000000e+00 0.000000e+00
      outer loop
         vertex 6.196241e+02 2.058119e+02 1.116124e+03
         vertex 7.181048e+02 2.058119e+02 1.098759e+03
         vertex 7.196241e+02 2.058119e+02 1.116124e+03
      endloop
   endfacet
   facet normal 0.000000e+00 -1.000000e+00 0.000000e+00
      outer loop
         vertex 6.196241e+02 2.058119e+02 1.116124e+03
         vertex 7.196241e+02 2.058119e+02 1.116124e+03
         vertex 7.181048e+02 2.058119e+02 1.133489e+03
      endloop
   endfacet
   facet normal 0.000000e+00 -1.000000e+00 0.000000e+00
      outer loop
         vertex 6.839028e+02 2.058119e+02 1.039519e+03
         vertex 6.962285e+02 2.058119e+02 1.051845e+03
         vertex 6.196241e+02 2.058119e+02 1.116124e+03
      endloop
   endfacet
   facet normal 0.000000e+00 -1.000000e+00 0.000000e+00
      outer loop
         vertex 6.196241e+02 2.058119e+02 1.116124e+03
         vertex 6.962285e+02 2.058119e+02 1.051845e+03
         vertex 7.062266e+02 2.058119e+02 1.066124e+03
      endloop
   endfacet
   facet normal 0.000000e+00 -1.000000e+00 0.000000e+00
      outer loop
         vertex 6.196241e+02 2.058119e+02 1.116124e+03
         vertex 7.062266e+02 2.058119e+02 1.066124e+03
         vertex 7.135933e+02 2.058119e+02 1.081922e+03
      endloop
   endfacet
   facet normal 0.000000e+00 -1.000000e+00 0.000000e+00
      outer loop
         vertex 6.369889e+02 2.058119e+02 1.017643e+03
         vertex 6.538261e+02 2.058119e+02 1.022155e+03
         vertex 6.196241e+02 2.058119e+02 1.116124e+03
      endloop
   endfacet
   facet normal 0.000000e+00 -1.000000e+00 0.000000e+00
      outer loop
         vertex 6.196241e+02 2.058119e+02 1.116124e+03
         vertex 6.538261e+02 2.058119e+02 1.022155e+03
         vertex 6.696241e+02 2.058119e+02 1.029521e+03
      endloop
   endfacet
   facet normal 0.000000e+00 -1.000000e+00 0.000000e+00
      outer loop
         vertex 6.196241e+02 2.058119e+02 1.116124e+03
         vertex 6.696241e+02 2.058119e+02 1.029521e+03
         vertex 6.839028e+02 2.058119e+02 1.039519e+03
      endloop
   endfacet
   facet normal 0.000000e+00 -1.000000e+00 0.000000e+00
      outer loop
         vertex 5.854221e+02 2.058119e+02 1.022155e+03
         vertex 6.022593e+02 2.058119e+02 1.017643e+03
         vertex 6.196241e+02 2.058119e+02 1.116124e+03
      endloop
   endfacet
   facet normal 0.000000e+00 -1.000000e+00 -0.000000e+00
      outer loop
         vertex 6.196241e+02 2.058119e+02 1.116124e+03
         vertex 6.022593e+02 2.058119e+02 1.017643e+03
         vertex 6.196241e+02 2.058119e+02 1.016124e+03
      endloop
   endfacet
   facet normal 0.000000e+00 -1.000000e+00 0.000000e+00
      outer loop
         vertex 6.196241e+02 2.058119e+02 1.116124e+03
         vertex 6.196241e+02 2.058119e+02 1.016124e+03
         vertex 6.369889e+02 2.058119e+02 1.017643e+03
      endloop
   endfacet
   facet normal 0.000000e+00 -1.000000e+00 0.000000e+00
      outer loop
         vertex 5.430196e+02 2.058119e+02 1.051845e+03
         vertex 5.553453e+02 2.058119e+02 1.039519e+03
         vertex 6.196241e+02 2.058119e+02 1.116124e+03
      endloop
   endfacet
   facet normal 0.000000e+00 -1.000000e+00 0.000000e+00
      outer loop
         vertex 6.196241e+02 2.058119e+02 1.116124e+03
         vertex 5.553453e+02 2.058119e+02 1.039519e+03
         vertex 5.696241e+02 2.058119e+02 1.029521e+03
      endloop
   endfacet
   facet normal 0.000000e+00 -1.000000e+00 0.000000e+00
      outer loop
         vertex 6.196241e+02 2.058119e+02 1.116124e+03
         vertex 5.696241e+02 2.058119e+02 1.029521e+03
         vertex 5.854221e+02 2.058119e+02 1.022155e+03
      endloop
   endfacet
   facet normal 0.000000e+00 -1.000000e+00 0.000000e+00
      outer loop
         vertex 5.211433e+02 2.058119e+02 1.098759e+03
         vertex 5.256548e+02 2.058119e+02 1.081922e+03
         vertex 6.196241e+02 2.058119e+02 1.116124e+03
      endloop
   endfacet
   facet normal 0.000000e+00 -1.000000e+00 0.000000e+00
      outer loop
         vertex 6.196241e+02 2.058119e+02 1.116124e+03
         vertex 5.256548e+02 2.058119e+02 1.081922e+03
         vertex 5.330215e+02 2.058119e+02 1.066124e+03
      endloop
   endfacet
   facet normal 0.000000e+00 -1.000000e+00 0.000000e+00
      outer loop
         vertex 6.196241e+02 2.058119e+02 1.116124e+03
         vertex 5.330215e+02 2.058119e+02 1.066124e+03
         vertex 5.430196e+02 2.058119e+02 1.051845e+03
      endloop
   endfacet
   facet normal 0.000000e+00 -1.000000e+00 -0.000000e+00
      outer loop
         vertex 5.256548e+02 2.058119e+02 1.150326e+03
         vertex 5.211433e+02 2.058119e+02 1.133489e+03
         vertex 6.196241e+02 2.058119e+02 1.116124e+03
      endloop
   endfacet
   facet normal 0.000000e+00 -1.000000e+00 0.000000e+00
      outer loop
         vertex 6.196241e+02 2.058119e+02 1.116124e+03
         vertex 5.211433e+02 2.058119e+02 1.133489e+03
         vertex 5.196241e+02 2.058119e+02 1.116124e+03
      endloop
   endfacet
   facet normal -0.000000e+00 -1.000000e+00 0.000000e+00
      outer loop
         vertex 6.196241e+02 2.058119e+02 1.116124e+03
         vertex 5.196241e+02 2.058119e+02 1.116124e+03
         vertex 5.211433e+02 2.058119e+02 1.098759e+03
      endloop
   endfacet
   facet normal 0.000000e+00 -1.000000e+00 -0.000000e+00
      outer loop
         vertex 5.553453e+02 2.058119e+02 1.192728e+03
         vertex 5.430196e+02 2.058119e+02 1.180403e+03
         vertex 6.196241e+02 2.058119e+02 1.116124e+03
      endloop
   endfacet
   facet normal 0.000000e+00 -1.000000e+00 0.000000e+00
      outer loop
         vertex 6.196241e+02 2.058119e+02 1.116124e+03
         vertex 5.430196e+02 2.058119e+02 1.180403e+03
         vertex 5.330215e+02 2.058119e+02 1.166124e+03
      endloop
   endfacet
   facet normal 0.000000e+00 -1.000000e+00 0.000000e+00
      outer loop
         vertex 6.196241e+02 2.058119e+02 1.116124e+03
         vertex 5.330215e+02 2.058119e+02 1.166124e+03
         vertex 5.256548e+02 2.058119e+02 1.150326e+03
      endloop
   endfacet
   facet normal 0.000000e+00 -1.000000e+00 -0.000000e+00
      outer loop
         vertex 6.022593e+02 2.058119e+02 1.214605e+03
         vertex 5.854221e+02 2.058119e+02 1.210093e+03
         vertex 6.196241e+02 2.058119e+02 1.116124e+03
      endloop
   endfacet
   facet normal 0.000000e+00 -1.000000e+00 0.000000e+00
      outer loop
         vertex 6.196241e+02 2.058119e+02 1.116124e+03
         vertex 5.854221e+02 2.058119e+02 1.210093e+03
         vertex 5.696241e+02 2.058119e+02 1.202726e+03
      endloop
   endfacet
   facet normal 0.000000e+00 -1.000000e+00 0.000000e+00
      outer loop
         vertex 6.196241e+02 2.058119e+02 1.116124e+03
         vertex 5.696241e+02 2.058119e+02 1.202726e+03
         vertex 5.553453e+02 2.058119e+02 1.192728e+03
      endloop
   endfacet
   facet normal -0.000000e+00 -1.000000e+00 0.000000e+00
      outer loop
         vertex 6.524580e+02 1.403812e+03 1.206334e+03
         vertex 6.362943e+02 1.403812e+03 1.210665e+03
         vertex 6.196241e+02 1.403812e+03 1.116124e+03
      endloop
   endfacet
   facet normal 0.000000e+00 -1.000000e+00 0.000000e+00
      outer loop
         vertex 6.196241e+02 1.403812e+03 1.116124e+03
         vertex 6.362943e+02 1.403812e+03 1.210665e+03
         vertex 6.196241e+02 1.403812e+03 1.212124e+03
      endloop
   endfacet
   facet normal 0.000000e+00 -1.000000e+00 0.000000e+00
      outer loop
         vertex 6.196241e+02 1.403812e+03 1.116124e+03
         vertex 6.196241e+02 1.403812e+03 1.212124e+03
         vertex 6.029538e+02 1.403812e+03 1.210665e+03
      endloop
   endfacet
   facet normal -0.000000e+00 -1.000000e+00 0.000000e+00
      outer loop
         vertex 6.931643e+02 1.403812e+03 1.177831e+03
         vertex 6.813317e+02 1.403812e+03 1.189664e+03
         vertex 6.196241e+02 1.403812e+03 1.116124e+03
      endloop
   endfacet
   facet normal 0.000000e+00 -1.000000e+00 0.000000e+00
      outer loop
         vertex 6.196241e+02 1.403812e+03 1.116124e+03
         vertex 6.813317e+02 1.403812e+03 1.189664e+03
         vertex 6.676241e+02 1.403812e+03 1.199262e+03
      endloop
   endfacet
   facet normal 0.000000e+00 -1.000000e+00 0.000000e+00
      outer loop
         vertex 6.196241e+02 1.403812e+03 1.116124e+03
         vertex 6.676241e+02 1.403812e+03 1.199262e+03
         vertex 6.524580e+02 1.403812e+03 1.206334e+03
      endloop
   endfacet
   facet normal -0.000000e+00 -1.000000e+00 0.000000e+00
      outer loop
         vertex 7.141656e+02 1.403812e+03 1.132794e+03
         vertex 7.098346e+02 1.403812e+03 1.148958e+03
         vertex 6.196241e+02 1.403812e+03 1.116124e+03
      endloop
   endfacet
   facet normal 0.000000e+00 -1.000000e+00 0.000000e+00
      outer loop
         vertex 6.196241e+02 1.403812e+03 1.116124e+03
         vertex 7.098346e+02 1.403812e+03 1.148958e+03
         vertex 7.027625e+02 1.403812e+03 1.164124e+03
      endloop
   endfacet
   facet normal 0.000000e+00 -1.000000e+00 0.000000e+00
      outer loop
         vertex 6.196241e+02 1.403812e+03 1.116124e+03
         vertex 7.027625e+02 1.403812e+03 1.164124e+03
         vertex 6.931643e+02 1.403812e+03 1.177831e+03
      endloop
   endfacet
   facet normal 0.000000e+00 -1.000000e+00 0.000000e+00
      outer loop
         vertex 7.098346e+02 1.403812e+03 1.083290e+03
         vertex 7.141656e+02 1.403812e+03 1.099454e+03
         vertex 6.196241e+02 1.403812e+03 1.116124e+03
      endloop
   endfacet
   facet normal 0.000000e+00 -1.000000e+00 0.000000e+00
      outer loop
         vertex 6.196241e+02 1.403812e+03 1.116124e+03
         vertex 7.141656e+02 1.403812e+03 1.099454e+03
         vertex 7.156241e+02 1.403812e+03 1.116124e+03
      endloop
   endfacet
   facet normal 0.000000e+00 -1.000000e+00 0.000000e+00
      outer loop
         vertex 6.196241e+02 1.403812e+03 1.116124e+03
         vertex 7.156241e+02 1.403812e+03 1.116124e+03
         vertex 7.141656e+02 1.403812e+03 1.132794e+03
      endloop
   endfacet
   facet normal 0.000000e+00 -1.000000e+00 0.000000e+00
      outer loop
         vertex 6.813317e+02 1.403812e+03 1.042584e+03
         vertex 6.931643e+02 1.403812e+03 1.054416e+03
         vertex 6.196241e+02 1.403812e+03 1.116124e+03
      endloop
   endfacet
   facet normal 0.000000e+00 -1.000000e+00 0.000000e+00
      outer loop
         vertex 6.196241e+02 1.403812e+03 1.116124e+03
         vertex 6.931643e+02 1.403812e+03 1.054416e+03
         vertex 7.027625e+02 1.403812e+03 1.068124e+03
      endloop
   endfacet
   facet normal 0.000000e+00 -1.000000e+00 0.000000e+00
      outer loop
         vertex 6.196241e+02 1.403812e+03 1.116124e+03
         vertex 7.027625e+02 1.403812e+03 1.068124e+03
         vertex 7.098346e+02 1.403812e+03 1.083290e+03
      endloop
   endfacet
   facet normal 0.000000e+00 -1.000000e+00 0.000000e+00
      outer loop
         vertex 6.362943e+02 1.403812e+03 1.021582e+03
         vertex 6.524580e+02 1.403812e+03 1.025913e+03
         vertex 6.196241e+02 1.403812e+03 1.116124e+03
      endloop
   endfacet
   facet normal 0.000000e+00 -1.000000e+00 0.000000e+00
      outer loop
         vertex 6.196241e+02 1.403812e+03 1.116124e+03
         vertex 6.524580e+02 1.403812e+03 1.025913e+03
         vertex 6.676241e+02 1.403812e+03 1.032985e+03
      endloop
   endfacet
   facet normal 0.000000e+00 -1.000000e+00 0.000000e+00
      outer loop
         vertex 6.196241e+02 1.403812e+03 1.116124e+03
         vertex 6.676241e+02 1.403812e+03 1.032985e+03
         vertex 6.813317e+02 1.403812e+03 1.042584e+03
      endloop
   endfacet
   facet normal 0.000000e+00 -1.000000e+00 0.000000e+00
      outer loop
         vertex 5.867901e+02 1.403812e+03 1.025913e+03
         vertex 6.029538e+02 1.403812e+03 1.021582e+03
         vertex 6.196241e+02 1.403812e+03 1.116124e+03
      endloop
   endfacet
   facet normal 0.000000e+00 -1.000000e+00 0.000000e+00
      outer loop
         vertex 6.196241e+02 1.403812e+03 1.116124e+03
         vertex 6.029538e+02 1.403812e+03 1.021582e+03
         vertex 6.196241e+02 1.403812e+03 1.020124e+03
      endloop
   endfacet
   facet normal 0.000000e+00 -1.000000e+00 -0.000000e+00
      outer loop
         vertex 6.196241e+02 1.403812e+03 1.116124e+03
         vertex 6.196241e+02 1.403812e+03 1.020124e+03
         vertex 6.362943e+02 1.403812e+03 1.021582e+03
      endloop
   endfacet
   facet normal 0.000000e+00 -1.000000e+00 0.000000e+00
      outer loop
         vertex 5.460838e+02 1.403812e+03 1.054416e+03
         vertex 5.579165e+02 1.403812e+03 1.042584e+03
         vertex 6.196241e+02 1.403812e+03 1.116124e+03
      endloop
   endfacet
   facet normal 0.000000e+00 -1.000000e+00 0.000000e+00
      outer loop
         vertex 6.196241e+02 1.403812e+03 1.116124e+03
         vertex 5.579165e+02 1.403812e+03 1.042584e+03
         vertex 5.716241e+02 1.403812e+03 1.032985e+03
      endloop
   endfacet
   facet normal 0.000000e+00 -1.000000e+00 0.000000e+00
      outer loop
         vertex 6.196241e+02 1.403812e+03 1.116124e+03
         vertex 5.716241e+02 1.403812e+03 1.032985e+03
         vertex 5.867901e+02 1.403812e+03 1.025913e+03
      endloop
   endfacet
   facet normal 0.000000e+00 -1.000000e+00 0.000000e+00
      outer loop
         vertex 5.250825e+02 1.403812e+03 1.099454e+03
         vertex 5.294136e+02 1.403812e+03 1.083290e+03
         vertex 6.196241e+02 1.403812e+03 1.116124e+03
      endloop
   endfacet
   facet normal 0.000000e+00 -1.000000e+00 0.000000e+00
      outer loop
         vertex 6.196241e+02 1.403812e+03 1.116124e+03
         vertex 5.294136e+02 1.403812e+03 1.083290e+03
         vertex 5.364856e+02 1.403812e+03 1.068124e+03
      endloop
   endfacet
   facet normal 0.000000e+00 -1.000000e+00 0.000000e+00
      outer loop
         vertex 6.196241e+02 1.403812e+03 1.116124e+03
         vertex 5.364856e+02 1.403812e+03 1.068124e+03
         vertex 5.460838e+02 1.403812e+03 1.054416e+03
      endloop
   endfacet
   facet normal 0.000000e+00 -1.000000e+00 -0.000000e+00
      outer loop
         vertex 5.294136e+02 1.403812e+03 1.148958e+03
         vertex 5.250825e+02 1.403812e+03 1.132794e+03
         vertex 6.196241e+02 1.403812e+03 1.116124e+03
      endloop
   endfacet
   facet normal 0.000000e+00 -1.000000e+00 0.000000e+00
      outer loop
         vertex 6.196241e+02 1.403812e+03 1.116124e+03
         vertex 5.250825e+02 1.403812e+03 1.132794e+03
         vertex 5.236241e+02 1.403812e+03 1.116124e+03
      endloop
   endfacet
   facet normal -0.000000e+00 -1.000000e+00 0.000000e+00
      outer loop
         vertex 6.196241e+02 1.403812e+03 1.116124e+03
         vertex 5.236241e+02 1.403812e+03 1.116124e+03
         vertex 5.250825e+02 1.403812e+03 1.099454e+03
      endloop
   endfacet
   facet normal 0.000000e+00 -1.000000e+00 -0.000000e+00
      outer loop
         vertex 5.579165e+02 1.403812e+03 1.189664e+03
         vertex 5.460838e+02 1.403812e+03 1.177831e+03
         vertex 6.196241e+02 1.403812e+03 1.116124e+03
      endloop
   endfacet
   facet normal 0.000000e+00 -1.000000e+00 0.000000e+00
      outer loop
         vertex 6.196241e+02 1.403812e+03 1.116124e+03
         vertex 5.460838e+02 1.403812e+03 1.177831e+03
         vertex 5.364856e+02 1.403812e+03 1.164124e+03
      endloop
   endfacet
   facet normal 0.000000e+00 -1.000000e+00 0.000000e+00
      outer loop
         vertex 6.196241e+02 1.403812e+03 1.116124e+03
         vertex 5.364856e+02 1.403812e+03 1.164124e+03
         vertex 5.294136e+02 1.403812e+03 1.148958e+03
      endloop
   endfacet
   facet normal 0.000000e+00 -1.000000e+00 -0.000000e+00
      outer loop
         vertex 6.029538e+02 1.403812e+03 1.210665e+03
         vertex 5.867901e+02 1.403812e+03 1.206334e+03
         vertex 6.196241e+02 1.403812e+03 1.116124e+03
      endloop
   endfacet
   facet normal 0.000000e+00 -1.000000e+00 0.000000e+00
      outer loop
         vertex 6.196241e+02 1.403812e+03 1.116124e+03
         vertex 5.867901e+02 1.403812e+03 1.206334e+03
         vertex 5.716241e+02 1.403812e+03 1.199262e+03
      endloop
   endfacet
   facet normal 0.000000e+00 -1.000000e+00 0.000000e+00
      outer loop
         vertex 6.196241e+02 1.403812e+03 1.116124e+03
         vertex 5.716241e+02 1.403812e+03 1.199262e+03
         vertex 5.579165e+02 1.403812e+03 1.189664e+03
      endloop
   endfacet
   facet normal 0.000000e+00 1.000000e+00 0.000000e+00
      outer loop
         vertex 6.524580e+02 2.088119e+02 1.025913e+03
         vertex 6.362943e+02 2.088119e+02 1.021582e+03
         vertex 6.196241e+02 2.088119e+02 1.116124e+03
      endloop
   endfacet
   facet normal 0.000000e+00 1.000000e+00 0.000000e+00
      outer loop
         vertex 6.196241e+02 2.088119e+02 1.116124e+03
         vertex 6.362943e+02 2.088119e+02 1.021582e+03
         vertex 6.196241e+02 2.088119e+02 1.020124e+03
      endloop
   endfacet
   facet normal 0.000000e+00 1.000000e+00 0.000000e+00
      outer loop
         vertex 6.196241e+02 2.088119e+02 1.116124e+03
         vertex 6.196241e+02 2.088119e+02 1.020124e+03
         vertex 6.029538e+02 2.088119e+02 1.021582e+03
      endloop
   endfacet
   facet normal 0.000000e+00 1.000000e+00 0.000000e+00
      outer loop
         vertex 6.931643e+02 2.088119e+02 1.054416e+03
         vertex 6.813317e+02 2.088119e+02 1.042584e+03
         vertex 6.196241e+02 2.088119e+02 1.116124e+03
      endloop
   endfacet
   facet normal 0.000000e+00 1.000000e+00 0.000000e+00
      outer loop
         vertex 6.196241e+02 2.088119e+02 1.116124e+03
         vertex 6.813317e+02 2.088119e+02 1.042584e+03
         vertex 6.676241e+02 2.088119e+02 1.032985e+03
      endloop
   endfacet
   facet normal 0.000000e+00 1.000000e+00 0.000000e+00
      outer loop
         vertex 6.196241e+02 2.088119e+02 1.116124e+03
         vertex 6.676241e+02 2.088119e+02 1.032985e+03
         vertex 6.524580e+02 2.088119e+02 1.025913e+03
      endloop
   endfacet
   facet normal 0.000000e+00 1.000000e+00 0.000000e+00
      outer loop
         vertex 7.141656e+02 2.088119e+02 1.099454e+03
         vertex 7.098346e+02 2.088119e+02 1.083290e+03
         vertex 6.196241e+02 2.088119e+02 1.116124e+03
      endloop
   endfacet
   facet normal 0.000000e+00 1.000000e+00 0.000000e+00
      outer loop
         vertex 6.196241e+02 2.088119e+02 1.116124e+03
         vertex 7.098346e+02 2.088119e+02 1.083290e+03
         vertex 7.027625e+02 2.088119e+02 1.068124e+03
      endloop
   endfacet
   facet normal 0.000000e+00 1.000000e+00 0.000000e+00
      outer loop
         vertex 6.196241e+02 2.088119e+02 1.116124e+03
         vertex 7.027625e+02 2.088119e+02 1.068124e+03
         vertex 6.931643e+02 2.088119e+02 1.054416e+03
      endloop
   endfacet
   facet normal 0.000000e+00 1.000000e+00 0.000000e+00
      outer loop
         vertex 7.098346e+02 2.088119e+02 1.148958e+03
         vertex 7.141656e+02 2.088119e+02 1.132794e+03
         vertex 6.196241e+02 2.088119e+02 1.116124e+03
      endloop
   endfacet
   facet normal -0.000000e+00 1.000000e+00 0.000000e+00
      outer loop
         vertex 6.196241e+02 2.088119e+02 1.116124e+03
         vertex 7.141656e+02 2.088119e+02 1.132794e+03
         vertex 7.156241e+02 2.088119e+02 1.116124e+03
      endloop
   endfacet
   facet normal 0.000000e+00 1.000000e+00 0.000000e+00
      outer loop
         vertex 6.196241e+02 2.088119e+02 1.116124e+03
         vertex 7.156241e+02 2.088119e+02 1.116124e+03
         vertex 7.141656e+02 2.088119e+02 1.099454e+03
      endloop
   endfacet
   facet normal 0.000000e+00 1.000000e+00 0.000000e+00
      outer loop
         vertex 6.813317e+02 2.088119e+02 1.189664e+03
         vertex 6.931643e+02 2.088119e+02 1.177831e+03
         vertex 6.196241e+02 2.088119e+02 1.116124e+03
      endloop
   endfacet
   facet normal 0.000000e+00 1.000000e+00 0.000000e+00
      outer loop
         vertex 6.196241e+02 2.088119e+02 1.116124e+03
         vertex 6.931643e+02 2.088119e+02 1.177831e+03
         vertex 7.027625e+02 2.088119e+02 1.164124e+03
      endloop
   endfacet
   facet normal 0.000000e+00 1.000000e+00 0.000000e+00
      outer loop
         vertex 6.196241e+02 2.088119e+02 1.116124e+03
         vertex 7.027625e+02 2.088119e+02 1.164124e+03
         vertex 7.098346e+02 2.088119e+02 1.148958e+03
      endloop
   endfacet
   facet normal 0.000000e+00 1.000000e+00 0.000000e+00
      outer loop
         vertex 6.362943e+02 2.088119e+02 1.210665e+03
         vertex 6.524580e+02 2.088119e+02 1.206334e+03
         vertex 6.196241e+02 2.088119e+02 1.116124e+03
      endloop
   endfacet
   facet normal 0.000000e+00 1.000000e+00 0.000000e+00
      outer loop
         vertex 6.196241e+02 2.088119e+02 1.116124e+03
         vertex 6.524580e+02 2.088119e+02 1.206334e+03
         vertex 6.676241e+02 2.088119e+02 1.199262e+03
      endloop
   endfacet
   facet normal 0.000000e+00 1.000000e+00 0.000000e+00
      outer loop
         vertex 6.196241e+02 2.088119e+02 1.116124e+03
         vertex 6.676241e+02 2.088119e+02 1.199262e+03
         vertex 6.813317e+02 2.088119e+02 1.189664e+03
      endloop
   endfacet
   facet normal -0.000000e+00 1.000000e+00 0.000000e+00
      outer loop
         vertex 5.867901e+02 2.088119e+02 1.206334e+03
         vertex 6.029538e+02 2.088119e+02 1.210665e+03
         vertex 6.196241e+02 2.088119e+02 1.116124e+03
      endloop
   endfacet
   facet normal 0.000000e+00 1.000000e+00 -0.000000e+00
      outer loop
         vertex 6.196241e+02 2.088119e+02 1.116124e+03
         vertex 6.029538e+02 2.088119e+02 1.210665e+03
         vertex 6.196241e+02 2.088119e+02 1.212124e+03
      endloop
   endfacet
   facet normal 0.000000e+00 1.000000e+00 0.000000e+00
      outer loop
         vertex 6.196241e+02 2.088119e+02 1.116124e+03
         vertex 6.196241e+02 2.088119e+02 1.212124e+03
         vertex 6.362943e+02 2.088119e+02 1.210665e+03
      endloop
   endfacet
   facet normal -0.000000e+00 1.000000e+00 0.000000e+00
      outer loop
         vertex 5.460838e+02 2.088119e+02 1.177831e+03
         vertex 5.579165e+02 2.088119e+02 1.189664e+03
         vertex 6.196241e+02 2.088119e+02 1.116124e+03
      endloop
   endfacet
   facet normal 0.000000e+00 1.000000e+00 0.000000e+00
      outer loop
         vertex 6.196241e+02 2.088119e+02 1.116124e+03
         vertex 5.579165e+02 2.088119e+02 1.189664e+03
         vertex 5.716241e+02 2.088119e+02 1.199262e+03
      endloop
   endfacet
   facet normal 0.000000e+00 1.000000e+00 0.000000e+00
      outer loop
         vertex 6.196241e+02 2.088119e+02 1.116124e+03
         vertex 5.716241e+02 2.088119e+02 1.199262e+03
         vertex 5.867901e+02 2.088119e+02 1.206334e+03
      endloop
   endfacet
   facet normal -0.000000e+00 1.000000e+00 0.000000e+00
      outer loop
         vertex 5.250825e+02 2.088119e+02 1.132794e+03
         vertex 5.294136e+02 2.088119e+02 1.148958e+03
         vertex 6.196241e+02 2.088119e+02 1.116124e+03
      endloop
   endfacet
   facet normal 0.000000e+00 1.000000e+00 0.000000e+00
      outer loop
         vertex 6.196241e+02 2.088119e+02 1.116124e+03
         vertex 5.294136e+02 2.088119e+02 1.148958e+03
         vertex 5.364856e+02 2.088119e+02 1.164124e+03
      endloop
   endfacet
   facet normal 0.000000e+00 1.000000e+00 0.000000e+00
      outer loop
         vertex 6.196241e+02 2.088119e+02 1.116124e+03
         vertex 5.364856e+02 2.088119e+02 1.164124e+03
         vertex 5.460838e+02 2.088119e+02 1.177831e+03
      endloop
   endfacet
   facet normal 0.000000e+00 1.000000e+00 -0.000000e+00
      outer loop
         vertex 5.294136e+02 2.088119e+02 1.083290e+03
         vertex 5.250825e+02 2.088119e+02 1.099454e+03
         vertex 6.196241e+02 2.088119e+02 1.116124e+03
      endloop
   endfacet
   facet normal 0.000000e+00 1.000000e+00 0.000000e+00
      outer loop
         vertex 6.196241e+02 2.088119e+02 1.116124e+03
         vertex 5.250825e+02 2.088119e+02 1.099454e+03
         vertex 5.236241e+02 2.088119e+02 1.116124e+03
      endloop
   endfacet
   facet normal 0.000000e+00 1.000000e+00 0.000000e+00
      outer loop
         vertex 6.196241e+02 2.088119e+02 1.116124e+03
         vertex 5.236241e+02 2.088119e+02 1.116124e+03
         vertex 5.250825e+02 2.088119e+02 1.132794e+03
      endloop
   endfacet
   facet normal 0.000000e+00 1.000000e+00 -0.000000e+00
      outer loop
         vertex 5.579165e+02 2.088119e+02 1.042584e+03
         vertex 5.460838e+02 2.088119e+02 1.054416e+03
         vertex 6.196241e+02 2.088119e+02 1.116124e+03
      endloop
   endfacet
   facet normal 0.000000e+00 1.000000e+00 0.000000e+00
      outer loop
         vertex 6.196241e+02 2.088119e+02 1.116124e+03
         vertex 5.460838e+02 2.088119e+02 1.054416e+03
         vertex 5.364856e+02 2.088119e+02 1.068124e+03
      endloop
   endfacet
   facet normal 0.000000e+00 1.000000e+00 0.000000e+00
      outer loop
         vertex 6.196241e+02 2.088119e+02 1.116124e+03
         vertex 5.364856e+02 2.088119e+02 1.068124e+03
         vertex 5.294136e+02 2.088119e+02 1.083290e+03
      endloop
   endfacet
   facet normal 0.000000e+00 1.000000e+00 -0.000000e+00
      outer loop
         vertex 6.029538e+02 2.088119e+02 1.021582e+03
         vertex 5.867901e+02 2.088119e+02 1.025913e+03
         vertex 6.196241e+02 2.088119e+02 1.116124e+03
      endloop
   endfacet
   facet normal 0.000000e+00 1.000000e+00 0.000000e+00
      outer loop
         vertex 6.196241e+02 2.088119e+02 1.116124e+03
         vertex 5.867901e+02 2.088119e+02 1.025913e+03
         vertex 5.716241e+02 2.088119e+02 1.032985e+03
      endloop
   endfacet
   facet normal 0.000000e+00 1.000000e+00 0.000000e+00
      outer loop
         vertex 6.196241e+02 2.088119e+02 1.116124e+03
         vertex 5.716241e+02 2.088119e+02 1.032985e+03
         vertex 5.579165e+02 2.088119e+02 1.042584e+03
      endloop
   endfacet
   facet normal -8.715591e-02 0.000000e+00 9.961947e-01
      outer loop
         vertex 6.196241e+02 1.403812e+03 1.020124e+03
         vertex 6.196241e+02 2.088119e+02 1.020124e+03
         vertex 6.362943e+02 1.403812e+03 1.021582e+03
      endloop
   endfacet
   facet normal -8.715591e-02 0.000000e+00 9.961947e-01
      outer loop
         vertex 6.362943e+02 1.403812e+03 1.021582e+03
         vertex 6.196241e+02 2.088119e+02 1.020124e+03
         vertex 6.362943e+02 2.088119e+02 1.021582e+03
      endloop
   endfacet
   facet normal -2.588190e-01 0.000000e+00 9.659258e-01
      outer loop
         vertex 6.362943e+02 1.403812e+03 1.021582e+03
         vertex 6.362943e+02 2.088119e+02 1.021582e+03
         vertex 6.524580e+02 1.403812e+03 1.025913e+03
      endloop
   endfacet
   facet normal -2.588190e-01 0.000000e+00 9.659258e-01
      outer loop
         vertex 6.524580e+02 1.403812e+03 1.025913e+03
         vertex 6.362943e+02 2.088119e+02 1.021582e+03
         vertex 6.524580e+02 2.088119e+02 1.025913e+03
      endloop
   endfacet
   facet normal -4.226183e-01 0.000000e+00 9.063078e-01
      outer loop
         vertex 6.524580e+02 1.403812e+03 1.025913e+03
         vertex 6.524580e+02 2.088119e+02 1.025913e+03
         vertex 6.676241e+02 1.403812e+03 1.032985e+03
      endloop
   endfacet
   facet normal -4.226183e-01 0.000000e+00 9.063078e-01
      outer loop
         vertex 6.676241e+02 1.403812e+03 1.032985e+03
         vertex 6.524580e+02 2.088119e+02 1.025913e+03
         vertex 6.676241e+02 2.088119e+02 1.032985e+03
      endloop
   endfacet
   facet normal -5.735764e-01 0.000000e+00 8.191520e-01
      outer loop
         vertex 6.676241e+02 1.403812e+03 1.032985e+03
         vertex 6.676241e+02 2.088119e+02 1.032985e+03
         vertex 6.813317e+02 1.403812e+03 1.042584e+03
      endloop
   endfacet
   facet normal -5.735764e-01 0.000000e+00 8.191520e-01
      outer loop
         vertex 6.813317e+02 1.403812e+03 1.042584e+03
         vertex 6.676241e+02 2.088119e+02 1.032985e+03
         vertex 6.813317e+02 2.088119e+02 1.042584e+03
      endloop
   endfacet
   facet normal -7.071068e-01 0.000000e+00 7.071068e-01
      outer loop
         vertex 6.813317e+02 1.403812e+03 1.042584e+03
         vertex 6.813317e+02 2.088119e+02 1.042584e+03
         vertex 6.931643e+02 1.403812e+03 1.054416e+03
      endloop
   endfacet
   facet normal -7.071068e-01 0.000000e+00 7.071068e-01
      outer loop
         vertex 6.931643e+02 1.403812e+03 1.054416e+03
         vertex 6.813317e+02 2.088119e+02 1.042584e+03
         vertex 6.931643e+02 2.088119e+02 1.054416e+03
      endloop
   endfacet
   facet normal -8.191520e-01 0.000000e+00 5.735764e-01
      outer loop
         vertex 6.931643e+02 1.403812e+03 1.054416e+03
         vertex 6.931643e+02 2.088119e+02 1.054416e+03
         vertex 7.027625e+02 1.403812e+03 1.068124e+03
      endloop
   endfacet
   facet normal -8.191520e-01 0.000000e+00 5.735764e-01
      outer loop
         vertex 7.027625e+02 1.403812e+03 1.068124e+03
         vertex 6.931643e+02 2.088119e+02 1.054416e+03
         vertex 7.027625e+02 2.088119e+02 1.068124e+03
      endloop
   endfacet
   facet normal -9.063078e-01 0.000000e+00 4.226183e-01
      outer loop
         vertex 7.027625e+02 1.403812e+03 1.068124e+03
         vertex 7.027625e+02 2.088119e+02 1.068124e+03
         vertex 7.098346e+02 1.403812e+03 1.083290e+03
      endloop
   endfacet
   facet normal -9.063078e-01 0.000000e+00 4.226183e-01
      outer loop
         vertex 7.098346e+02 1.403812e+03 1.083290e+03
         vertex 7.027625e+02 2.088119e+02 1.068124e+03
         vertex 7.098346e+02 2.088119e+02 1.083290e+03
      endloop
   endfacet
   facet normal -9.659258e-01 0.000000e+00 2.588190e-01
      outer loop
         vertex 7.098346e+02 1.403812e+03 1.083290e+03
         vertex 7.098346e+02 2.088119e+02 1.083290e+03
         vertex 7.141656e+02 1.403812e+03 1.099454e+03
      endloop
   endfacet
   facet normal -9.659258e-01 0.000000e+00 2.588190e-01
      outer loop
         vertex 7.141656e+02 1.403812e+03 1.099454e+03
         vertex 7.098346e+02 2.088119e+02 1.083290e+03
         vertex 7.141656e+02 2.088119e+02 1.099454e+03
      endloop
   endfacet
   facet normal -9.961947e-01 0.000000e+00 8.715591e-02
      outer loop
         vertex 7.141656e+02 1.403812e+03 1.099454e+03
         vertex 7.141656e+02 2.088119e+02 1.099454e+03
         vertex 7.156241e+02 1.403812e+03 1.116124e+03
      endloop
   endfacet
   facet normal -9.961947e-01 0.000000e+00 8.715591e-02
      outer loop
         vertex 7.156241e+02 1.403812e+03 1.116124e+03
         vertex 7.141656e+02 2.088119e+02 1.099454e+03
         vertex 7.156241e+02 2.088119e+02 1.116124e+03
      endloop
   endfacet
   facet normal -9.961947e-01 -0.000000e+00 -8.715591e-02
      outer loop
         vertex 7.156241e+02 1.403812e+03 1.116124e+03
         vertex 7.156241e+02 2.088119e+02 1.116124e+03
         vertex 7.141656e+02 1.403812e+03 1.132794e+03
      endloop
   endfacet
   facet normal -9.961947e-01 -0.000000e+00 -8.715591e-02
      outer loop
         vertex 7.141656e+02 1.403812e+03 1.132794e+03
         vertex 7.156241e+02 2.088119e+02 1.116124e+03
         vertex 7.141656e+02 2.088119e+02 1.132794e+03
      endloop
   endfacet
   facet normal -9.659258e-01 -0.000000e+00 -2.588190e-01
      outer loop
         vertex 7.141656e+02 1.403812e+03 1.132794e+03
         vertex 7.141656e+02 2.088119e+02 1.132794e+03
         vertex 7.098346e+02 1.403812e+03 1.148958e+03
      endloop
   endfacet
   facet normal -9.659258e-01 -0.000000e+00 -2.588190e-01
      outer loop
         vertex 7.098346e+02 1.403812e+03 1.148958e+03
         vertex 7.141656e+02 2.088119e+02 1.132794e+03
         vertex 7.098346e+02 2.088119e+02 1.148958e+03
      endloop
   endfacet
   facet normal -9.063078e-01 -0.000000e+00 -4.226183e-01
      outer loop
         vertex 7.098346e+02 1.403812e+03 1.148958e+03
         vertex 7.098346e+02 2.088119e+02 1.148958e+03
         vertex 7.027625e+02 1.403812e+03 1.164124e+03
      endloop
   endfacet
   facet normal -9.063078e-01 -0.000000e+00 -4.226183e-01
      outer loop
         vertex 7.027625e+02 1.403812e+03 1.164124e+03
         vertex 7.098346e+02 2.088119e+02 1.148958e+03
         vertex 7.027625e+02 2.088119e+02 1.164124e+03
      endloop
   endfacet
   facet normal -8.191520e-01 -0.000000e+00 -5.735764e-01
      outer loop
         vertex 7.027625e+02 1.403812e+03 1.164124e+03
         vertex 7.027625e+02 2.088119e+02 1.164124e+03
         vertex 6.931643e+02 1.403812e+03 1.177831e+03
      endloop
   endfacet
   facet normal -8.191520e-01 -0.000000e+00 -5.735764e-01
      outer loop
         vertex 6.931643e+02 1.403812e+03 1.177831e+03
         vertex 7.027625e+02 2.088119e+02 1.164124e+03
         vertex 6.931643e+02 2.088119e+02 1.177831e+03
      endloop
   endfacet
   facet normal -7.071068e-01 -0.000000e+00 -7.071068e-01
      outer loop
         vertex 6.931643e+02 1.403812e+03 1.177831e+03
         vertex 6.931643e+02 2.088119e+02 1.177831e+03
         vertex 6.813317e+02 1.403812e+03 1.189664e+03
      endloop
   endfacet
   facet normal -7.071068e-01 -0.000000e+00 -7.071068e-01
      outer loop
         vertex 6.813317e+02 1.403812e+03 1.189664e+03
         vertex 6.931643e+02 2.088119e+02 1.177831e+03
         vertex 6.813317e+02 2.088119e+02 1.189664e+03
      endloop
   endfacet
   facet normal -5.735764e-01 -0.000000e+00 -8.191520e-01
      outer loop
         vertex 6.813317e+02 1.403812e+03 1.189664e+03
         vertex 6.813317e+02 2.088119e+02 1.189664e+03
         vertex 6.676241e+02 1.403812e+03 1.199262e+03
      endloop
   endfacet
   facet normal -5.735764e-01 -0.000000e+00 -8.191520e-01
      outer loop
         vertex 6.676241e+02 1.403812e+03 1.199262e+03
         vertex 6.813317e+02 2.088119e+02 1.189664e+03
         vertex 6.676241e+02 2.088119e+02 1.199262e+03
      endloop
   endfacet
   facet normal -4.226183e-01 -0.000000e+00 -9.063078e-01
      outer loop
         vertex 6.676241e+02 1.403812e+03 1.199262e+03
         vertex 6.676241e+02 2.088119e+02 1.199262e+03
         vertex 6.524580e+02 1.403812e+03 1.206334e+03
      endloop
   endfacet
   facet normal -4.226183e-01 -0.000000e+00 -9.063078e-01
      outer loop
         vertex 6.524580e+02 1.403812e+03 1.206334e+03
         vertex 6.676241e+02 2.088119e+02 1.199262e+03
         vertex 6.524580e+02 2.088119e+02 1.206334e+03
      endloop
   endfacet
   facet normal -2.588190e-01 -0.000000e+00 -9.659258e-01
      outer loop
         vertex 6.524580e+02 1.403812e+03 1.206334e+03
         vertex 6.524580e+02 2.088119e+02 1.206334e+03
         vertex 6.362943e+02 1.403812e+03 1.210665e+03
      endloop
   endfacet
   facet normal -2.588190e-01 -0.000000e+00 -9.659258e-01
      outer loop
         vertex 6.362943e+02 1.403812e+03 1.210665e+03
         vertex 6.524580e+02 2.088119e+02 1.206334e+03
         vertex 6.362943e+02 2.088119e+02 1.210665e+03
      endloop
   endfacet
   facet normal -8.715591e-02 -0.000000e+00 -9.961947e-01
      outer loop
         vertex 6.362943e+02 1.403812e+03 1.210665e+03
         vertex 6.362943e+02 2.088119e+02 1.210665e+03
         vertex 6.196241e+02 1.403812e+03 1.212124e+03
      endloop
   endfacet
   facet normal -8.715591e-02 -0.000000e+00 -9.961947e-01
      outer loop
         vertex 6.196241e+02 1.403812e+03 1.212124e+03
         vertex 6.362943e+02 2.088119e+02 1.210665e+03
         vertex 6.196241e+02 2.088119e+02 1.212124e+03
      endloop
   endfacet
   facet normal 8.715591e-02 0.000000e+00 -9.961947e-01
      outer loop
         vertex 6.196241e+02 1.403812e+03 1.212124e+03
         vertex 6.196241e+02 2.088119e+02 1.212124e+03
         vertex 6.029538e+02 1.403812e+03 1.210665e+03
      endloop
   endfacet
   facet normal 8.715591e-02 0.000000e+00 -9.961947e-01
      outer loop
         vertex 6.029538e+02 1.403812e+03 1.210665e+03
         vertex 6.196241e+02 2.088119e+02 1.212124e+03
         vertex 6.029538e+02 2.088119e+02 1.210665e+03
      endloop
   endfacet
   facet normal 2.588190e-01 0.000000e+00 -9.659258e-01
      outer loop
         vertex 6.029538e+02 1.403812e+03 1.210665e+03
         vertex 6.029538e+02 2.088119e+02 1.210665e+03
         vertex 5.867901e+02 1.403812e+03 1.206334e+03
      endloop
   endfacet
   facet normal 2.588190e-01 0.000000e+00 -9.659258e-01
      outer loop
         vertex 5.867901e+02 1.403812e+03 1.206334e+03
         vertex 6.029538e+02 2.088119e+02 1.210665e+03
         vertex 5.867901e+02 2.088119e+02 1.206334e+03
      endloop
   endfacet
   facet normal 4.226183e-01 0.000000e+00 -9.063078e-01
      outer loop
         vertex 5.867901e+02 1.403812e+03 1.206334e+03
         vertex 5.867901e+02 2.088119e+02 1.206334e+03
         vertex 5.716241e+02 1.403812e+03 1.199262e+03
      endloop
   endfacet
   facet normal 4.226183e-01 0.000000e+00 -9.063078e-01
      outer loop
         vertex 5.716241e+02 1.403812e+03 1.199262e+03
         vertex 5.867901e+02 2.088119e+02 1.206334e+03
         vertex 5.716241e+02 2.088119e+02 1.199262e+03
      endloop
   endfacet
   facet normal 5.735764e-01 0.000000e+00 -8.191520e-01
      outer loop
         vertex 5.716241e+02 1.403812e+03 1.199262e+03
         vertex 5.716241e+02 2.088119e+02 1.199262e+03
         vertex 5.579165e+02 1.403812e+03 1.189664e+03
      endloop
   endfacet
   facet normal 5.735764e-01 0.000000e+00 -8.191520e-01
      outer loop
         vertex 5.579165e+02 1.403812e+03 1.189664e+03
         vertex 5.716241e+02 2.088119e+02 1.199262e+03
         vertex 5.579165e+02 2.088119e+02 1.189664e+03
      endloop
   endfacet
   facet normal 7.071068e-01 0.000000e+00 -7.071068e-01
      outer loop
         vertex 5.579165e+02 1.403812e+03 1.189664e+03
         vertex 5.579165e+02 2.088119e+02 1.189664e+03
         vertex 5.460838e+02 1.403812e+03 1.177831e+03
      endloop
   endfacet
   facet normal 7.071068e-01 0.000000e+00 -7.071068e-01
      outer loop
         vertex 5.460838e+02 1.403812e+03 1.177831e+03
         vertex 5.579165e+02 2.088119e+02 1.189664e+03
         vertex 5.460838e+02 2.088119e+02 1.177831e+03
      endloop
   endfacet
   facet normal 8.191520e-01 0.000000e+00 -5.735764e-01
      outer loop
         vertex 5.460838e+02 1.403812e+03 1.177831e+03
         vertex 5.460838e+02 2.088119e+02 1.177831e+03
         vertex 5.364856e+02 1.403812e+03 1.164124e+03
      endloop
   endfacet
   facet normal 8.191520e-01 0.000000e+00 -5.735764e-01
      outer loop
         vertex 5.364856e+02 1.403812e+03 1.164124e+03
         vertex 5.460838e+02 2.088119e+02 1.177831e+03
         vertex 5.364856e+02 2.088119e+02 1.164124e+03
      endloop
   endfacet
   facet normal 9.063078e-01 0.000000e+00 -4.226183e-01
      outer loop
         vertex 5.364856e+02 1.403812e+03 1.164124e+03
         vertex 5.364856e+02 2.088119e+02 1.164124e+03
         vertex 5.294136e+02 1.403812e+03 1.148958e+03
      endloop
   endfacet
   facet normal 9.063078e-01 0.000000e+00 -4.226183e-01
      outer loop
         vertex 5.294136e+02 1.403812e+03 1.148958e+03
         vertex 5.364856e+02 2.088119e+02 1.164124e+03
         vertex 5.294136e+02 2.088119e+02 1.148958e+03
      endloop
   endfacet
   facet normal 9.659258e-01 0.000000e+00 -2.588190e-01
      outer loop
         vertex 5.294136e+02 1.403812e+03 1.148958e+03
         vertex 5.294136e+02 2.088119e+02 1.148958e+03
         vertex 5.250825e+02 1.403812e+03 1.132794e+03
      endloop
   endfacet
   facet normal 9.659258e-01 0.000000e+00 -2.588190e-01
      outer loop
         vertex 5.250825e+02 1.403812e+03 1.132794e+03
         vertex 5.294136e+02 2.088119e+02 1.148958e+03
         vertex 5.250825e+02 2.088119e+02 1.132794e+03
      endloop
   endfacet
   facet normal 9.961947e-01 0.000000e+00 -8.715591e-02
      outer loop
         vertex 5.250825e+02 1.403812e+03 1.132794e+03
         vertex 5.250825e+02 2.088119e+02 1.132794e+03
         vertex 5.236241e+02 1.403812e+03 1.116124e+03
      endloop
   endfacet
   facet normal 9.961947e-01 0.000000e+00 -8.715591e-02
      outer loop
         vertex 5.236241e+02 1.403812e+03 1.116124e+03
         vertex 5.250825e+02 2.088119e+02 1.132794e+03
         vertex 5.236241e+02 2.088119e+02 1.116124e+03
      endloop
   endfacet
   facet normal 9.961947e-01 0.000000e+00 8.715591e-02
      outer loop
         vertex 5.236241e+02 1.403812e+03 1.116124e+03
         vertex 5.236241e+02 2.088119e+02 1.116124e+03
         vertex 5.250825e+02 1.403812e+03 1.099454e+03
      endloop
   endfacet
   facet normal 9.961947e-01 0.000000e+00 8.715591e-02
      outer loop
         vertex 5.250825e+02 1.403812e+03 1.099454e+03
         vertex 5.236241e+02 2.088119e+02 1.116124e+03
         vertex 5.250825e+02 2.088119e+02 1.099454e+03
      endloop
   endfacet
   facet normal 9.659258e-01 0.000000e+00 2.588190e-01
      outer loop
         vertex 5.250825e+02 1.403812e+03 1.099454e+03
         vertex 5.250825e+02 2.088119e+02 1.099454e+03
         vertex 5.294136e+02 1.403812e+03 1.083290e+03
      endloop
   endfacet
   facet normal 9.659258e-01 0.000000e+00 2.588190e-01
      outer loop
         vertex 5.294136e+02 1.403812e+03 1.083290e+03
         vertex 5.250825e+02 2.088119e+02 1.099454e+03
         vertex 5.294136e+02 2.088119e+02 1.083290e+03
      endloop
   endfacet
   facet normal 9.063078e-01 0.000000e+00 4.226183e-01
      outer loop
         vertex 5.294136e+02 1.403812e+03 1.083290e+03
         vertex 5.294136e+02 2.088119e+02 1.083290e+03
         vertex 5.364856e+02 1.403812e+03 1.068124e+03
      endloop
   endfacet
   facet normal 9.063078e-01 0.000000e+00 4.226183e-01
      outer loop
         vertex 5.364856e+02 1.403812e+03 1.068124e+03
         vertex 5.294136e+02 2.088119e+02 1.083290e+03
         vertex 5.364856e+02 2.088119e+02 1.068124e+03
      endloop
   endfacet
   facet normal 8.191520e-01 0.000000e+00 5.735764e-01
      outer loop
         vertex 5.364856e+02 1.403812e+03 1.068124e+03
         vertex 5.364856e+02 2.088119e+02 1.068124e+03
         vertex 5.460838e+02 1.403812e+03 1.054416e+03
      endloop
   endfacet
   facet normal 8.191520e-01 0.000000e+00 5.735764e-01
      outer loop
         vertex 5.460838e+02 1.403812e+03 1.054416e+03
         vertex 5.364856e+02 2.088119e+02 1.068124e+03
         vertex 5.460838e+02 2.088119e+02 1.054416e+03
      endloop
   endfacet
   facet normal 7.071068e-01 0.000000e+00 7.071068e-01
      outer loop
         vertex 5.460838e+02 1.403812e+03 1.054416e+03
         vertex 5.460838e+02 2.088119e+02 1.054416e+03
         vertex 5.579165e+02 1.403812e+03 1.042584e+03
      endloop
   endfacet
   facet normal 7.071068e-01 0.000000e+00 7.071068e-01
      outer loop
         vertex 5.579165e+02 1.403812e+03 1.042584e+03
         vertex 5.460838e+02 2.088119e+02 1.054416e+03
         vertex 5.579165e+02 2.088119e+02 1.042584e+03
      endloop
   endfacet
   facet normal 5.735764e-01 0.000000e+00 8.191520e-01
      outer loop
         vertex 5.579165e+02 1.403812e+03 1.042584e+03
         vertex 5.579165e+02 2.088119e+02 1.042584e+03
         vertex 5.716241e+02 1.403812e+03 1.032985e+03
      endloop
   endfacet
   facet normal 5.735764e-01 0.000000e+00 8.191520e-01
      outer loop
         vertex 5.716241e+02 1.403812e+03 1.032985e+03
         vertex 5.579165e+02 2.088119e+02 1.042584e+03
         vertex 5.716241e+02 2.088119e+02 1.032985e+03
      endloop
   endfacet
   facet normal 4.226183e-01 0.000000e+00 9.063078e-01
      outer loop
         vertex 5.716241e+02 1.403812e+03 1.032985e+03
         vertex 5.716241e+02 2.088119e+02 1.032985e+03
         vertex 5.867901e+02 1.403812e+03 1.025913e+03
      endloop
   endfacet
   facet normal 4.226183e-01 0.000000e+00 9.063078e-01
      outer loop
         vertex 5.867901e+02 1.403812e+03 1.025913e+03
         vertex 5.716241e+02 2.088119e+02 1.032985e+03
         vertex 5.867901e+02 2.088119e+02 1.025913e+03
      endloop
   endfacet
   facet normal 2.588190e-01 0.000000e+00 9.659258e-01
      outer loop
         vertex 5.867901e+02 1.403812e+03 1.025913e+03
         vertex 5.867901e+02 2.088119e+02 1.025913e+03
         vertex 6.029538e+02 1.403812e+03 1.021582e+03
      endloop
   endfacet
   facet normal 2.588190e-01 0.000000e+00 9.659258e-01
      outer loop
         vertex 6.029538e+02 1.403812e+03 1.021582e+03
         vertex 5.867901e+02 2.088119e+02 1.025913e+03
         vertex 6.029538e+02 2.088119e+02 1.021582e+03
      endloop
   endfacet
   facet normal 8.715591e-02 0.000000e+00 9.961947e-01
      outer loop
         vertex 6.029538e+02 1.403812e+03 1.021582e+03
         vertex 6.029538e+02 2.088119e+02 1.021582e+03
         vertex 6.196241e+02 1.403812e+03 1.020124e+03
      endloop
   endfacet
   facet normal 8.715591e-02 0.000000e+00 9.961947e-01
      outer loop
         vertex 6.196241e+02 1.403812e+03 1.020124e+03
         vertex 6.029538e+02 2.088119e+02 1.021582e+03
         vertex 6.196241e+02 2.088119e+02 1.020124e+03
      endloop
   endfacet
endsolid